<svg width="309" height="62" viewBox="0 0 309 62" fill="none" xmlns="http://www.w3.org/2000/svg"><path d="M3.265 1.29c.89 0 1.635.085 2.235.255.61.17 1.065.45 1.365.84.31.39.465.91.465 1.56 0 .42-.08.795-.24 1.125-.15.32-.38.59-.69.81-.3.21-.67.355-1.11.435v.075c.45.07.855.2 1.215.39.37.19.66.46.87.81.21.35.315.805.315 1.365 0 .65-.15 1.205-.45 1.665-.3.45-.73.795-1.29 1.035-.55.23-1.21.345-1.98.345H.205V1.29h3.06zm.27 4.56c.92 0 1.55-.145 1.89-.435.34-.3.51-.74.51-1.32 0-.59-.21-1.01-.63-1.26-.41-.26-1.07-.39-1.98-.39h-1.77V5.85h1.98zm-1.98 1.125v3.885h2.16c.95 0 1.61-.185 1.98-.555.37-.37.555-.855.555-1.455 0-.38-.085-.71-.255-.99-.16-.28-.435-.495-.825-.645-.38-.16-.9-.24-1.56-.24H1.555zm11.451 5.175c-.71 0-1.345-.145-1.905-.435-.55-.29-.985-.74-1.305-1.35-.31-.61-.465-1.39-.465-2.34 0-.99.165-1.795.495-2.415.33-.62.775-1.075 1.335-1.365.57-.29 1.215-.435 1.935-.435.41 0 .805.045 1.185.135.38.08.69.18.93.3l-.405 1.095c-.24-.09-.52-.175-.84-.255a3.72 3.72 0 00-.9-.12c-.54 0-.985.115-1.335.345-.35.23-.61.57-.78 1.02-.17.45-.255 1.01-.255 1.68 0 .64.085 1.185.255 1.635.17.45.425.79.765 1.02.34.23.765.345 1.275.345.44 0 .825-.045 1.155-.135.34-.09.65-.2.93-.33v1.17c-.27.14-.57.245-.9.315-.32.08-.71.12-1.17.12zm7.087-8.34c.69 0 1.28.15 1.77.45.5.3.88.725 1.14 1.275.27.54.405 1.175.405 1.905v.795h-5.505c.02.91.25 1.605.69 2.085.45.47 1.075.705 1.875.705.51 0 .96-.045 1.35-.135.4-.1.81-.24 1.23-.42v1.155c-.41.18-.815.31-1.215.39-.4.09-.875.135-1.425.135-.76 0-1.435-.155-2.025-.465a3.303 3.303 0 01-1.365-1.38c-.32-.62-.48-1.375-.48-2.265 0-.88.145-1.635.435-2.265.3-.63.715-1.115 1.245-1.455.54-.34 1.165-.51 1.875-.51zm-.015 1.08c-.63 0-1.13.205-1.5.615-.36.4-.575.96-.645 1.68h4.095c0-.46-.07-.86-.21-1.2a1.695 1.695 0 00-.645-.795c-.28-.2-.645-.3-1.095-.3zm10.403-.93v3.345h4.365V3.96h1.32V12h-1.32V8.415h-4.365V12h-1.32V3.96h1.32zm11.336-.15c.69 0 1.28.15 1.77.45.5.3.88.725 1.14 1.275.27.54.405 1.175.405 1.905v.795h-5.505c.02.91.25 1.605.69 2.085.45.47 1.075.705 1.875.705.51 0 .96-.045 1.35-.135.4-.1.81-.24 1.23-.42v1.155c-.41.18-.815.31-1.215.39-.4.09-.875.135-1.425.135-.76 0-1.435-.155-2.025-.465a3.303 3.303 0 01-1.365-1.38c-.32-.62-.48-1.375-.48-2.265 0-.88.145-1.635.435-2.265.3-.63.715-1.115 1.245-1.455.54-.34 1.165-.51 1.875-.51zm-.015 1.08c-.63 0-1.13.205-1.5.615-.36.4-.575.96-.645 1.68h4.095c0-.46-.07-.86-.21-1.2a1.695 1.695 0 00-.645-.795c-.28-.2-.645-.3-1.095-.3zm12.367 3.075c0 .67-.09 1.265-.27 1.785-.17.51-.42.945-.75 1.305-.32.36-.715.635-1.185.825-.46.18-.975.27-1.545.27-.53 0-1.02-.09-1.47-.27-.45-.19-.84-.465-1.17-.825-.33-.36-.59-.795-.78-1.305-.18-.52-.27-1.115-.27-1.785 0-.89.15-1.64.45-2.25.3-.62.73-1.09 1.29-1.41.56-.33 1.225-.495 1.995-.495.73 0 1.37.165 1.92.495.56.32.995.79 1.305 1.41.32.61.48 1.36.48 2.25zm-6.075 0c0 .63.08 1.18.24 1.65.17.46.43.815.78 1.065.35.25.795.375 1.335.375.54 0 .985-.125 1.335-.375s.605-.605.765-1.065c.17-.47.255-1.02.255-1.65 0-.64-.085-1.185-.255-1.635-.17-.45-.43-.795-.78-1.035-.34-.25-.785-.375-1.335-.375-.82 0-1.415.27-1.785.81-.37.54-.555 1.285-.555 2.235zm7.747-.795c0-1.17.115-2.165.345-2.985.24-.83.605-1.49 1.095-1.98.5-.5 1.14-.835 1.92-1.005.65-.14 1.285-.265 1.905-.375.62-.11 1.2-.21 1.74-.3l.225 1.155c-.26.04-.55.09-.87.15-.32.05-.645.105-.975.165-.33.05-.65.105-.96.165-.3.05-.565.1-.795.15-.33.07-.625.19-.885.36-.26.16-.485.38-.675.66-.18.28-.325.625-.435 1.035-.11.41-.175.895-.195 1.455h.09c.14-.19.33-.385.57-.585.25-.2.545-.37.885-.51.35-.14.745-.21 1.185-.21.7 0 1.28.155 1.74.465.47.3.82.72 1.05 1.26.24.54.36 1.17.36 1.89 0 .89-.155 1.635-.465 2.235-.31.6-.74 1.05-1.29 1.35-.55.29-1.19.435-1.92.435-.55 0-1.05-.105-1.5-.315-.45-.22-.835-.54-1.155-.96-.32-.42-.565-.94-.735-1.56-.17-.62-.255-1.335-.255-2.145zm3.75 3.885c.44 0 .82-.09 1.14-.27.33-.18.585-.475.765-.885.18-.41.27-.955.27-1.635 0-.82-.155-1.465-.465-1.935-.3-.48-.8-.72-1.5-.72-.44 0-.84.1-1.2.3-.36.19-.66.41-.9.66-.24.25-.41.46-.51.63 0 .49.035.965.105 1.425.07.46.19.875.36 1.245.18.36.425.65.735.87.32.21.72.315 1.2.315zm7.554-3.165L64.37 3.96h1.5l2.07 3.03 2.055-3.03h1.485l-2.775 3.93L71.63 12h-1.5l-2.19-3.21L65.72 12h-1.485l2.91-4.11zm12.732.075c0 .67-.09 1.265-.27 1.785-.17.51-.42.945-.75 1.305-.32.36-.715.635-1.185.825-.46.18-.975.27-1.545.27-.53 0-1.02-.09-1.47-.27-.45-.19-.84-.465-1.17-.825-.33-.36-.59-.795-.78-1.305-.18-.52-.27-1.115-.27-1.785 0-.89.15-1.64.45-2.25.3-.62.73-1.09 1.29-1.41.56-.33 1.225-.495 1.995-.495.73 0 1.37.165 1.92.495.56.32.995.79 1.305 1.41.32.61.48 1.36.48 2.25zm-6.075 0c0 .63.08 1.18.24 1.65.17.46.43.815.78 1.065.35.25.795.375 1.335.375.54 0 .985-.125 1.335-.375s.605-.605.765-1.065c.17-.47.255-1.02.255-1.65 0-.64-.085-1.185-.255-1.635-.17-.45-.43-.795-.78-1.035-.34-.25-.785-.375-1.335-.375-.82 0-1.415.27-1.785.81-.37.54-.555 1.285-.555 2.235zM87.939 3.96v6.93h1.17v3.9h-1.275V12h-5.595v2.79h-1.26v-3.9h.645a9.78 9.78 0 001.14-2.085c.31-.76.54-1.55.69-2.37.16-.83.245-1.655.255-2.475h4.23zm-3.06 1.035a12.59 12.59 0 01-.315 2.115c-.17.72-.39 1.41-.66 2.07-.26.66-.565 1.23-.915 1.71h3.675V4.995h-1.785zm7.05 3.87c0 .09-.004.22-.014.39 0 .16-.005.335-.015.525l-.03.525c-.01.16-.02.29-.03.39l4.305-6.735h1.62V12h-1.23V7.26v-.63l.03-.765c.01-.26.02-.455.03-.585L92.32 12h-1.635V3.96h1.245v4.905zm17.019-4.905V12h-1.185V6.87c0-.21.005-.43.015-.66l.06-.675h-.045L105.168 12h-1.11l-2.55-6.465h-.045c.02.22.03.445.03.675.01.23.015.465.015.705V12h-1.185V3.96h1.755l2.535 6.465 2.58-6.465h1.755zm2.567 8.04V3.96h1.32v3.3h2.085c.7 0 1.275.085 1.725.255.45.17.785.425 1.005.765.22.33.33.75.33 1.26 0 .5-.11.935-.33 1.305-.21.37-.545.655-1.005.855-.45.2-1.045.3-1.785.3h-3.345zm3.225-1.065c.57 0 1.035-.095 1.395-.285.36-.2.54-.545.54-1.035 0-.49-.165-.82-.495-.99-.33-.18-.805-.27-1.425-.27h-1.92v2.58h1.905zM119.315 12V3.96h1.32V12h-1.32zm6.98-8.19c.69 0 1.28.15 1.77.45.5.3.88.725 1.14 1.275.27.54.405 1.175.405 1.905v.795h-5.505c.02.91.25 1.605.69 2.085.45.47 1.075.705 1.875.705.51 0 .96-.045 1.35-.135.4-.1.81-.24 1.23-.42v1.155c-.41.18-.815.31-1.215.39-.4.09-.875.135-1.425.135-.76 0-1.435-.155-2.025-.465a3.303 3.303 0 01-1.365-1.38c-.32-.62-.48-1.375-.48-2.265 0-.88.145-1.635.435-2.265.3-.63.715-1.115 1.245-1.455.54-.34 1.165-.51 1.875-.51zm-.015 1.08c-.63 0-1.13.205-1.5.615-.36.4-.575.96-.645 1.68h4.095c0-.46-.07-.86-.21-1.2a1.695 1.695 0 00-.645-.795c-.28-.2-.645-.3-1.095-.3zm11.197-1.08c.61 0 1.14.085 1.59.255.45.16.8.4 1.05.72.25.31.375.69.375 1.14 0 .49-.135.88-.405 1.17-.27.28-.64.485-1.11.615v.06c.32.09.615.215.885.375s.485.37.645.63c.17.26.255.595.255 1.005 0 .44-.125.84-.375 1.2-.24.36-.615.645-1.125.855-.5.21-1.145.315-1.935.315-.38 0-.745-.02-1.095-.06-.34-.04-.65-.1-.93-.18-.27-.08-.51-.175-.72-.285V10.44c.34.16.74.305 1.2.435.47.13.98.195 1.53.195.4 0 .76-.045 1.08-.135.33-.09.59-.23.78-.42.19-.2.285-.47.285-.81 0-.31-.085-.56-.255-.75-.17-.2-.425-.35-.765-.45-.33-.1-.755-.15-1.275-.15h-1.08v-1.08h.87c.69 0 1.24-.09 1.65-.27.42-.19.63-.51.63-.96 0-.38-.16-.665-.48-.855-.31-.19-.76-.285-1.35-.285-.44 0-.83.045-1.17.135-.33.08-.695.205-1.095.375l-.465-1.05c.43-.19.88-.33 1.35-.42a7.72 7.72 0 011.455-.135zm6.559.15v3.345h4.365V3.96h1.32V12h-1.32V8.415h-4.365V12h-1.32V3.96h1.32zm11.276-.135c.98 0 1.705.215 2.175.645.47.43.705 1.115.705 2.055V12h-.96l-.255-1.14h-.06c-.23.29-.47.535-.72.735-.24.19-.52.33-.84.42-.31.09-.69.135-1.14.135-.48 0-.915-.085-1.305-.255-.38-.17-.68-.43-.9-.78-.22-.36-.33-.81-.33-1.35 0-.8.315-1.415.945-1.845.63-.44 1.6-.68 2.91-.72l1.365-.045v-.48c0-.67-.145-1.135-.435-1.395-.29-.26-.7-.39-1.23-.39-.42 0-.82.065-1.2.195-.38.12-.735.26-1.065.42l-.405-.99c.35-.19.765-.35 1.245-.48.48-.14.98-.21 1.5-.21zm.39 4.29c-1 .04-1.695.2-2.085.48-.38.28-.57.675-.57 1.185 0 .45.135.78.405.99.28.21.635.315 1.065.315.68 0 1.245-.185 1.695-.555.45-.38.675-.96.675-1.74v-.72l-1.185.045zm6.293-4.155v3.345h4.365V3.96h1.32V12h-1.32V8.415h-4.365V12h-1.32V3.96h1.32zm9.476 4.905c0 .09-.005.22-.015.39 0 .16-.005.335-.015.525l-.03.525c-.01.16-.02.29-.03.39l4.305-6.735h1.62V12h-1.23V7.26v-.63l.03-.765c.01-.26.02-.455.03-.585L171.861 12h-1.635V3.96h1.245v4.905zM180.359 12h-1.53l2.295-3.375c-.31-.08-.61-.205-.9-.375a2.073 2.073 0 01-.705-.735c-.18-.32-.27-.715-.27-1.185 0-.77.26-1.355.78-1.755.52-.41 1.21-.615 2.07-.615h3.6V12h-1.32V8.805h-1.95L180.359 12zm.165-5.655c0 .46.17.805.51 1.035.35.22.835.33 1.455.33h1.89V5.055h-2.145c-.61 0-1.05.12-1.32.36-.26.24-.39.55-.39.93zm8.334 4.65c.14.44.21.85.21 1.23 0 .52-.13.935-.39 1.245-.26.32-.65.48-1.17.48v-.585c.25 0 .43-.07.54-.21.12-.13.18-.34.18-.63v-.135h-.765v-1.395h1.395zm7.033-7.035v3.345h4.365V3.96h1.32V12h-1.32V8.415h-4.365V12h-1.32V3.96h1.32zm11.276-.135c.98 0 1.705.215 2.175.645.47.43.705 1.115.705 2.055V12h-.96l-.255-1.14h-.06c-.23.29-.47.535-.72.735-.24.19-.52.33-.84.42-.31.09-.69.135-1.14.135-.48 0-.915-.085-1.305-.255-.38-.17-.68-.43-.9-.78-.22-.36-.33-.81-.33-1.35 0-.8.315-1.415.945-1.845.63-.44 1.6-.68 2.91-.72l1.365-.045v-.48c0-.67-.145-1.135-.435-1.395-.29-.26-.7-.39-1.23-.39-.42 0-.82.065-1.2.195-.38.12-.735.26-1.065.42l-.405-.99c.35-.19.765-.35 1.245-.48.48-.14.98-.21 1.5-.21zm.39 4.29c-1 .04-1.695.2-2.085.48-.38.28-.57.675-.57 1.185 0 .45.135.78.405.99.28.21.635.315 1.065.315.68 0 1.245-.185 1.695-.555.45-.38.675-.96.675-1.74v-.72l-1.185.045zm11.438-2.13c0 .5-.15.89-.45 1.17-.3.28-.685.47-1.155.57v.06c.5.07.935.25 1.305.54.37.28.555.72.555 1.32 0 .34-.065.655-.195.945-.12.29-.31.54-.57.75-.26.21-.595.375-1.005.495-.41.11-.905.165-1.485.165h-3.465V3.96h3.45c.57 0 1.08.065 1.53.195.46.12.82.33 1.08.63.27.29.405.69.405 1.2zm-1.11 3.66c0-.46-.175-.79-.525-.99-.35-.2-.865-.3-1.545-.3h-1.965v2.58h1.995c.66 0 1.165-.095 1.515-.285.35-.2.525-.535.525-1.005zm-.225-3.495c0-.38-.14-.655-.42-.825-.27-.18-.715-.27-1.335-.27h-2.055V7.26h1.815c.65 0 1.145-.09 1.485-.27.34-.18.51-.46.51-.84zm3.513 5.85V3.96h1.32v3.3h2.085c.7 0 1.275.085 1.725.255.45.17.785.425 1.005.765.22.33.33.75.33 1.26 0 .5-.11.935-.33 1.305-.21.37-.545.655-1.005.855-.45.2-1.045.3-1.785.3h-3.345zm3.225-1.065c.57 0 1.035-.095 1.395-.285.36-.2.54-.545.54-1.035 0-.49-.165-.82-.495-.99-.33-.18-.805-.27-1.425-.27h-1.92v2.58h1.905zM228.973 12V3.96h1.32V12h-1.32zm8.63-8.04h1.44l-3.435 3.87 3.72 4.17h-1.53l-3.63-4.08V12h-1.32V3.96h1.32v3.9l3.435-3.9zm4.429 4.905c0 .09-.005.22-.015.39 0 .16-.005.335-.015.525l-.03.525c-.01.16-.02.29-.03.39l4.305-6.735h1.62V12h-1.23V7.26v-.63l.03-.765c.01-.26.02-.455.03-.585L242.422 12h-1.635V3.96h1.245v4.905zm9.009 2.13c.14.44.21.85.21 1.23 0 .52-.13.935-.39 1.245-.26.32-.65.48-1.17.48v-.585c.25 0 .43-.07.54-.21.12-.13.18-.34.18-.63v-.135h-.765v-1.395h1.395zm11.263-5.925h-2.625V12h-1.305V5.07h-2.595V3.96h6.525v1.11zm5.409-1.26c.99 0 1.785.345 2.385 1.035.61.69.915 1.73.915 3.12 0 .91-.14 1.68-.42 2.31-.27.62-.655 1.09-1.155 1.41-.49.31-1.07.465-1.74.465a3.36 3.36 0 01-1.095-.165c-.32-.11-.595-.25-.825-.42a3.49 3.49 0 01-.57-.585h-.09c.02.17.04.385.06.645.02.26.03.485.03.675v3.3h-1.32V3.96h1.08l.18 1.095h.06c.16-.23.35-.44.57-.63.23-.19.5-.34.81-.45.32-.11.695-.165 1.125-.165zm-.24 1.11c-.54 0-.975.105-1.305.315-.33.2-.57.505-.72.915-.15.41-.23.93-.24 1.56v.255c0 .66.07 1.22.21 1.68.14.46.375.81.705 1.05.34.24.8.36 1.38.36.49 0 .89-.135 1.2-.405.32-.27.555-.635.705-1.095.16-.47.24-1.005.24-1.605 0-.92-.18-1.655-.54-2.205-.35-.55-.895-.825-1.635-.825zm8.748-1.11c.69 0 1.28.15 1.77.45.5.3.88.725 1.14 1.275.27.54.405 1.175.405 1.905v.795h-5.505c.02.91.25 1.605.69 2.085.45.47 1.075.705 1.875.705.51 0 .96-.045 1.35-.135.4-.1.81-.24 1.23-.42v1.155c-.41.18-.815.31-1.215.39-.4.09-.875.135-1.425.135-.76 0-1.435-.155-2.025-.465a3.303 3.303 0 01-1.365-1.38c-.32-.62-.48-1.375-.48-2.265 0-.88.145-1.635.435-2.265.3-.63.715-1.115 1.245-1.455.54-.34 1.165-.51 1.875-.51zm-.015 1.08c-.63 0-1.13.205-1.5.615-.36.4-.575.96-.645 1.68h4.095c0-.46-.07-.86-.21-1.2a1.695 1.695 0 00-.645-.795c-.28-.2-.645-.3-1.095-.3zm6.697-.93v3.345h4.365V3.96h1.32V12h-1.32V8.415h-4.365V12h-1.32V3.96h1.32zm14.201 0v6.93h1.17v3.9h-1.275V12h-5.595v2.79h-1.26v-3.9h.645a9.78 9.78 0 001.14-2.085c.31-.76.54-1.55.69-2.37.16-.83.245-1.655.255-2.475h4.23zm-3.06 1.035a12.59 12.59 0 01-.315 2.115c-.17.72-.39 1.41-.66 2.07-.26.66-.565 1.23-.915 1.71h3.675V4.995h-1.785zM299.85 12V3.96h1.32v3.3h2.085c.7 0 1.275.085 1.725.255.45.17.785.425 1.005.765.22.33.33.75.33 1.26 0 .5-.11.935-.33 1.305-.21.37-.545.655-1.005.855-.45.2-1.045.3-1.785.3h-3.345zm3.225-1.065c.57 0 1.035-.095 1.395-.285.36-.2.54-.545.54-1.035 0-.49-.165-.82-.495-.99-.33-.18-.805-.27-1.425-.27h-1.92v2.58h1.905zM307.65 12V3.96h1.32V12h-1.32zM14.776 31.865c0 .09-.005.22-.015.39 0 .16-.005.335-.015.525l-.03.525c-.01.16-.02.29-.03.39l4.305-6.735h1.62V35h-1.23v-4.74-.63l.03-.765c.01-.26.02-.455.03-.585L15.166 35h-1.635v-8.04h1.245v4.905zm18.895-4.905V35h-1.32v-6.915h-4.155V35h-1.32v-8.04h6.795zm9.555 4.005c0 .67-.09 1.265-.27 1.785-.17.51-.42.945-.75 1.305-.32.36-.715.635-1.185.825-.46.18-.975.27-1.545.27-.53 0-1.02-.09-1.47-.27-.45-.19-.84-.465-1.17-.825-.33-.36-.59-.795-.78-1.305-.18-.52-.27-1.115-.27-1.785 0-.89.15-1.64.45-2.25.3-.62.73-1.09 1.29-1.41.56-.33 1.225-.495 1.995-.495.73 0 1.37.165 1.92.495.56.32.995.79 1.305 1.41.32.61.48 1.36.48 2.25zm-6.075 0c0 .63.08 1.18.24 1.65.17.46.43.815.78 1.065.35.25.795.375 1.335.375.54 0 .985-.125 1.335-.375s.605-.605.765-1.065c.17-.47.255-1.02.255-1.65 0-.64-.085-1.185-.255-1.635-.17-.45-.43-.795-.78-1.035-.34-.25-.785-.375-1.335-.375-.82 0-1.415.27-1.785.81-.37.54-.555 1.285-.555 2.235zM51.438 35h-1.335v-6.945h-2.37a38.64 38.64 0 01-.374 3.255c-.15.89-.34 1.615-.57 2.175-.23.56-.506.97-.825 1.23-.32.26-.695.39-1.125.39-.13 0-.26-.01-.39-.03a.824.824 0 01-.3-.075v-.99c.06.02.124.035.194.045.07.01.14.015.21.015.22 0 .42-.09.6-.27.18-.18.34-.455.48-.825.15-.37.285-.835.405-1.395.12-.57.226-1.24.316-2.01.09-.77.17-1.64.24-2.61h4.844V35zm5.657-8.19c.69 0 1.28.15 1.77.45.5.3.88.725 1.14 1.275.27.54.405 1.175.405 1.905v.795h-5.505c.02.91.25 1.605.69 2.085.45.47 1.075.705 1.875.705.51 0 .96-.045 1.35-.135.4-.1.81-.24 1.23-.42v1.155c-.41.18-.815.31-1.215.39-.4.09-.875.135-1.425.135-.76 0-1.435-.155-2.025-.465a3.303 3.303 0 01-1.365-1.38c-.32-.62-.48-1.375-.48-2.265 0-.88.145-1.635.435-2.265.3-.63.715-1.115 1.245-1.455.54-.34 1.165-.51 1.875-.51zm-.015 1.08c-.63 0-1.13.205-1.5.615-.36.4-.575.96-.645 1.68h4.095c0-.46-.07-.86-.21-1.2a1.695 1.695 0 00-.645-.795c-.28-.2-.645-.3-1.095-.3zm7.492-1.08c.61 0 1.14.085 1.59.255.45.16.8.4 1.05.72.25.31.375.69.375 1.14 0 .49-.135.88-.405 1.17-.27.28-.64.485-1.11.615v.06c.32.09.615.215.885.375s.485.37.645.63c.17.26.255.595.255 1.005 0 .44-.125.84-.375 1.2-.24.36-.615.645-1.125.855-.5.21-1.145.315-1.935.315-.38 0-.745-.02-1.095-.06-.34-.04-.65-.1-.93-.18-.27-.08-.51-.175-.72-.285V33.44c.34.16.74.305 1.2.435.47.13.98.195 1.53.195.4 0 .76-.045 1.08-.135.33-.09.59-.23.78-.42.19-.2.285-.47.285-.81 0-.31-.085-.56-.255-.75-.17-.2-.425-.35-.765-.45-.33-.1-.755-.15-1.275-.15h-1.08v-1.08h.87c.69 0 1.24-.09 1.65-.27.42-.19.63-.51.63-.96 0-.38-.16-.665-.48-.855-.31-.19-.76-.285-1.35-.285-.44 0-.83.045-1.17.135-.33.08-.695.205-1.095.375l-.465-1.05c.43-.19.88-.33 1.35-.42a7.72 7.72 0 011.455-.135zm6.559.15v3.345h4.365V26.96h1.32V35h-1.32v-3.585H71.13V35h-1.32v-8.04h1.32zM79.36 35v-8.04h1.32v3.3h2.085c.7 0 1.275.085 1.725.255.45.17.785.425 1.005.765.22.33.33.75.33 1.26 0 .5-.11.935-.33 1.305-.21.37-.545.655-1.005.855-.45.2-1.045.3-1.785.3h-3.345zm3.225-1.065c.57 0 1.035-.095 1.395-.285.36-.2.54-.545.54-1.035 0-.49-.165-.82-.495-.99-.33-.18-.805-.27-1.425-.27h-1.92v2.58h1.905zM87.161 35v-8.04h1.32V35h-1.32zm6.98-8.19c.69 0 1.28.15 1.77.45.5.3.88.725 1.14 1.275.27.54.405 1.175.405 1.905v.795h-5.505c.02.91.25 1.605.69 2.085.45.47 1.075.705 1.875.705.51 0 .96-.045 1.35-.135.4-.1.81-.24 1.23-.42v1.155c-.41.18-.815.31-1.215.39-.4.09-.875.135-1.425.135-.76 0-1.435-.155-2.025-.465a3.303 3.303 0 01-1.365-1.38c-.32-.62-.48-1.375-.48-2.265 0-.88.145-1.635.435-2.265.3-.63.715-1.115 1.245-1.455.54-.34 1.165-.51 1.875-.51zm-.015 1.08c-.63 0-1.13.205-1.5.615-.36.4-.575.96-.645 1.68h4.095c0-.46-.07-.86-.21-1.2a1.695 1.695 0 00-.645-.795c-.28-.2-.645-.3-1.095-.3zm15.548 1.095c0 .5-.15.89-.45 1.17-.3.28-.685.47-1.155.57v.06c.5.07.935.25 1.305.54.37.28.555.72.555 1.32 0 .34-.065.655-.195.945-.12.29-.31.54-.57.75-.26.21-.595.375-1.005.495-.41.11-.905.165-1.485.165h-3.465v-8.04h3.45c.57 0 1.08.065 1.53.195.46.12.82.33 1.08.63.27.29.405.69.405 1.2zm-1.11 3.66c0-.46-.175-.79-.525-.99-.35-.2-.865-.3-1.545-.3h-1.965v2.58h1.995c.66 0 1.165-.095 1.515-.285.35-.2.525-.535.525-1.005zm-.225-3.495c0-.38-.14-.655-.42-.825-.27-.18-.715-.27-1.335-.27h-2.055v2.205h1.815c.65 0 1.145-.09 1.485-.27.34-.18.51-.46.51-.84zm11.044-2.34c.99 0 1.785.345 2.385 1.035.61.69.915 1.73.915 3.12 0 .91-.14 1.68-.42 2.31-.27.62-.655 1.09-1.155 1.41-.49.31-1.07.465-1.74.465a3.36 3.36 0 01-1.095-.165c-.32-.11-.595-.25-.825-.42a3.49 3.49 0 01-.57-.585h-.09c.02.17.04.385.06.645.02.26.03.485.03.675v3.3h-1.32V26.96h1.08l.18 1.095h.06c.16-.23.35-.44.57-.63.23-.19.5-.34.81-.45.32-.11.695-.165 1.125-.165zm-.24 1.11c-.54 0-.975.105-1.305.315-.33.2-.57.505-.72.915-.15.41-.23.93-.24 1.56v.255c0 .66.07 1.22.21 1.68.14.46.375.81.705 1.05.34.24.8.36 1.38.36.49 0 .89-.135 1.2-.405.32-.27.555-.635.705-1.095.16-.47.24-1.005.24-1.605 0-.92-.18-1.655-.54-2.205-.35-.55-.895-.825-1.635-.825zm8.688-1.095c.98 0 1.705.215 2.175.645.47.43.705 1.115.705 2.055V35h-.96l-.255-1.14h-.06c-.23.29-.47.535-.72.735-.24.19-.52.33-.84.42-.31.09-.69.135-1.14.135-.48 0-.915-.085-1.305-.255-.38-.17-.68-.43-.9-.78-.22-.36-.33-.81-.33-1.35 0-.8.315-1.415.945-1.845.63-.44 1.6-.68 2.91-.72l1.365-.045v-.48c0-.67-.145-1.135-.435-1.395-.29-.26-.7-.39-1.23-.39-.42 0-.82.065-1.2.195-.38.12-.735.26-1.065.42l-.405-.99c.35-.19.765-.35 1.245-.48.48-.14.98-.21 1.5-.21zm.39 4.29c-1 .04-1.695.2-2.085.48-.38.28-.57.675-.57 1.185 0 .45.135.78.405.99.28.21.635.315 1.065.315.68 0 1.245-.185 1.695-.555.45-.38.675-.96.675-1.74v-.72l-1.185.045zm4.553-.945c0-1.17.115-2.165.345-2.985.24-.83.605-1.49 1.095-1.98.5-.5 1.14-.835 1.92-1.005.65-.14 1.285-.265 1.905-.375.62-.11 1.2-.21 1.74-.3l.225 1.155c-.26.04-.55.09-.87.15-.32.05-.645.105-.975.165-.33.05-.65.105-.96.165-.3.05-.565.1-.795.15-.33.07-.625.19-.885.36-.26.16-.485.38-.675.66-.18.28-.325.625-.435 1.035-.11.41-.175.895-.195 1.455h.09c.14-.19.33-.385.57-.585.25-.2.545-.37.885-.51.35-.14.745-.21 1.185-.21.7 0 1.28.155 1.74.465.47.3.82.72 1.05 1.26.24.54.36 1.17.36 1.89 0 .89-.155 1.635-.465 2.235-.31.6-.74 1.05-1.29 1.35-.55.29-1.19.435-1.92.435-.55 0-1.05-.105-1.5-.315-.45-.22-.835-.54-1.155-.96-.32-.42-.565-.94-.735-1.56-.17-.62-.255-1.335-.255-2.145zm3.75 3.885c.44 0 .82-.09 1.14-.27.33-.18.585-.475.765-.885.18-.41.27-.955.27-1.635 0-.82-.155-1.465-.465-1.935-.3-.48-.8-.72-1.5-.72-.44 0-.84.1-1.2.3-.36.19-.66.41-.9.66-.24.25-.41.46-.51.63 0 .49.035.965.105 1.425.07.46.19.875.36 1.245.18.36.425.65.735.87.32.21.72.315 1.2.315zm12.64-3.09c0 .67-.09 1.265-.27 1.785-.17.51-.42.945-.75 1.305-.32.36-.715.635-1.185.825-.46.18-.975.27-1.545.27-.53 0-1.02-.09-1.47-.27-.45-.19-.84-.465-1.17-.825-.33-.36-.59-.795-.78-1.305-.18-.52-.27-1.115-.27-1.785 0-.89.15-1.64.45-2.25.3-.62.73-1.09 1.29-1.41.56-.33 1.225-.495 1.995-.495.73 0 1.37.165 1.92.495.56.32.995.79 1.305 1.41.32.61.48 1.36.48 2.25zm-6.075 0c0 .63.08 1.18.24 1.65.17.46.43.815.78 1.065.35.25.795.375 1.335.375.54 0 .985-.125 1.335-.375s.605-.605.765-1.065c.17-.47.255-1.02.255-1.65 0-.64-.085-1.185-.255-1.635-.17-.45-.43-.795-.78-1.035-.34-.25-.785-.375-1.335-.375-.82 0-1.415.27-1.785.81-.37.54-.555 1.285-.555 2.235zm13.57-2.895h-2.625V35h-1.305v-6.93h-2.595v-1.11h6.525v1.11zm4.543-1.26c.69 0 1.28.15 1.77.45.5.3.88.725 1.14 1.275.27.54.405 1.175.405 1.905v.795h-5.505c.02.91.25 1.605.69 2.085.45.47 1.075.705 1.875.705.51 0 .96-.045 1.35-.135.4-.1.81-.24 1.23-.42v1.155c-.41.18-.815.31-1.215.39-.4.09-.875.135-1.425.135-.76 0-1.435-.155-2.025-.465a3.303 3.303 0 01-1.365-1.38c-.32-.62-.48-1.375-.48-2.265 0-.88.145-1.635.435-2.265.3-.63.715-1.115 1.245-1.455.54-.34 1.165-.51 1.875-.51zm-.015 1.08c-.63 0-1.13.205-1.5.615-.36.4-.575.96-.645 1.68h4.095c0-.46-.07-.86-.21-1.2a1.695 1.695 0 00-.645-.795c-.28-.2-.645-.3-1.095-.3zm10.328 3.975c0 .09-.005.22-.015.39 0 .16-.005.335-.015.525l-.03.525c-.01.16-.02.29-.03.39l4.305-6.735h1.62V35h-1.23v-4.74-.63l.03-.765c.01-.26.02-.455.03-.585L171.905 35h-1.635v-8.04h1.245v4.905zm9.713-4.905v3.345h4.365V26.96h1.32V35h-1.32v-3.585h-4.365V35h-1.32v-8.04h1.32zm11.456 8.19c-.71 0-1.345-.145-1.905-.435-.55-.29-.985-.74-1.305-1.35-.31-.61-.465-1.39-.465-2.34 0-.99.165-1.795.495-2.415.33-.62.775-1.075 1.335-1.365.57-.29 1.215-.435 1.935-.435.41 0 .805.045 1.185.135.38.08.69.18.93.3l-.405 1.095c-.24-.09-.52-.175-.84-.255a3.72 3.72 0 00-.9-.12c-.54 0-.985.115-1.335.345-.35.23-.61.57-.78 1.02-.17.45-.255 1.01-.255 1.68 0 .64.085 1.185.255 1.635.17.45.425.79.765 1.02.34.23.765.345 1.275.345.44 0 .825-.045 1.155-.135.34-.09.65-.2.93-.33v1.17c-.27.14-.57.245-.9.315-.32.08-.71.12-1.17.12zm9.532-7.08h-2.625V35h-1.305v-6.93h-2.595v-1.11h6.525v1.11zm5.409-1.26c.99 0 1.785.345 2.385 1.035.61.69.915 1.73.915 3.12 0 .91-.14 1.68-.42 2.31-.27.62-.655 1.09-1.155 1.41-.49.31-1.07.465-1.74.465a3.36 3.36 0 01-1.095-.165c-.32-.11-.595-.25-.825-.42a3.49 3.49 0 01-.57-.585h-.09c.02.17.04.385.06.645.02.26.03.485.03.675v3.3h-1.32V26.96h1.08l.18 1.095h.06c.16-.23.35-.44.57-.63.23-.19.5-.34.81-.45.32-.11.695-.165 1.125-.165zm-.24 1.11c-.54 0-.975.105-1.305.315-.33.2-.57.505-.72.915-.15.41-.23.93-.24 1.56v.255c0 .66.07 1.22.21 1.68.14.46.375.81.705 1.05.34.24.8.36 1.38.36.49 0 .89-.135 1.2-.405.32-.27.555-.635.705-1.095.16-.47.24-1.005.24-1.605 0-.92-.18-1.655-.54-2.205-.35-.55-.895-.825-1.635-.825zm4.237-.96h1.41l1.74 4.575c.1.27.19.53.27.78.09.25.17.495.24.735.07.23.125.455.165.675h.06c.06-.25.155-.575.285-.975.13-.41.265-.82.405-1.23l1.635-4.56h1.425l-3.465 9.15c-.19.5-.415.935-.675 1.305-.25.38-.56.67-.93.87-.36.21-.8.315-1.32.315-.24 0-.45-.015-.63-.045a4.126 4.126 0 01-.465-.075v-1.05c.11.02.24.04.39.06.16.02.325.03.495.03.31 0 .575-.06.795-.18.23-.11.425-.275.585-.495.16-.21.295-.46.405-.75l.42-1.065-3.24-8.07zm17.531 0V35h-1.185v-5.13c0-.21.005-.43.015-.66l.06-.675h-.045L225.373 35h-1.11l-2.55-6.465h-.045c.02.22.03.445.03.675.01.23.015.465.015.705V35h-1.185v-8.04h1.755l2.535 6.465 2.58-6.465h1.755zm5.672-.15c.69 0 1.28.15 1.77.45.5.3.88.725 1.14 1.275.27.54.405 1.175.405 1.905v.795h-5.505c.02.91.25 1.605.69 2.085.45.47 1.075.705 1.875.705.51 0 .96-.045 1.35-.135.4-.1.81-.24 1.23-.42v1.155c-.41.18-.815.31-1.215.39-.4.09-.875.135-1.425.135-.76 0-1.435-.155-2.025-.465a3.303 3.303 0 01-1.365-1.38c-.32-.62-.48-1.375-.48-2.265 0-.88.145-1.635.435-2.265.3-.63.715-1.115 1.245-1.455.54-.34 1.165-.51 1.875-.51zm-.015 1.08c-.63 0-1.13.205-1.5.615-.36.4-.575.96-.645 1.68h4.095c0-.46-.07-.86-.21-1.2a1.695 1.695 0 00-.645-.795c-.28-.2-.645-.3-1.095-.3zm6.697-.93v3.345h4.365V26.96h1.32V35h-1.32v-3.585h-4.365V35h-1.32v-8.04h1.32zm13.78 1.11h-2.625V35h-1.305v-6.93h-2.595v-1.11h6.525v1.11zm1.584 6.93v-8.04h1.32v3.3h2.085c.7 0 1.275.085 1.725.255.45.17.785.425 1.005.765.22.33.33.75.33 1.26 0 .5-.11.935-.33 1.305-.21.37-.545.655-1.005.855-.45.2-1.045.3-1.785.3h-3.345zm3.225-1.065c.57 0 1.035-.095 1.395-.285.36-.2.54-.545.54-1.035 0-.49-.165-.82-.495-.99-.33-.18-.805-.27-1.425-.27h-1.92v2.58h1.905zM264.671 35v-8.04h1.32V35h-1.32zm13.551-8.04v6.93h1.17v3.9h-1.275V35h-5.595v2.79h-1.26v-3.9h.645a9.78 9.78 0 001.14-2.085c.31-.76.54-1.55.69-2.37.16-.83.245-1.655.255-2.475h4.23zm-3.06 1.035a12.59 12.59 0 01-.315 2.115c-.17.72-.39 1.41-.66 2.07-.26.66-.565 1.23-.915 1.71h3.675v-5.895h-1.785zM287.088 35h-1.335v-6.945h-2.37a38.64 38.64 0 01-.375 3.255c-.15.89-.34 1.615-.57 2.175-.23.56-.505.97-.825 1.23-.32.26-.695.39-1.125.39-.13 0-.26-.01-.39-.03a.824.824 0 01-.3-.075v-.99c.06.02.125.035.195.045.07.01.14.015.21.015.22 0 .42-.09.6-.27.18-.18.34-.455.48-.825.15-.37.285-.835.405-1.395.12-.57.225-1.24.315-2.01.09-.77.17-1.64.24-2.61h4.845V35zm3.047 0h-1.53l2.295-3.375c-.31-.08-.61-.205-.9-.375a2.073 2.073 0 01-.705-.735c-.18-.32-.27-.715-.27-1.185 0-.77.26-1.355.78-1.755.52-.41 1.21-.615 2.07-.615h3.6V35h-1.32v-3.195h-1.95L290.135 35zm.165-5.655c0 .46.17.805.51 1.035.35.22.835.33 1.455.33h1.89v-2.655h-2.145c-.61 0-1.05.12-1.32.36-.26.24-.39.55-.39.93zM120.759 49.96v6.93h1.17v3.9h-1.275V58h-5.595v2.79h-1.26v-3.9h.645a9.78 9.78 0 001.14-2.085c.31-.76.54-1.55.69-2.37.16-.83.245-1.655.255-2.475h4.23zm-3.06 1.035a12.59 12.59 0 01-.315 2.115c-.17.72-.39 1.41-.66 2.07-.26.66-.565 1.23-.915 1.71h3.675v-5.895h-1.785zm7.05 3.87c0 .09-.005.22-.015.39 0 .16-.005.335-.015.525l-.03.525c-.01.16-.02.29-.03.39l4.305-6.735h1.62V58h-1.23v-4.74-.63l.03-.765c.01-.26.02-.455.03-.585L125.139 58h-1.635v-8.04h1.245v4.905zm10.509-5.055c.61 0 1.14.085 1.59.255.45.16.8.4 1.05.72.25.31.375.69.375 1.14 0 .49-.135.88-.405 1.17-.27.28-.64.485-1.11.615v.06c.32.09.615.215.885.375s.485.37.645.63c.17.26.255.595.255 1.005 0 .44-.125.84-.375 1.2-.24.36-.615.645-1.125.855-.5.21-1.145.315-1.935.315-.38 0-.745-.02-1.095-.06-.34-.04-.65-.1-.93-.18-.27-.08-.51-.175-.72-.285V56.44c.34.16.74.305 1.2.435.47.13.98.195 1.53.195.4 0 .76-.045 1.08-.135.33-.09.59-.23.78-.42.19-.2.285-.47.285-.81 0-.31-.085-.56-.255-.75-.17-.2-.425-.35-.765-.45-.33-.1-.755-.15-1.275-.15h-1.08v-1.08h.87c.69 0 1.24-.09 1.65-.27.42-.19.63-.51.63-.96 0-.38-.16-.665-.48-.855-.31-.19-.76-.285-1.35-.285-.44 0-.83.045-1.17.135-.33.08-.695.205-1.095.375l-.465-1.05c.43-.19.88-.33 1.35-.42a7.72 7.72 0 011.455-.135zm8.284.015c.98 0 1.705.215 2.175.645.47.43.705 1.115.705 2.055V58h-.96l-.255-1.14h-.06c-.23.29-.47.535-.72.735-.24.19-.52.33-.84.42-.31.09-.69.135-1.14.135-.48 0-.915-.085-1.305-.255-.38-.17-.68-.43-.9-.78-.22-.36-.33-.81-.33-1.35 0-.8.315-1.415.945-1.845.63-.44 1.6-.68 2.91-.72l1.365-.045v-.48c0-.67-.145-1.135-.435-1.395-.29-.26-.7-.39-1.23-.39-.42 0-.82.065-1.2.195-.38.12-.735.26-1.065.42l-.405-.99c.35-.19.765-.35 1.245-.48.48-.14.98-.21 1.5-.21zm.39 4.29c-1 .04-1.695.2-2.085.48-.38.28-.57.675-.57 1.185 0 .45.135.78.405.99.28.21.635.315 1.065.315.68 0 1.245-.185 1.695-.555.45-.38.675-.96.675-1.74v-.72l-1.185.045zm11.483-7.485c-.04.5-.165.92-.375 1.26-.2.34-.5.595-.9.765-.4.17-.92.255-1.56.255-.65 0-1.175-.085-1.575-.255-.39-.17-.675-.42-.855-.75-.18-.34-.29-.765-.33-1.275h1.23c.05.54.19.905.42 1.095.24.18.62.27 1.14.27.46 0 .82-.095 1.08-.285.27-.2.43-.56.48-1.08h1.245zm-5.265 8.235c0 .09-.005.22-.015.39 0 .16-.005.335-.015.525l-.03.525c-.01.16-.02.29-.03.39l4.305-6.735h1.62V58h-1.23v-4.74-.63l.03-.765c.01-.26.02-.455.03-.585L150.54 58h-1.635v-8.04h1.245v4.905zm9.714-4.905v3.345h4.365V49.96h1.32V58h-1.32v-3.585h-4.365V58h-1.32v-8.04h1.32zm11.335-.15c.69 0 1.28.15 1.77.45.5.3.88.725 1.14 1.275.27.54.405 1.175.405 1.905v.795h-5.505c.02.91.25 1.605.69 2.085.45.47 1.075.705 1.875.705.51 0 .96-.045 1.35-.135.4-.1.81-.24 1.23-.42v1.155c-.41.18-.815.31-1.215.39-.4.09-.875.135-1.425.135-.76 0-1.435-.155-2.025-.465a3.303 3.303 0 01-1.365-1.38c-.32-.62-.48-1.375-.48-2.265 0-.88.145-1.635.435-2.265.3-.63.715-1.115 1.245-1.455.54-.34 1.165-.51 1.875-.51zm-.015 1.08c-.63 0-1.13.205-1.5.615-.36.4-.575.96-.645 1.68h4.095c0-.46-.07-.86-.21-1.2a1.695 1.695 0 00-.645-.795c-.28-.2-.645-.3-1.095-.3zm9.202-1.08c.99 0 1.785.345 2.385 1.035.61.69.915 1.73.915 3.12 0 .91-.14 1.68-.42 2.31-.27.62-.655 1.09-1.155 1.41-.49.31-1.07.465-1.74.465a3.36 3.36 0 01-1.095-.165c-.32-.11-.595-.25-.825-.42a3.49 3.49 0 01-.57-.585h-.09c.02.17.04.385.06.645.02.26.03.485.03.675v3.3h-1.32V49.96h1.08l.18 1.095h.06c.16-.23.35-.44.57-.63.23-.19.5-.34.81-.45.32-.11.695-.165 1.125-.165zm-.24 1.11c-.54 0-.975.105-1.305.315-.33.2-.57.505-.72.915-.15.41-.23.93-.24 1.56v.255c0 .66.07 1.22.21 1.68.14.46.375.81.705 1.05.34.24.8.36 1.38.36.49 0 .89-.135 1.2-.405.32-.27.555-.635.705-1.095.16-.47.24-1.005.24-1.605 0-.92-.18-1.655-.54-2.205-.35-.55-.895-.825-1.635-.825zm8.689-1.095c.98 0 1.705.215 2.175.645.47.43.705 1.115.705 2.055V58h-.96l-.255-1.14h-.06c-.23.29-.47.535-.72.735-.24.19-.52.33-.84.42-.31.09-.69.135-1.14.135-.48 0-.915-.085-1.305-.255-.38-.17-.68-.43-.9-.78-.22-.36-.33-.81-.33-1.35 0-.8.315-1.415.945-1.845.63-.44 1.6-.68 2.91-.72l1.365-.045v-.48c0-.67-.145-1.135-.435-1.395-.29-.26-.7-.39-1.23-.39-.42 0-.82.065-1.2.195-.38.12-.735.26-1.065.42l-.405-.99c.35-.19.765-.35 1.245-.48.48-.14.98-.21 1.5-.21zm.39 4.29c-1 .04-1.695.2-2.085.48-.38.28-.57.675-.57 1.185 0 .45.135.78.405.99.28.21.635.315 1.065.315.68 0 1.245-.185 1.695-.555.45-.38.675-.96.675-1.74v-.72l-1.185.045zm5.798 2.28V58h-1.65v-1.605h1.65z" fill="#A0A3BD"/></svg>