<svg width="316" height="96" viewBox="0 0 316 96" fill="none" xmlns="http://www.w3.org/2000/svg"><rect width="316" height="96" rx="20" fill="#1B203D"/><path d="M32.004 44l-3.995-10.642h-.068c.023.227.04.516.051.867.023.351.04.737.051 1.156.011.408.017.827.017 1.258V44h-1.411V31.862h2.261l3.74 9.945h.068l3.808-9.945h2.244V44h-1.513v-7.463c0-.397.006-.788.017-1.173.011-.397.028-.765.051-1.105.023-.351.04-.646.051-.884h-.068L33.262 44h-1.258zm8.436-9.112h1.598l1.972 5.185c.113.306.215.6.306.884.102.283.192.561.272.833.08.26.142.516.187.765h.068c.068-.283.175-.652.323-1.105.147-.465.3-.93.459-1.394l1.853-5.168h1.615l-3.927 10.37a6.708 6.708 0 01-.765 1.479c-.284.43-.635.76-1.054.986-.408.238-.907.357-1.496.357-.272 0-.51-.017-.714-.051a4.682 4.682 0 01-.527-.085v-1.19c.124.023.272.045.442.068.181.023.368.034.56.034.352 0 .652-.068.902-.204.26-.125.481-.312.663-.561a3.36 3.36 0 00.459-.85l.476-1.207-3.672-9.146zm21.025 0l-3.757 4.42L61.788 44h-1.7l-3.944-4.624V44H54.75v-4.624L50.806 44h-1.7l4.08-4.692-3.757-4.42h1.632l3.689 4.42v-4.42h1.394v4.42l3.706-4.42h1.615zm5.142 9.282c-.805 0-1.525-.164-2.16-.493-.623-.329-1.116-.839-1.478-1.53-.352-.691-.527-1.575-.527-2.652 0-1.122.187-2.034.56-2.737.375-.703.88-1.218 1.514-1.547.646-.329 1.377-.493 2.193-.493.465 0 .912.051 1.343.153.43.09.782.204 1.054.34l-.46 1.241a8.85 8.85 0 00-.951-.289 4.214 4.214 0 00-1.02-.136c-.612 0-1.117.13-1.513.391-.397.26-.692.646-.884 1.156-.193.51-.29 1.145-.29 1.904 0 .725.097 1.343.29 1.853.192.51.481.895.867 1.156.385.26.867.391 1.445.391.498 0 .935-.051 1.309-.153a6.374 6.374 0 001.054-.374v1.326a4.012 4.012 0 01-1.02.357c-.363.09-.805.136-1.326.136zm9.902-9.282h1.632l-3.893 4.386L78.464 44H76.73l-4.114-4.624V44H71.12v-9.112h1.496v4.42l3.893-4.42zm11.199 4.539c0 .76-.102 1.434-.306 2.023a4.051 4.051 0 01-.85 1.479c-.363.408-.81.72-1.343.935a4.77 4.77 0 01-1.751.306c-.6 0-1.156-.102-1.666-.306a3.765 3.765 0 01-1.326-.935 4.47 4.47 0 01-.884-1.479c-.204-.59-.306-1.264-.306-2.023 0-1.009.17-1.859.51-2.55.34-.703.827-1.235 1.462-1.598.634-.374 1.388-.561 2.26-.561.828 0 1.553.187 2.177.561.635.363 1.127.895 1.479 1.598.362.691.544 1.541.544 2.55zm-6.885 0c0 .714.09 1.337.272 1.87.192.521.487.924.884 1.207.397.283.9.425 1.513.425.612 0 1.116-.142 1.513-.425.397-.283.686-.686.867-1.207.192-.533.289-1.156.289-1.87 0-.725-.097-1.343-.29-1.853-.192-.51-.486-.901-.883-1.173-.385-.283-.89-.425-1.513-.425-.93 0-1.604.306-2.023.918-.42.612-.63 1.456-.63 2.533zm16.634-8.313c-.045.567-.187 1.043-.425 1.428-.227.385-.567.674-1.02.867-.454.193-1.043.289-1.768.289-.737 0-1.332-.096-1.785-.289-.442-.193-.765-.476-.97-.85-.203-.385-.328-.867-.373-1.445h1.394c.056.612.215 1.026.476 1.241.272.204.703.306 1.292.306.521 0 .93-.108 1.224-.323.306-.227.487-.635.544-1.224h1.41zm-5.967 9.333c0 .102-.006.25-.017.442 0 .181-.006.38-.017.595l-.034.595c-.011.181-.023.329-.034.442l4.879-7.633h1.836V44h-1.394v-5.372-.714l.034-.867c.011-.295.023-.516.034-.663L91.932 44h-1.853v-9.112h1.41v5.559zm19.425-5.185c-.182-1.179-.782-1.768-1.802-1.768-.794 0-1.372.351-1.734 1.054-.363.691-.522 1.78-.476 3.264.181-.544.532-.975 1.054-1.292.532-.329 1.15-.493 1.853-.493 1.156 0 2.062.351 2.72 1.054.668.691 1.003 1.677 1.003 2.958 0 .793-.159 1.496-.476 2.108a3.448 3.448 0 01-1.428 1.445c-.624.351-1.383.527-2.278.527-1.746 0-2.947-.538-3.604-1.615-.658-1.088-.986-2.584-.986-4.488 0-2.187.351-3.808 1.054-4.862.714-1.054 1.864-1.581 3.451-1.581 1.212 0 2.142.346 2.788 1.037.646.691 1.014 1.575 1.105 2.652h-2.244zm-3.808 4.607c0 .635.181 1.162.544 1.581.374.408.918.612 1.632.612.612 0 1.099-.181 1.462-.544.362-.363.544-.867.544-1.513 0-.68-.187-1.201-.561-1.564-.363-.363-.856-.544-1.479-.544-.59 0-1.094.17-1.513.51-.42.34-.629.827-.629 1.462zm8.432-5.134c0-.578.158-1.116.476-1.615.328-.499.81-.901 1.445-1.207.646-.306 1.422-.459 2.329-.459.906 0 1.677.153 2.312.459.646.306 1.127.708 1.445 1.207.328.499.493 1.037.493 1.615 0 .657-.159 1.218-.476 1.683-.318.453-.794.793-1.428 1.02.714.272 1.258.669 1.632 1.19.385.51.578 1.133.578 1.87 0 .793-.199 1.479-.595 2.057-.397.567-.941.997-1.632 1.292-.68.295-1.457.442-2.329.442-.873 0-1.655-.147-2.346-.442-.68-.295-1.219-.725-1.615-1.292-.386-.578-.578-1.264-.578-2.057 0-.737.187-1.36.561-1.87.385-.521.935-.918 1.649-1.19-.635-.227-1.117-.572-1.445-1.037-.318-.465-.476-1.02-.476-1.666zm2.363.391c0 .544.17.963.51 1.258.34.295.799.442 1.377.442.589 0 1.054-.147 1.394-.442.34-.295.51-.714.51-1.258s-.176-.963-.527-1.258c-.34-.306-.799-.459-1.377-.459-.567 0-1.026.153-1.377.459-.34.295-.51.714-.51 1.258zm-.323 5.236c0 .6.198 1.077.595 1.428.396.351.935.527 1.615.527.68 0 1.218-.176 1.615-.527.408-.351.612-.827.612-1.428 0-.612-.21-1.077-.629-1.394-.408-.329-.941-.493-1.598-.493-.646 0-1.179.164-1.598.493-.408.317-.612.782-.612 1.394zm10.807-8.551c.793 0 1.439.244 1.938.731.51.476.765 1.139.765 1.989 0 .85-.255 1.519-.765 2.006-.499.476-1.145.714-1.938.714-.793 0-1.445-.238-1.955-.714-.499-.487-.748-1.156-.748-2.006 0-.85.249-1.513.748-1.989.51-.487 1.162-.731 1.955-.731zm7.684.153L129.389 44h-2.312l6.681-12.036h2.312zm-8.772 2.567c0 .385.096.697.289.935.193.227.453.34.782.34s.595-.113.799-.34c.204-.238.306-.55.306-.935s-.102-.691-.306-.918a1.002 1.002 0 00-.799-.357c-.329 0-.589.119-.782.357-.193.227-.289.533-.289.918zm7.48 4.182c.793 0 1.439.244 1.938.731.499.476.748 1.139.748 1.989 0 .85-.249 1.519-.748 2.006-.499.476-1.145.714-1.938.714-.793 0-1.445-.238-1.955-.714-.499-.487-.748-1.156-.748-2.006 0-.85.249-1.513.748-1.989.51-.487 1.162-.731 1.955-.731zm-1.088 2.72c0 .397.096.714.289.952.193.227.453.34.782.34s.595-.113.799-.34c.204-.238.306-.555.306-.952 0-.385-.102-.697-.306-.935a1.002 1.002 0 00-.799-.357c-.329 0-.589.119-.782.357-.193.227-.289.538-.289.935z" fill="#FCFCFC"/><path stroke="#4E4B66" stroke-width="8" stroke-linecap="round" d="M29 62h258"/><path d="M28 62h197" stroke="#0D56E1" stroke-width="8" stroke-linecap="round"/></svg>