<svg width="316" height="96" viewBox="0 0 316 96" fill="none" xmlns="http://www.w3.org/2000/svg"><rect width="316" height="96" rx="20" fill="#1B203D"/><path d="M29.896 37.761l-4.709-5.899h1.7l4.641 5.882v-5.882h1.462v5.882l4.641-5.882h1.7l-4.709 5.882L39.484 44h-1.751l-4.743-6.154V44h-1.462v-6.154L26.768 44h-1.751l4.879-6.239zm14.578-3.043c.782 0 1.45.17 2.006.51.566.34.997.822 1.292 1.445.306.612.459 1.332.459 2.159v.901h-6.24c.023 1.031.284 1.819.783 2.363.51.533 1.218.799 2.125.799.578 0 1.088-.051 1.53-.153a9.222 9.222 0 001.394-.476v1.309a6.694 6.694 0 01-1.377.442c-.454.102-.992.153-1.615.153-.862 0-1.627-.176-2.295-.527a3.743 3.743 0 01-1.547-1.564c-.363-.703-.544-1.558-.544-2.567 0-.997.164-1.853.493-2.567.34-.714.81-1.264 1.41-1.649.613-.385 1.321-.578 2.126-.578zm-.017 1.224c-.714 0-1.28.232-1.7.697-.408.453-.652 1.088-.731 1.904h4.64c0-.521-.079-.975-.237-1.36a1.921 1.921 0 00-.731-.901c-.318-.227-.731-.34-1.241-.34zm7.59-1.054v3.791h4.947v-3.791h1.495V44h-1.495v-4.063h-4.947V44H50.55v-9.112h1.495zM65.03 44.17c-.805 0-1.525-.164-2.16-.493-.623-.329-1.116-.839-1.478-1.53-.352-.691-.527-1.575-.527-2.652 0-1.122.187-2.034.56-2.737.375-.703.879-1.218 1.514-1.547.646-.329 1.377-.493 2.193-.493.464 0 .912.051 1.343.153.43.09.782.204 1.054.34l-.46 1.241a8.85 8.85 0 00-.951-.289 4.215 4.215 0 00-1.02-.136c-.612 0-1.117.13-1.513.391-.397.26-.692.646-.884 1.156-.193.51-.29 1.145-.29 1.904 0 .725.097 1.343.29 1.853.192.51.481.895.867 1.156.385.26.867.391 1.445.391.498 0 .935-.051 1.309-.153a6.377 6.377 0 001.054-.374v1.326a4.012 4.012 0 01-1.02.357c-.363.09-.805.136-1.326.136zm9.902-9.282h1.632l-3.893 4.386L76.887 44h-1.734l-4.114-4.624V44h-1.496v-9.112h1.496v4.42l3.893-4.42zm5.02 5.559c0 .102-.006.25-.017.442 0 .181-.006.38-.017.595l-.034.595c-.012.181-.023.329-.034.442l4.879-7.633h1.836V44H85.17v-5.372-.714l.034-.867c.011-.295.022-.516.034-.663L80.394 44H78.54v-9.112h1.41v5.559zm16.89-9.333c-.045.567-.186 1.043-.424 1.428-.227.385-.567.674-1.02.867-.454.193-1.043.289-1.769.289-.736 0-1.331-.096-1.785-.289-.441-.193-.764-.476-.968-.85-.205-.385-.33-.867-.375-1.445h1.394c.057.612.216 1.026.477 1.241.272.204.702.306 1.291.306.522 0 .93-.108 1.225-.323.305-.227.487-.635.543-1.224h1.412zm-5.966 9.333c0 .102-.006.25-.017.442 0 .181-.006.38-.017.595l-.034.595c-.012.181-.023.329-.035.442l4.88-7.633h1.835V44h-1.394v-5.372-.714l.035-.867c.01-.295.022-.516.033-.663L91.317 44h-1.852v-9.112h1.41v5.559zm17.385-8.908c.816 0 1.513.142 2.091.425.589.283 1.031.674 1.326 1.173.306.499.459 1.054.459 1.666 0 .77-.21 1.405-.629 1.904-.42.487-.975.788-1.666.901v.085c1.677.499 2.516 1.485 2.516 2.958 0 1.031-.346 1.87-1.037 2.516-.692.635-1.666.952-2.924.952-1.338 0-2.403-.329-3.196-.986-.794-.669-1.236-1.672-1.326-3.009h2.346c.056.612.255 1.1.595 1.462.351.351.844.527 1.479.527.544 0 .969-.147 1.275-.442.306-.306.459-.703.459-1.19 0-.578-.221-1.02-.663-1.326-.442-.306-1.094-.459-1.955-.459h-.493v-1.955h.493c1.586.023 2.38-.527 2.38-1.649 0-.487-.142-.867-.425-1.139-.284-.283-.669-.425-1.156-.425-.51 0-.93.164-1.258.493-.329.317-.516.765-.561 1.343h-2.346c.068-1.224.464-2.165 1.19-2.822.725-.669 1.734-1.003 3.026-1.003zm5.688 10.574c3.842-2.663 5.763-4.873 5.763-6.63 0-.533-.13-.952-.391-1.258-.249-.306-.646-.459-1.19-.459-1.122 0-1.717.765-1.785 2.295h-2.329c.068-1.417.499-2.488 1.292-3.213.794-.737 1.797-1.105 3.009-1.105 1.236 0 2.182.323 2.839.969.669.635 1.003 1.485 1.003 2.55 0 .839-.249 1.683-.748 2.533a10.272 10.272 0 01-1.87 2.329 14.986 14.986 0 01-2.397 1.819h5.253v1.955h-8.449v-1.785zm12.179-10.302c.794 0 1.44.244 1.938.731.51.476.765 1.139.765 1.989 0 .85-.255 1.519-.765 2.006-.498.476-1.144.714-1.938.714-.793 0-1.445-.238-1.955-.714-.498-.487-.748-1.156-.748-2.006 0-.85.25-1.513.748-1.989.51-.487 1.162-.731 1.955-.731zm7.684.153L127.131 44h-2.312l6.681-12.036h2.312zm-8.772 2.567c0 .385.097.697.289.935.193.227.454.34.782.34.329 0 .595-.113.799-.34.204-.238.306-.55.306-.935s-.102-.691-.306-.918a1.002 1.002 0 00-.799-.357c-.328 0-.589.119-.782.357-.192.227-.289.533-.289.918zm7.48 4.182c.794 0 1.44.244 1.938.731.499.476.748 1.139.748 1.989 0 .85-.249 1.519-.748 2.006-.498.476-1.144.714-1.938.714-.793 0-1.445-.238-1.955-.714-.498-.487-.748-1.156-.748-2.006 0-.85.25-1.513.748-1.989.51-.487 1.162-.731 1.955-.731zm-1.088 2.72c0 .397.097.714.289.952.193.227.454.34.782.34.329 0 .595-.113.799-.34.204-.238.306-.555.306-.952 0-.385-.102-.697-.306-.935a1.002 1.002 0 00-.799-.357c-.328 0-.589.119-.782.357-.192.227-.289.538-.289.935z" fill="#FCFCFC"/><path stroke="#4E4B66" stroke-width="8" stroke-linecap="round" d="M29 62h258"/><path d="M28 62h197" stroke="#25FCD5" stroke-width="8" stroke-linecap="round"/></svg>