<svg width="375" height="99" viewBox="0 0 375 99" fill="none" xmlns="http://www.w3.org/2000/svg"><g filter="url(#filter0_bd_46_894)"><path fill="#0F1029" d="M0 0h375v98H0z"/><path d="M16 44c0-5.523 4.477-10 10-10h323c5.523 0 10 4.477 10 10H16z" fill="#4E4B66"/><path fill-rule="evenodd" clip-rule="evenodd" d="M375 0H0v58c0-3.723 0-5.584.49-7.09a10 10 0 016.42-6.42C8.416 44 10.277 44 14 44h2c0-5.523 4.477-10 10-10h323c5.523 0 10 4.477 10 10h2c3.723 0 5.584 0 7.09.49a10.002 10.002 0 016.421 6.42C375 52.416 375 54.277 375 58V0z" fill="#000"/><path d="M42.64 84.282c3.42 0 5.496-2.448 5.496-6.267V78c0-3.835-2.092-6.26-5.495-6.26-3.387 0-5.495 2.416-5.495 6.26v.016c0 3.827 2.058 6.267 5.495 6.267zm0-1.378c-2.49 0-3.967-1.925-3.967-4.889V78c0-2.989 1.527-4.881 3.968-4.881 2.448 0 3.967 1.892 3.967 4.88v.017c0 2.963-1.51 4.89-3.967 4.89zm14.136-7.852h-7.239v1.195h2.897V84h1.445v-7.753h2.897v-1.195zM59.896 84v-6.367h.157l2.814 6.118h1.112l2.823-6.118h.157V84h1.445v-8.948h-1.677l-3.204 6.94h-.133l-3.187-6.94H58.45V84h1.444zm14.608.158c2.108 0 3.386-1.196 3.693-2.407l.017-.067H76.77l-.033.075c-.241.54-.988 1.112-2.2 1.112-1.594 0-2.615-1.079-2.657-2.93h6.442v-.565c0-2.672-1.478-4.482-3.91-4.482-2.432 0-4.009 1.893-4.009 4.657v.008c0 2.806 1.544 4.599 4.1 4.599zm-.1-7.977c1.32 0 2.3.838 2.449 2.606h-4.948c.158-1.702 1.17-2.606 2.499-2.606zM86.19 84h1.444v-8.948H86.19v3.702h-4.433v-3.702h-1.444V84h1.444v-4.05h4.433V84zm6.34.158c1.204 0 2.142-.523 2.706-1.478h.133V84h1.445v-6.126c0-1.86-1.22-2.98-3.404-2.98-1.909 0-3.27.946-3.503 2.35l-.008.049h1.444l.009-.025c.232-.697.938-1.096 2.008-1.096 1.337 0 2.01.598 2.01 1.702v.814l-2.566.157c-2.083.125-3.262 1.046-3.262 2.64v.016c0 1.627 1.287 2.657 2.988 2.657zm-1.51-2.69v-.016c0-.888.597-1.37 1.959-1.453l2.39-.15v.814c0 1.278-1.07 2.241-2.54 2.241-1.037 0-1.81-.531-1.81-1.436z" fill="#EFF0F7"/><path d="M167.592 84h-2.066V72.022h1.859l5.877 8.143h.141v-8.143h2.059V84h-1.851l-5.877-8.151h-.142V84zm13.314-1.47c.619 0 1.137-.176 1.552-.53.415-.36.622-.803.622-1.329v-.722l-2.05.133c-1.129.072-1.693.482-1.693 1.229 0 .376.144.675.431.896.294.216.673.324 1.138.324zm-.606 1.62c-.886 0-1.608-.25-2.167-.748-.559-.498-.838-1.156-.838-1.975 0-.82.296-1.461.888-1.926.598-.465 1.45-.73 2.557-.797l2.34-.141v-.764c0-.448-.146-.791-.439-1.029-.294-.238-.717-.357-1.27-.357-.476 0-.869.083-1.179.25-.31.16-.512.392-.606.696h-1.943c.083-.802.471-1.438 1.163-1.909.697-.476 1.585-.714 2.664-.714 1.162 0 2.059.269 2.69.805.636.537.954 1.29.954 2.258V84h-1.984v-1.245h-.141a2.66 2.66 0 01-1.096 1.03 3.412 3.412 0 01-1.593.364zm6.888-.15v-9.081h1.984v1.47h.141a2.4 2.4 0 01.955-1.213c.442-.293.965-.44 1.569-.44.614 0 1.137.147 1.568.44.432.288.745.692.938 1.212h.141a2.666 2.666 0 011.08-1.203 3.164 3.164 0 011.676-.449c.908 0 1.619.269 2.134.805.52.537.78 1.276.78 2.217V84h-2.05v-5.72c0-1.167-.554-1.75-1.661-1.75-.531 0-.96.17-1.286.514-.327.343-.49.778-.49 1.303V84h-2v-5.869c0-.498-.147-.888-.44-1.17-.294-.288-.695-.432-1.204-.432s-.932.186-1.27.556c-.338.371-.506.836-.506 1.395V84h-2.059zm18.808-7.628c-.614 0-1.12.202-1.519.606-.398.404-.619.938-.664 1.602h4.275c-.022-.675-.221-1.212-.597-1.61-.377-.4-.875-.598-1.495-.598zm2.109 5.13h1.95a3.154 3.154 0 01-1.369 1.967c-.714.476-1.602.714-2.665.714-1.333 0-2.382-.415-3.146-1.246-.758-.835-1.137-1.983-1.137-3.444 0-1.461.382-2.618 1.146-3.47.763-.858 1.804-1.287 3.121-1.287 1.295 0 2.307.407 3.038 1.22.736.808 1.104 1.93 1.104 3.362v.664h-6.342v.108c.028.758.243 1.359.647 1.802.41.437.952.655 1.627.655 1.041 0 1.716-.348 2.026-1.046z" fill="#1954C5"/><circle cx="328.26" cy="78" r="1.35" transform="rotate(-90 328.26 78)" fill="#EFF0F7"/><circle cx="334" cy="78" r="1.35" transform="rotate(-90 334 78)" fill="#EFF0F7"/><circle cx="339.74" cy="78" r="1.35" transform="rotate(-90 339.74 78)" fill="#EFF0F7"/><circle cx="334" cy="78" r="11.15" stroke="#EFF0F7" stroke-width="1.7"/></g><defs><filter id="filter0_bd_46_894" x="-20" y="-20" width="415" height="138" filterUnits="userSpaceOnUse" color-interpolation-filters="sRGB"><feFlood flood-opacity="0" result="BackgroundImageFix"/><feGaussianBlur in="BackgroundImageFix" stdDeviation="10"/><feComposite in2="SourceAlpha" operator="in" result="effect1_backgroundBlur_46_894"/><feColorMatrix in="SourceAlpha" values="0 0 0 0 0 0 0 0 0 0 0 0 0 0 0 0 0 0 127 0" result="hardAlpha"/><feOffset dy=".5"/><feColorMatrix values="0 0 0 0 0 0 0 0 0 0 0 0 0 0 0 0 0 0 0.3 0"/><feBlend in2="effect1_backgroundBlur_46_894" result="effect2_dropShadow_46_894"/><feBlend in="SourceGraphic" in2="effect2_dropShadow_46_894" result="shape"/></filter></defs></svg>