<svg width="375" height="90" viewBox="0 0 375 90" fill="none" xmlns="http://www.w3.org/2000/svg"><g filter="url(#filter0_d_46_916)"><path fill="#14142B" d="M0 20h375v70H0z"/></g><path d="M75.667 42.486a3 3 0 011.22-2.415L84 34.833l7.112 5.238a3 3 0 011.221 2.415v8.18a2.5 2.5 0 01-2.5 2.5H87.5a1 1 0 01-1-1v-4.75a.5.5 0 00-.5-.5h-4a.5.5 0 00-.5.5v4.75a1 1 0 01-1 1h-2.333a2.5 2.5 0 01-2.5-2.5v-8.18z" stroke="#A0A3BD" stroke-width="2" stroke-linecap="round" stroke-linejoin="round"/><path d="M291.141 47.953l4.74 3.293a.5.5 0 00.786-.411V40.5a4 4 0 00-4-4h-5.334a4 4 0 00-4 4v10.335a.5.5 0 00.786.41l4.74-3.291a2 2 0 012.282 0z" stroke="url(#paint0_linear_46_916)" stroke-width="2" stroke-linecap="round" stroke-linejoin="round"/><defs><linearGradient id="paint0_linear_46_916" x1="283.333" y1="36.5" x2="300.094" y2="43.142" gradientUnits="userSpaceOnUse"><stop stop-color="#624AF2"/><stop offset="1" stop-color="#50DDC3"/></linearGradient><filter id="filter0_d_46_916" x="-20" y="0" width="415" height="110" filterUnits="userSpaceOnUse" color-interpolation-filters="sRGB"><feFlood flood-opacity="0" result="BackgroundImageFix"/><feColorMatrix in="SourceAlpha" values="0 0 0 0 0 0 0 0 0 0 0 0 0 0 0 0 0 0 127 0" result="hardAlpha"/><feOffset/><feGaussianBlur stdDeviation="10"/><feComposite in2="hardAlpha" operator="out"/><feColorMatrix values="0 0 0 0 0 0 0 0 0 0 0 0 0 0 0 0 0 0 0.5 0"/><feBlend in2="BackgroundImageFix" result="effect1_dropShadow_46_916"/><feBlend in="SourceGraphic" in2="effect1_dropShadow_46_916" result="shape"/></filter></defs></svg>