<svg width="374" height="87" viewBox="0 0 374 87" fill="none" xmlns="http://www.w3.org/2000/svg"><g filter="url(#filter0_d_75_2788)"><rect x="20" y="16" width="334" height="47" rx="23.5" fill="#1B203D" shape-rendering="crispEdges"/><rect x="26" y="22" width="161" height="34" rx="17" fill="#1954C5"/><path d="M59.3 33.29h1.26v5.88c0 .25-.004.525-.014.825 0 .29-.005.58-.015.87-.01.29-.025.55-.045.78-.01.22-.02.39-.03.51h.06l5.895-8.865h1.5V44h-1.26v-5.82c0-.27.005-.56.015-.87l.03-.915c.02-.3.035-.565.045-.795.01-.23.02-.4.03-.51h-.06L60.8 44h-1.5V33.29zm12.64 2.67v3.345h4.364V35.96h1.32V44h-1.32v-3.585H71.94V44h-1.32v-8.04h1.32zm13.03-.12c.8.07 1.495.28 2.085.63.6.35 1.065.82 1.395 1.41.33.59.495 1.29.495 2.1s-.16 1.515-.48 2.115c-.32.59-.775 1.06-1.365 1.41-.59.34-1.3.545-2.13.615v3.48h-1.29v-3.48c-.79-.07-1.485-.275-2.085-.615-.6-.35-1.065-.82-1.395-1.41-.33-.6-.495-1.305-.495-2.115 0-.82.16-1.525.48-2.115.32-.6.78-1.07 1.38-1.41.6-.35 1.32-.555 2.16-.615V32.6h1.245v3.24zm-1.245 1.095c-.61.06-1.11.215-1.5.465-.39.25-.68.59-.87 1.02-.18.43-.27.95-.27 1.56 0 .6.09 1.12.27 1.56.19.43.48.775.87 1.035.39.25.89.405 1.5.465v-6.105zm1.245 6.105c.6-.07 1.09-.23 1.47-.48.39-.25.675-.59.855-1.02.19-.44.285-.96.285-1.56 0-.6-.095-1.115-.285-1.545-.19-.43-.48-.77-.87-1.02-.38-.25-.865-.405-1.455-.465v6.09zm13.06-3.075c0 .67-.09 1.265-.27 1.785-.17.51-.42.945-.75 1.305-.32.36-.716.635-1.186.825-.46.18-.975.27-1.545.27-.53 0-1.02-.09-1.47-.27-.45-.19-.84-.465-1.17-.825-.33-.36-.59-.795-.78-1.305-.18-.52-.27-1.115-.27-1.785 0-.89.15-1.64.45-2.25.3-.62.73-1.09 1.29-1.41.56-.33 1.225-.495 1.995-.495.73 0 1.37.165 1.92.495.56.32.995.79 1.305 1.41.32.61.48 1.36.48 2.25zm-6.076 0c0 .63.08 1.18.24 1.65.17.46.43.815.78 1.065.35.25.795.375 1.335.375.54 0 .985-.125 1.335-.375s.605-.605.765-1.065c.17-.47.255-1.02.255-1.65 0-.64-.085-1.185-.255-1.635-.17-.45-.43-.795-.78-1.035-.34-.25-.785-.375-1.335-.375-.82 0-1.415.27-1.785.81-.37.54-.555 1.285-.555 2.235zm11.992-4.155c.99 0 1.785.345 2.385 1.035.61.69.915 1.73.915 3.12 0 .91-.14 1.68-.42 2.31-.27.62-.655 1.09-1.155 1.41-.49.31-1.07.465-1.74.465a3.36 3.36 0 01-1.095-.165c-.32-.11-.595-.25-.825-.42a3.49 3.49 0 01-.57-.585h-.09c.02.17.04.385.06.645.02.26.03.485.03.675v3.3h-1.32V35.96h1.08l.18 1.095h.06c.16-.23.35-.44.57-.63.23-.19.5-.34.81-.45.32-.11.695-.165 1.125-.165zm-.24 1.11c-.54 0-.975.105-1.305.315-.33.2-.57.505-.72.915-.15.41-.23.93-.24 1.56v.255c0 .66.07 1.22.21 1.68.14.46.375.81.705 1.05.34.24.8.36 1.38.36.49 0 .89-.135 1.2-.405.32-.27.555-.635.705-1.095.16-.47.24-1.005.24-1.605 0-.92-.18-1.655-.54-2.205-.35-.55-.895-.825-1.635-.825zm14.269-.96V44h-1.185v-5.13c0-.21.005-.43.015-.66l.06-.675h-.045L114.195 44h-1.11l-2.55-6.465h-.045c.02.22.03.445.03.675.01.23.015.465.015.705V44h-1.185v-8.04h1.755l2.535 6.465 2.58-6.465h1.755zm5.611-.135c.98 0 1.705.215 2.175.645.47.43.705 1.115.705 2.055V44h-.96l-.255-1.14h-.06c-.23.29-.47.535-.72.735-.24.19-.52.33-.84.42-.31.09-.69.135-1.14.135-.48 0-.915-.085-1.305-.255-.38-.17-.68-.43-.9-.78-.22-.36-.33-.81-.33-1.35 0-.8.315-1.415.945-1.845.63-.44 1.6-.68 2.91-.72l1.365-.045v-.48c0-.67-.145-1.135-.435-1.395-.29-.26-.7-.39-1.23-.39-.42 0-.82.065-1.2.195-.38.12-.735.26-1.065.42l-.405-.99c.35-.19.765-.35 1.245-.48.48-.14.98-.21 1.5-.21zm.39 4.29c-1 .04-1.695.2-2.085.48-.38.28-.57.675-.57 1.185 0 .45.135.78.405.99.28.21.635.315 1.065.315.68 0 1.245-.185 1.695-.555.45-.38.675-.96.675-1.74v-.72l-1.185.045zm12.908 6.675h-1.29V44h-6.645v-8.04h1.32v6.93h4.155v-6.93h1.32v6.945h1.14v3.885zm2.788-5.925c0 .09-.005.22-.015.39 0 .16-.005.335-.015.525l-.03.525c-.01.16-.02.29-.03.39l4.305-6.735h1.62V44h-1.23v-4.74-.63l.03-.765c.01-.26.02-.455.03-.585L140.062 44h-1.635v-8.04h1.245v4.905zM148.561 44h-1.53l2.295-3.375c-.31-.08-.61-.205-.9-.375a2.073 2.073 0 01-.705-.735c-.18-.32-.27-.715-.27-1.185 0-.77.26-1.355.78-1.755.52-.41 1.21-.615 2.07-.615h3.6V44h-1.32v-3.195h-1.95L148.561 44zm.165-5.655c0 .46.17.805.51 1.035.35.22.835.33 1.455.33h1.89v-2.655h-2.145c-.61 0-1.05.12-1.32.36-.26.24-.39.55-.39.93z" fill="#FCFCFC"/><path d="M234.192 34.325c-.57 0-1.085.1-1.545.3-.46.19-.85.475-1.17.855-.32.37-.565.825-.735 1.365-.17.53-.255 1.13-.255 1.8 0 .88.135 1.645.405 2.295.28.65.69 1.15 1.23 1.5.55.35 1.235.525 2.055.525.47 0 .915-.04 1.335-.12.42-.08.83-.18 1.23-.3v1.17c-.4.15-.815.26-1.245.33-.42.07-.925.105-1.515.105-1.09 0-2-.225-2.73-.675-.73-.45-1.28-1.09-1.65-1.92-.36-.83-.54-1.805-.54-2.925 0-.81.11-1.55.33-2.22.23-.67.56-1.25.99-1.74.44-.49.98-.865 1.62-1.125.64-.27 1.375-.405 2.205-.405.55 0 1.08.055 1.59.165.51.11.965.265 1.365.465l-.54 1.14c-.33-.15-.7-.285-1.11-.405-.4-.12-.84-.18-1.32-.18zm10.258 2.745h-2.625V44h-1.305v-6.93h-2.595v-1.11h6.525v1.11zm8.427 2.895c0 .67-.09 1.265-.27 1.785-.17.51-.42.945-.75 1.305-.32.36-.715.635-1.185.825-.46.18-.975.27-1.545.27-.53 0-1.02-.09-1.47-.27-.45-.19-.84-.465-1.17-.825-.33-.36-.59-.795-.78-1.305-.18-.52-.27-1.115-.27-1.785 0-.89.15-1.64.45-2.25.3-.62.73-1.09 1.29-1.41.56-.33 1.225-.495 1.995-.495.73 0 1.37.165 1.92.495.56.32.995.79 1.305 1.41.32.61.48 1.36.48 2.25zm-6.075 0c0 .63.08 1.18.24 1.65.17.46.43.815.78 1.065.35.25.795.375 1.335.375.54 0 .985-.125 1.335-.375s.605-.605.765-1.065c.17-.47.255-1.02.255-1.65 0-.64-.085-1.185-.255-1.635-.17-.45-.43-.795-.78-1.035-.34-.25-.785-.375-1.335-.375-.82 0-1.415.27-1.785.81-.37.54-.555 1.285-.555 2.235zm9.412.9c0 .09-.005.22-.015.39 0 .16-.005.335-.015.525l-.03.525c-.01.16-.02.29-.03.39l4.305-6.735h1.62V44h-1.23v-4.74-.63l.03-.765c.01-.26.02-.455.03-.585L256.604 44h-1.635v-8.04h1.245v4.905zm17.019-4.905V44h-1.185v-5.13c0-.21.005-.43.015-.66l.06-.675h-.045L269.453 44h-1.11l-2.55-6.465h-.045c.02.22.03.445.03.675.01.23.015.465.015.705V44h-1.185v-8.04h1.755l2.535 6.465 2.58-6.465h1.755zm9.556 4.005c0 .67-.09 1.265-.27 1.785-.17.51-.42.945-.75 1.305-.32.36-.715.635-1.185.825-.46.18-.975.27-1.545.27-.53 0-1.02-.09-1.47-.27-.45-.19-.84-.465-1.17-.825-.33-.36-.59-.795-.78-1.305-.18-.52-.27-1.115-.27-1.785 0-.89.15-1.64.45-2.25.3-.62.73-1.09 1.29-1.41.56-.33 1.225-.495 1.995-.495.73 0 1.37.165 1.92.495.56.32.995.79 1.305 1.41.32.61.48 1.36.48 2.25zm-6.075 0c0 .63.08 1.18.24 1.65.17.46.43.815.78 1.065.35.25.795.375 1.335.375.54 0 .985-.125 1.335-.375s.605-.605.765-1.065c.17-.47.255-1.02.255-1.65 0-.64-.085-1.185-.255-1.635-.17-.45-.43-.795-.78-1.035-.34-.25-.785-.375-1.335-.375-.82 0-1.415.27-1.785.81-.37.54-.555 1.285-.555 2.235zm11.392 4.185c-.71 0-1.345-.145-1.905-.435-.55-.29-.985-.74-1.305-1.35-.31-.61-.465-1.39-.465-2.34 0-.99.165-1.795.495-2.415.33-.62.775-1.075 1.335-1.365.57-.29 1.215-.435 1.935-.435.41 0 .805.045 1.185.135.38.08.69.18.93.3l-.405 1.095c-.24-.09-.52-.175-.84-.255a3.72 3.72 0 00-.9-.12c-.54 0-.985.115-1.335.345-.35.23-.61.57-.78 1.02-.17.45-.255 1.01-.255 1.68 0 .64.085 1.185.255 1.635.17.45.425.79.765 1.02.34.23.765.345 1.275.345.44 0 .825-.045 1.155-.135.34-.09.65-.2.93-.33v1.17c-.27.14-.57.245-.9.315-.32.08-.71.12-1.17.12zm9.532-7.08h-2.625V44h-1.305v-6.93h-2.595v-1.11h6.525v1.11zm5.289 2.19c.7 0 1.28.085 1.74.255.46.17.805.425 1.035.765.24.33.36.75.36 1.26 0 .5-.115.935-.345 1.305-.22.37-.565.655-1.035.855-.47.2-1.075.3-1.815.3h-3.645v-8.04h1.32v3.3h2.385zm1.815 2.355c0-.49-.175-.82-.525-.99-.34-.18-.82-.27-1.44-.27h-2.235v2.58h2.265c.56 0 1.02-.1 1.38-.3.37-.2.555-.54.555-1.02z" fill="#A0A3BD"/></g><defs><filter id="filter0_d_75_2788" x="0" y="0" width="374" height="87" filterUnits="userSpaceOnUse" color-interpolation-filters="sRGB"><feFlood flood-opacity="0" result="BackgroundImageFix"/><feColorMatrix in="SourceAlpha" values="0 0 0 0 0 0 0 0 0 0 0 0 0 0 0 0 0 0 127 0" result="hardAlpha"/><feOffset dy="4"/><feGaussianBlur stdDeviation="10"/><feComposite in2="hardAlpha" operator="out"/><feColorMatrix values="0 0 0 0 0 0 0 0 0 0 0 0 0 0 0 0 0 0 0.2 0"/><feBlend in2="BackgroundImageFix" result="effect1_dropShadow_75_2788"/><feBlend in="SourceGraphic" in2="effect1_dropShadow_75_2788" result="shape"/></filter></defs></svg>