<svg width="316" height="260" viewBox="0 0 316 260" fill="none" xmlns="http://www.w3.org/2000/svg"><rect width="316" height="260" rx="20" fill="#1B203D"/><path d="M29.862 16.862c1.587 0 2.743.312 3.468.935.725.623 1.088 1.502 1.088 2.635 0 .499-.085.98-.255 1.445a3.14 3.14 0 01-.799 1.224c-.374.363-.873.652-1.496.867-.623.204-1.388.306-2.295.306h-1.394V29h-1.53V16.862h3.213zm-.136 1.309h-1.547v4.794h1.224c.77 0 1.411-.08 1.921-.238.51-.17.89-.436 1.139-.799.25-.363.374-.839.374-1.428 0-.782-.25-1.366-.748-1.751-.499-.385-1.286-.578-2.363-.578zm14.934 6.256c0 .76-.102 1.434-.306 2.023a4.053 4.053 0 01-.85 1.479c-.363.408-.81.72-1.343.935a4.77 4.77 0 01-1.751.306c-.6 0-1.156-.102-1.666-.306a3.765 3.765 0 01-1.326-.935 4.468 4.468 0 01-.884-1.479c-.204-.59-.306-1.264-.306-2.023 0-1.009.17-1.859.51-2.55.34-.703.827-1.235 1.462-1.598.635-.374 1.388-.561 2.261-.561.827 0 1.553.187 2.176.561.635.363 1.128.895 1.479 1.598.363.691.544 1.541.544 2.55zm-6.885 0c0 .714.09 1.337.272 1.87.193.521.487.924.884 1.207.397.283.901.425 1.513.425.612 0 1.116-.142 1.513-.425.397-.283.686-.686.867-1.207.193-.533.289-1.156.289-1.87 0-.725-.096-1.343-.289-1.853-.193-.51-.487-.901-.884-1.173-.385-.283-.89-.425-1.513-.425-.93 0-1.604.306-2.023.918-.42.612-.629 1.456-.629 2.533zm12.91 4.743c-.804 0-1.523-.164-2.158-.493-.623-.329-1.116-.839-1.48-1.53-.35-.691-.526-1.575-.526-2.652 0-1.122.187-2.034.56-2.737.375-.703.88-1.218 1.514-1.547.646-.329 1.377-.493 2.193-.493.465 0 .912.051 1.343.153.43.09.782.204 1.054.34l-.46 1.241a8.85 8.85 0 00-.951-.289 4.214 4.214 0 00-1.02-.136c-.612 0-1.116.13-1.513.391-.397.26-.691.646-.884 1.156-.193.51-.29 1.145-.29 1.904 0 .725.097 1.343.29 1.853.193.51.482.895.867 1.156.385.26.867.391 1.445.391.499 0 .935-.051 1.309-.153a6.374 6.374 0 001.054-.374v1.326a4.012 4.012 0 01-1.02.357c-.363.09-.805.136-1.326.136zm8.169 0c-.805 0-1.524-.164-2.16-.493-.622-.329-1.115-.839-1.478-1.53-.351-.691-.527-1.575-.527-2.652 0-1.122.187-2.034.56-2.737.375-.703.88-1.218 1.514-1.547.646-.329 1.377-.493 2.193-.493.465 0 .912.051 1.343.153.43.09.782.204 1.054.34l-.46 1.241a8.85 8.85 0 00-.951-.289 4.215 4.215 0 00-1.02-.136c-.612 0-1.116.13-1.513.391-.397.26-.691.646-.884 1.156-.193.51-.29 1.145-.29 1.904 0 .725.097 1.343.29 1.853.193.51.482.895.867 1.156.385.26.867.391 1.445.391.499 0 .935-.051 1.309-.153a6.377 6.377 0 001.054-.374v1.326a4.012 4.012 0 01-1.02.357c-.363.09-.805.136-1.326.136zm5.924-3.723c0 .102-.006.25-.017.442 0 .181-.006.38-.017.595l-.034.595c-.011.181-.023.329-.034.442l4.879-7.633h1.836V29h-1.394v-5.372-.714l.034-.867c.011-.295.022-.516.034-.663L65.22 29h-1.853v-9.112h1.41v5.559zM74.852 29h-1.734l2.6-3.825a3.976 3.976 0 01-1.02-.425 2.35 2.35 0 01-.798-.833c-.204-.363-.306-.81-.306-1.343 0-.873.294-1.536.884-1.989.589-.465 1.371-.697 2.346-.697h4.08V29h-1.496v-3.621h-2.21L74.852 29zm.187-6.409c0 .521.192.912.578 1.173.396.25.946.374 1.649.374h2.142v-3.009h-2.431c-.692 0-1.19.136-1.496.408-.295.272-.442.623-.442 1.054zm19.765-3.91L90.418 29h-2.482l4.437-10.047h-5.559v-2.057h7.99v1.785zm1.17 4.216c0 4.069 1.53 6.103 4.59 6.103 1.62 0 2.788-.544 3.502-1.632.714-1.088 1.071-2.578 1.071-4.471 0-1.881-.357-3.366-1.071-4.454-.714-1.088-1.882-1.632-3.502-1.632-3.06 0-4.59 2.029-4.59 6.086zm6.8 0c0 1.235-.153 2.187-.459 2.856-.295.657-.879.986-1.751.986-.884 0-1.48-.329-1.785-.986-.295-.669-.442-1.62-.442-2.856 0-1.224.147-2.165.442-2.822.306-.669.9-1.003 1.785-1.003.872 0 1.456.334 1.751 1.003.306.657.459 1.598.459 2.822zm6.321-6.086c.793 0 1.439.244 1.938.731.51.476.765 1.139.765 1.989 0 .85-.255 1.519-.765 2.006-.499.476-1.145.714-1.938.714-.793 0-1.445-.238-1.955-.714-.499-.487-.748-1.156-.748-2.006 0-.85.249-1.513.748-1.989.51-.487 1.162-.731 1.955-.731zm7.684.153L110.098 29h-2.312l6.681-12.036h2.312zm-8.772 2.567c0 .385.096.697.289.935.193.227.453.34.782.34s.595-.113.799-.34c.204-.238.306-.55.306-.935s-.102-.691-.306-.918a1.002 1.002 0 00-.799-.357c-.329 0-.589.119-.782.357-.193.227-.289.533-.289.918zm7.48 4.182c.793 0 1.439.244 1.938.731.499.476.748 1.139.748 1.989 0 .85-.249 1.519-.748 2.006-.499.476-1.145.714-1.938.714-.793 0-1.445-.238-1.955-.714-.499-.487-.748-1.156-.748-2.006 0-.85.249-1.513.748-1.989.51-.487 1.162-.731 1.955-.731zm-1.088 2.72c0 .397.096.714.289.952.193.227.453.34.782.34s.595-.113.799-.34c.204-.238.306-.555.306-.952 0-.385-.102-.697-.306-.935a1.002 1.002 0 00-.799-.357c-.329 0-.589.119-.782.357-.193.227-.289.538-.289.935z" fill="#FCFCFC"/><path stroke="#4E4B66" stroke-width="8" stroke-linecap="round" d="M29 47h258"/><path d="M28.356 47h163.628" stroke="#6D9FFF" stroke-width="8" stroke-linecap="round"/><path d="M31.732 88.549c-.363.805-.731 1.479-1.105 2.023-.363.533-.793.935-1.292 1.207-.499.26-1.133.391-1.904.391-.317 0-.618-.023-.901-.068a4.51 4.51 0 01-.748-.187v-1.513c.227.102.47.187.731.255.26.057.533.085.816.085.42 0 .776-.057 1.071-.17a2.03 2.03 0 00.799-.595c.238-.272.459-.635.663-1.088l-4.675-9.027h1.683l3.383 6.681c.045.08.09.176.136.289.045.102.09.21.136.323.057.113.102.221.136.323h.068c.034-.08.068-.17.102-.272.045-.113.085-.221.119-.323.045-.113.085-.21.119-.289l2.924-6.732h1.615l-3.876 8.687zm10.71-5.661h1.632l-3.893 4.386L44.397 92h-1.734l-4.114-4.624V92h-1.496v-9.112h1.496v4.42l3.893-4.42zm7.944-.17c1.122 0 2.023.391 2.703 1.173.692.782 1.037 1.96 1.037 3.536 0 1.031-.158 1.904-.476 2.618-.306.703-.742 1.235-1.309 1.598-.555.351-1.212.527-1.972.527-.464 0-.878-.062-1.24-.187a3.449 3.449 0 01-.936-.476 3.96 3.96 0 01-.646-.663h-.102c.023.193.046.436.068.731.023.295.034.55.034.765v3.74h-1.496V82.888h1.224l.204 1.241h.068a3.84 3.84 0 01.646-.714c.261-.215.567-.385.918-.51.363-.125.788-.187 1.275-.187zm-.272 1.258c-.612 0-1.105.119-1.479.357-.374.227-.646.572-.816 1.037-.17.465-.26 1.054-.272 1.768v.289c0 .748.08 1.383.238 1.904.16.521.425.918.8 1.19.385.272.906.408 1.563.408.556 0 1.01-.153 1.36-.459.363-.306.63-.72.8-1.241.18-.533.271-1.139.271-1.819 0-1.043-.204-1.876-.612-2.499-.396-.623-1.014-.935-1.853-.935zm9.847-1.241c1.111 0 1.933.244 2.465.731.533.487.8 1.264.8 2.329V92h-1.089l-.289-1.292h-.068a5.18 5.18 0 01-.816.833c-.272.215-.589.374-.952.476-.35.102-.782.153-1.292.153a3.663 3.663 0 01-1.479-.289 2.277 2.277 0 01-1.02-.884c-.249-.408-.374-.918-.374-1.53 0-.907.357-1.604 1.071-2.091.714-.499 1.814-.77 3.298-.816l1.547-.051v-.544c0-.76-.164-1.286-.493-1.581-.328-.295-.793-.442-1.394-.442-.476 0-.929.074-1.36.221-.43.136-.833.295-1.207.476l-.459-1.122a6.548 6.548 0 011.411-.544 6.04 6.04 0 011.7-.238zm.442 4.862c-1.133.045-1.92.227-2.363.544-.43.317-.646.765-.646 1.343 0 .51.153.884.46 1.122.317.238.72.357 1.206.357.771 0 1.411-.21 1.921-.629.51-.43.765-1.088.765-1.972v-.816l-1.343.051zm7.048.85c0 .102-.006.25-.017.442 0 .181-.006.38-.017.595l-.034.595c-.012.181-.023.329-.034.442l4.879-7.633h1.836V92H72.67v-5.372-.714l.034-.867c.011-.295.022-.516.034-.663L67.893 92H66.04v-9.112h1.41v5.559zm11.009-5.559v3.791h4.947v-3.791h1.496V92h-1.496v-4.063H78.46V92h-1.496v-9.112h1.496zm12.779-.153c1.11 0 1.932.244 2.465.731.532.487.799 1.264.799 2.329V92h-1.088l-.29-1.292h-.067c-.26.329-.533.606-.816.833-.272.215-.59.374-.952.476-.352.102-.782.153-1.292.153a3.663 3.663 0 01-1.48-.289 2.276 2.276 0 01-1.02-.884c-.249-.408-.373-.918-.373-1.53 0-.907.357-1.604 1.07-2.091.715-.499 1.814-.77 3.299-.816l1.547-.051v-.544c0-.76-.165-1.286-.493-1.581-.329-.295-.794-.442-1.394-.442-.476 0-.93.074-1.36.221-.43.136-.833.295-1.207.476l-.46-1.122a6.546 6.546 0 011.412-.544 6.039 6.039 0 011.7-.238zm.442 4.862c-1.134.045-1.921.227-2.363.544-.43.317-.646.765-.646 1.343 0 .51.153.884.459 1.122.317.238.72.357 1.207.357.77 0 1.41-.21 1.92-.629.51-.43.766-1.088.766-1.972v-.816l-1.343.051zm9.02 2.516c3.842-2.663 5.763-4.873 5.763-6.63 0-.533-.13-.952-.391-1.258-.249-.306-.646-.459-1.19-.459-1.122 0-1.717.765-1.785 2.295h-2.329c.068-1.417.499-2.488 1.292-3.213.794-.737 1.797-1.105 3.009-1.105 1.236 0 2.182.323 2.839.969.669.635 1.003 1.485 1.003 2.55 0 .839-.249 1.683-.748 2.533a10.272 10.272 0 01-1.87 2.329 14.986 14.986 0 01-2.397 1.819h5.253v1.955h-8.449v-1.785zm9.799-4.216c0 4.069 1.53 6.103 4.59 6.103 1.621 0 2.788-.544 3.502-1.632.714-1.088 1.071-2.578 1.071-4.471 0-1.881-.357-3.366-1.071-4.454-.714-1.088-1.881-1.632-3.502-1.632-3.06 0-4.59 2.029-4.59 6.086zm6.8 0c0 1.235-.153 2.187-.459 2.856-.294.657-.878.986-1.751.986-.884 0-1.479-.329-1.785-.986-.294-.669-.442-1.62-.442-2.856 0-1.224.148-2.165.442-2.822.306-.669.901-1.003 1.785-1.003.873 0 1.457.334 1.751 1.003.306.657.459 1.598.459 2.822zm6.321-6.086c.794 0 1.44.244 1.938.731.51.476.765 1.139.765 1.989 0 .85-.255 1.519-.765 2.006-.498.476-1.144.714-1.938.714-.793 0-1.445-.238-1.955-.714-.498-.487-.748-1.156-.748-2.006 0-.85.25-1.513.748-1.989.51-.487 1.162-.731 1.955-.731zm7.684.153L124.624 92h-2.312l6.681-12.036h2.312zm-8.772 2.567c0 .385.097.697.289.935.193.227.454.34.782.34.329 0 .595-.113.799-.34.204-.238.306-.55.306-.935s-.102-.691-.306-.918a1.002 1.002 0 00-.799-.357c-.328 0-.589.119-.782.357-.192.227-.289.533-.289.918zm7.48 4.182c.794 0 1.44.244 1.938.731.499.476.748 1.139.748 1.989 0 .85-.249 1.519-.748 2.006-.498.476-1.144.714-1.938.714-.793 0-1.445-.238-1.955-.714-.498-.487-.748-1.156-.748-2.006 0-.85.25-1.513.748-1.989.51-.487 1.162-.731 1.955-.731zm-1.088 2.72c0 .397.097.714.289.952.193.227.454.34.782.34.329 0 .595-.113.799-.34.204-.238.306-.555.306-.952 0-.385-.102-.697-.306-.935a1.002 1.002 0 00-.799-.357c-.328 0-.589.119-.782.357-.192.227-.289.538-.289.935z" fill="#FCFCFC"/><path stroke="#4E4B66" stroke-width="8" stroke-linecap="round" d="M29 110h258"/><path d="M28.356 110h46.998" stroke="#6D9FFF" stroke-width="8" stroke-linecap="round"/><path d="M26.649 155v-12.138h7.208v1.343h-5.678v3.791h1.802c1.213 0 2.153.153 2.822.459.669.295 1.133.703 1.394 1.224.26.51.391 1.099.391 1.768 0 .737-.147 1.371-.442 1.904-.283.533-.748.941-1.394 1.224-.646.283-1.496.425-2.55.425h-3.553zm3.4-1.309c1.088 0 1.853-.181 2.295-.544.442-.374.663-.941.663-1.7 0-.521-.108-.935-.323-1.241-.204-.317-.544-.544-1.02-.68-.465-.136-1.088-.204-1.87-.204h-1.615v4.369h1.87zm10.374-7.973c.782 0 1.45.17 2.006.51.567.34.997.822 1.292 1.445.306.612.459 1.332.459 2.159v.901h-6.239c.023 1.031.283 1.819.782 2.363.51.533 1.218.799 2.125.799.578 0 1.088-.051 1.53-.153a9.19 9.19 0 001.394-.476v1.309a6.712 6.712 0 01-1.377.442c-.453.102-.992.153-1.615.153-.861 0-1.626-.176-2.295-.527a3.744 3.744 0 01-1.547-1.564c-.363-.703-.544-1.558-.544-2.567 0-.997.164-1.853.493-2.567.34-.714.81-1.264 1.411-1.649.612-.385 1.32-.578 2.125-.578zm-.017 1.224c-.714 0-1.28.232-1.7.697-.408.453-.652 1.088-.731 1.904h4.641c0-.521-.08-.975-.238-1.36a1.92 1.92 0 00-.731-.901c-.317-.227-.731-.34-1.241-.34zM53.436 155h-1.513v-7.871h-2.686a43.795 43.795 0 01-.425 3.689c-.17 1.009-.386 1.83-.646 2.465-.261.635-.573 1.099-.935 1.394a1.96 1.96 0 01-1.275.442 2.86 2.86 0 01-.442-.034.934.934 0 01-.34-.085v-1.122c.068.023.141.04.22.051.08.011.16.017.239.017.249 0 .476-.102.68-.306.204-.204.385-.516.544-.935.17-.419.323-.946.459-1.581.136-.646.255-1.405.357-2.278.102-.873.192-1.859.272-2.958h5.49V155zm6.343-9.265c1.11 0 1.932.244 2.465.731.532.487.799 1.264.799 2.329V155h-1.088l-.29-1.292h-.067c-.26.329-.533.606-.816.833-.272.215-.59.374-.952.476-.352.102-.782.153-1.292.153a3.658 3.658 0 01-1.48-.289 2.276 2.276 0 01-1.02-.884c-.248-.408-.373-.918-.373-1.53 0-.907.357-1.604 1.07-2.091.715-.499 1.814-.771 3.299-.816l1.547-.051v-.544c0-.759-.165-1.286-.493-1.581-.329-.295-.794-.442-1.394-.442-.476 0-.93.074-1.36.221-.43.136-.833.295-1.207.476l-.46-1.122a6.548 6.548 0 011.412-.544 6.029 6.029 0 011.7-.238zm.442 4.862c-1.133.045-1.921.227-2.363.544-.43.317-.646.765-.646 1.343 0 .51.153.884.459 1.122.317.238.72.357 1.207.357.77 0 1.41-.21 1.92-.629.51-.431.766-1.088.766-1.972v-.816l-1.343.051zm9.971-4.879c1.122 0 2.023.391 2.703 1.173.691.782 1.037 1.961 1.037 3.536 0 1.031-.159 1.904-.476 2.618-.306.703-.742 1.235-1.309 1.598-.555.351-1.213.527-1.972.527a3.8 3.8 0 01-1.24-.187 3.447 3.447 0 01-.936-.476 3.956 3.956 0 01-.646-.663h-.102c.023.193.045.436.068.731.023.295.034.55.034.765v3.74h-1.496v-13.192h1.224l.204 1.241h.068c.181-.261.397-.499.646-.714.26-.215.567-.385.918-.51.363-.125.788-.187 1.275-.187zm-.272 1.258c-.612 0-1.105.119-1.479.357-.374.227-.646.572-.816 1.037-.17.465-.26 1.054-.272 1.768v.289c0 .748.08 1.383.238 1.904.159.521.425.918.8 1.19.384.272.906.408 1.563.408.555 0 1.009-.153 1.36-.459.363-.306.63-.72.8-1.241.18-.533.271-1.139.271-1.819 0-1.043-.204-1.876-.612-2.499-.397-.623-1.014-.935-1.853-.935zm4.802-1.088h1.598l1.972 5.185c.113.306.215.601.306.884.102.283.193.561.272.833.08.261.142.516.187.765h.068c.068-.283.176-.652.323-1.105.147-.465.3-.929.46-1.394l1.852-5.168h1.615l-3.927 10.37a6.695 6.695 0 01-.765 1.479 2.916 2.916 0 01-1.054.986c-.408.238-.907.357-1.496.357-.272 0-.51-.017-.714-.051a4.752 4.752 0 01-.527-.085v-1.19c.125.023.272.045.442.068.181.023.368.034.561.034.351 0 .652-.068.901-.204.26-.125.482-.312.663-.561.181-.238.334-.521.46-.85l.475-1.207-3.672-9.146zm13.75 9.282c-.806 0-1.525-.164-2.16-.493-.623-.329-1.116-.839-1.479-1.53-.351-.691-.527-1.575-.527-2.652 0-1.122.187-2.034.561-2.737.374-.703.878-1.218 1.513-1.547.646-.329 1.377-.493 2.193-.493.465 0 .912.051 1.343.153.43.091.782.204 1.054.34l-.459 1.241a8.92 8.92 0 00-.952-.289 4.2 4.2 0 00-1.02-.136c-.612 0-1.116.13-1.513.391-.397.261-.691.646-.884 1.156-.193.51-.289 1.145-.289 1.904 0 .725.096 1.343.29 1.853.192.51.48.895.866 1.156.385.261.867.391 1.445.391.499 0 .935-.051 1.31-.153a6.405 6.405 0 001.053-.374v1.326a3.99 3.99 0 01-1.02.357c-.363.091-.805.136-1.326.136zm8.711-5.542c.793 0 1.45.096 1.972.289.521.193.912.482 1.173.867.272.374.408.85.408 1.428 0 .567-.13 1.06-.391 1.479-.249.419-.64.742-1.173.969-.533.227-1.218.34-2.057.34h-4.13v-9.112h1.495v3.74h2.703zm2.057 2.669c0-.555-.198-.929-.595-1.122-.385-.204-.93-.306-1.632-.306H94.48v2.924h2.567c.635 0 1.156-.113 1.564-.34.42-.227.63-.612.63-1.156zm15.977-7.429h-5.695v3.026c.261-.306.618-.55 1.071-.731a3.953 3.953 0 011.53-.289c.827 0 1.513.181 2.057.544.555.351.963.827 1.224 1.428.272.589.408 1.247.408 1.972 0 1.281-.363 2.306-1.088 3.077-.714.771-1.74 1.156-3.077 1.156-.873 0-1.632-.153-2.278-.459-.646-.317-1.15-.754-1.513-1.309-.363-.567-.561-1.224-.595-1.972h2.329c.091.51.3.918.629 1.224.329.295.765.442 1.309.442.657 0 1.145-.198 1.462-.595.329-.408.493-.946.493-1.615 0-.635-.17-1.128-.51-1.479-.34-.351-.822-.527-1.445-.527-.453 0-.839.102-1.156.306-.317.193-.55.453-.697.782h-2.329v-7.089h7.871v2.108zm4.553-2.057c.793 0 1.439.244 1.938.731.51.476.765 1.139.765 1.989 0 .85-.255 1.519-.765 2.006-.499.476-1.145.714-1.938.714-.794 0-1.445-.238-1.955-.714-.499-.487-.748-1.156-.748-2.006 0-.85.249-1.513.748-1.989.51-.487 1.161-.731 1.955-.731zm7.684.153L120.773 155h-2.312l6.681-12.036h2.312zm-8.772 2.567c0 .385.096.697.289.935.192.227.453.34.782.34.328 0 .595-.113.799-.34.204-.238.306-.55.306-.935s-.102-.691-.306-.918a1.003 1.003 0 00-.799-.357c-.329 0-.59.119-.782.357-.193.227-.289.533-.289.918zm7.48 4.182c.793 0 1.439.244 1.938.731.498.476.748 1.139.748 1.989 0 .85-.25 1.519-.748 2.006-.499.476-1.145.714-1.938.714-.794 0-1.445-.238-1.955-.714-.499-.487-.748-1.156-.748-2.006 0-.85.249-1.513.748-1.989.51-.487 1.161-.731 1.955-.731zm-1.088 2.72c0 .397.096.714.289.952.192.227.453.34.782.34.328 0 .595-.113.799-.34.204-.238.306-.555.306-.952 0-.385-.102-.697-.306-.935a1.003 1.003 0 00-.799-.357c-.329 0-.59.119-.782.357-.193.227-.289.538-.289.935z" fill="#FCFCFC"/><path stroke="#4E4B66" stroke-width="8" stroke-linecap="round" d="M29 173h258"/><path d="M28.356 173H44.3" stroke="#6D9FFF" stroke-width="8" stroke-linecap="round"/><path d="M31.732 214.549c-.363.805-.731 1.479-1.105 2.023-.363.533-.793.935-1.292 1.207-.499.261-1.133.391-1.904.391-.317 0-.618-.023-.901-.068a4.51 4.51 0 01-.748-.187v-1.513c.227.102.47.187.731.255.26.057.533.085.816.085.42 0 .776-.057 1.071-.17.306-.125.572-.323.799-.595.238-.272.459-.635.663-1.088l-4.675-9.027h1.683l3.383 6.681c.045.079.09.176.136.289.045.102.09.21.136.323.057.113.102.221.136.323h.068c.034-.079.068-.17.102-.272.045-.113.085-.221.119-.323.045-.113.085-.21.119-.289l2.924-6.732h1.615l-3.876 8.687zm7.718-5.831c.692 0 1.292.096 1.802.289.51.181.907.453 1.19.816.284.351.425.782.425 1.292 0 .555-.153.997-.459 1.326-.306.317-.725.55-1.258.697v.068c.363.102.697.244 1.003.425.306.181.55.419.731.714.193.295.29.674.29 1.139 0 .499-.142.952-.426 1.36-.272.408-.697.731-1.275.969-.566.238-1.297.357-2.193.357-.43 0-.844-.023-1.24-.068a6.614 6.614 0 01-1.055-.204 4.535 4.535 0 01-.816-.323v-1.343a8.89 8.89 0 001.36.493 6.5 6.5 0 001.734.221c.454 0 .862-.051 1.224-.153.374-.102.67-.261.884-.476.216-.227.323-.533.323-.918 0-.351-.096-.635-.289-.85-.192-.227-.481-.397-.867-.51-.374-.113-.855-.17-1.445-.17H37.87v-1.224h.986c.782 0 1.406-.102 1.87-.306.476-.215.714-.578.714-1.088 0-.431-.18-.754-.544-.969-.35-.215-.86-.323-1.53-.323a5.2 5.2 0 00-1.326.153 8.083 8.083 0 00-1.24.425l-.528-1.19a7.073 7.073 0 011.53-.476 8.75 8.75 0 011.65-.153zm5.461 3.808c0-1.326.13-2.454.391-3.383.272-.941.686-1.689 1.241-2.244.567-.567 1.292-.946 2.176-1.139a60.19 60.19 0 012.16-.425c.702-.125 1.36-.238 1.971-.34l.255 1.309c-.294.045-.623.102-.986.17-.362.057-.73.119-1.105.187-.374.057-.736.119-1.088.187-.34.057-.64.113-.9.17a2.908 2.908 0 00-1.004.408c-.294.181-.55.431-.765.748a4.143 4.143 0 00-.493 1.173 7.441 7.441 0 00-.22 1.649h.101c.159-.215.374-.436.646-.663a4.08 4.08 0 011.003-.578 3.583 3.583 0 011.343-.238c.794 0 1.451.176 1.972.527.533.34.93.816 1.19 1.428.272.612.408 1.326.408 2.142 0 1.009-.175 1.853-.527 2.533-.351.68-.838 1.19-1.462 1.53-.623.329-1.348.493-2.176.493a3.97 3.97 0 01-1.7-.357 3.643 3.643 0 01-1.309-1.088c-.362-.476-.64-1.065-.833-1.768-.192-.703-.289-1.513-.289-2.431zm4.25 4.403c.499 0 .93-.102 1.292-.306.374-.204.663-.538.867-1.003.204-.465.306-1.082.306-1.853 0-.929-.175-1.66-.527-2.193-.34-.544-.906-.816-1.7-.816-.498 0-.952.113-1.36.34a3.962 3.962 0 00-1.02.748c-.272.283-.464.521-.578.714 0 .555.04 1.094.12 1.615.079.521.215.992.407 1.411.204.408.482.737.833.986.363.238.816.357 1.36.357zm9.922-8.211c.782 0 1.45.17 2.006.51.567.34.998.822 1.292 1.445.306.612.46 1.332.46 2.159v.901H56.6c.023 1.031.284 1.819.782 2.363.51.533 1.218.799 2.125.799.578 0 1.088-.051 1.53-.153a9.185 9.185 0 001.394-.476v1.309a6.708 6.708 0 01-1.377.442c-.453.102-.992.153-1.615.153-.861 0-1.626-.176-2.295-.527a3.744 3.744 0 01-1.547-1.564c-.362-.703-.544-1.558-.544-2.567 0-.997.164-1.853.493-2.567.34-.714.81-1.264 1.411-1.649.612-.385 1.32-.578 2.125-.578zm-.017 1.224c-.714 0-1.28.232-1.7.697-.408.453-.651 1.088-.73 1.904h4.64c0-.521-.08-.975-.238-1.36a1.92 1.92 0 00-.73-.901c-.318-.227-.732-.34-1.242-.34zm11.483-1.054h1.632l-3.893 4.386L72.504 218H70.77l-4.114-4.624V218H65.16v-9.112h1.496v4.42l3.893-4.42zm5.02 5.559c0 .102-.006.249-.017.442 0 .181-.006.38-.017.595l-.034.595c-.011.181-.023.329-.034.442l4.879-7.633h1.836V218h-1.394v-5.372-.714l.034-.867c.011-.295.023-.516.034-.663L76.01 218h-1.853v-9.112h1.41v5.559zm13.168 3.723c-.805 0-1.525-.164-2.16-.493-.623-.329-1.116-.839-1.478-1.53-.352-.691-.527-1.575-.527-2.652 0-1.122.187-2.034.56-2.737.375-.703.88-1.218 1.514-1.547.646-.329 1.377-.493 2.193-.493.464 0 .912.051 1.343.153.43.091.782.204 1.054.34l-.46 1.241a8.92 8.92 0 00-.951-.289 4.2 4.2 0 00-1.02-.136c-.612 0-1.117.13-1.513.391-.397.261-.692.646-.884 1.156-.193.51-.29 1.145-.29 1.904 0 .725.097 1.343.29 1.853.192.51.481.895.867 1.156.385.261.867.391 1.445.391.498 0 .935-.051 1.309-.153a6.402 6.402 0 001.054-.374v1.326a3.99 3.99 0 01-1.02.357c-.363.091-.805.136-1.326.136zm10.803-8.024h-2.975V218h-1.48v-7.854h-2.94v-1.258h7.395v1.258zm5.246-1.411c1.11 0 1.932.244 2.465.731.532.487.799 1.264.799 2.329V218h-1.088l-.289-1.292h-.068a5.213 5.213 0 01-.816.833c-.272.215-.59.374-.952.476-.352.102-.782.153-1.292.153a3.658 3.658 0 01-1.479-.289 2.273 2.273 0 01-1.02-.884c-.25-.408-.374-.918-.374-1.53 0-.907.357-1.604 1.071-2.091.714-.499 1.813-.771 3.298-.816l1.547-.051v-.544c0-.759-.165-1.286-.493-1.581-.329-.295-.794-.442-1.394-.442-.476 0-.93.074-1.36.221a8.947 8.947 0 00-1.207.476l-.459-1.122a6.534 6.534 0 011.411-.544 6.025 6.025 0 011.7-.238zm.442 4.862c-1.134.045-1.921.227-2.363.544-.431.317-.646.765-.646 1.343 0 .51.153.884.459 1.122.317.238.719.357 1.207.357.77 0 1.411-.21 1.921-.629.51-.431.765-1.088.765-1.972v-.816l-1.343.051zm7.132-4.709v3.791h4.947v-3.791h1.496V218h-1.496v-4.063h-4.947V218h-1.496v-9.112h1.496zm21.467-1.02h-5.695v3.026c.261-.306.618-.55 1.071-.731a3.953 3.953 0 011.53-.289c.828 0 1.513.181 2.057.544.556.351.964.827 1.224 1.428.272.589.408 1.247.408 1.972 0 1.281-.362 2.306-1.088 3.077-.714.771-1.739 1.156-3.077 1.156-.872 0-1.632-.153-2.278-.459-.646-.317-1.15-.754-1.513-1.309-.362-.567-.561-1.224-.595-1.972h2.329c.091.51.301.918.629 1.224.329.295.765.442 1.309.442.658 0 1.145-.198 1.462-.595.329-.408.493-.946.493-1.615 0-.635-.17-1.128-.51-1.479-.34-.351-.821-.527-1.445-.527-.453 0-.838.102-1.156.306a1.729 1.729 0 00-.697.782h-2.329v-7.089h7.871v2.108zm4.553-2.057c.794 0 1.44.244 1.938.731.51.476.765 1.139.765 1.989 0 .85-.255 1.519-.765 2.006-.498.476-1.144.714-1.938.714-.793 0-1.445-.238-1.955-.714-.498-.487-.748-1.156-.748-2.006 0-.85.25-1.513.748-1.989.51-.487 1.162-.731 1.955-.731zm7.684.153L139.383 218h-2.312l6.681-12.036h2.312zm-8.772 2.567c0 .385.097.697.289.935.193.227.454.34.782.34.329 0 .595-.113.799-.34.204-.238.306-.55.306-.935s-.102-.691-.306-.918a1.002 1.002 0 00-.799-.357c-.328 0-.589.119-.782.357-.192.227-.289.533-.289.918zm7.48 4.182c.794 0 1.44.244 1.938.731.499.476.748 1.139.748 1.989 0 .85-.249 1.519-.748 2.006-.498.476-1.144.714-1.938.714-.793 0-1.445-.238-1.955-.714-.498-.487-.748-1.156-.748-2.006 0-.85.25-1.513.748-1.989.51-.487 1.162-.731 1.955-.731zm-1.088 2.72c0 .397.097.714.289.952.193.227.454.34.782.34.329 0 .595-.113.799-.34.204-.238.306-.555.306-.952 0-.385-.102-.697-.306-.935a1.002 1.002 0 00-.799-.357c-.328 0-.589.119-.782.357-.192.227-.289.538-.289.935z" fill="#FCFCFC"/><path stroke="#4E4B66" stroke-width="8" stroke-linecap="round" d="M29 236h258"/><path d="M28.356 236H44.3" stroke="#6D9FFF" stroke-width="8" stroke-linecap="round"/></svg>