<svg width="375" height="33" viewBox="0 0 375 33" fill="none" xmlns="http://www.w3.org/2000/svg"><g clip-path="url(#clip0_75_3854)"><g clip-path="url(#clip1_75_3854)"><path stroke="#4E4B66" d="M-6.001 31.75H471"/><path d="M170.255 29c1.703 0 1.845 2 1.703 3H74c0-2.4 1.136-3 1.704-3h94.551z" fill="url(#paint0_linear_75_3854)"/><path d="M117.5 5.29v1.2h-4.695V16h-1.35V5.29h6.045zm3.692 2.52c.69 0 1.28.15 1.77.45.5.3.88.725 1.14 1.275.27.54.405 1.175.405 1.905v.795h-5.505c.02.91.25 1.605.69 2.085.45.47 1.075.705 1.875.705.51 0 .96-.045 1.35-.135.4-.1.81-.24 1.23-.42v1.155c-.41.18-.815.31-1.215.39-.4.09-.875.135-1.425.135-.76 0-1.435-.155-2.025-.465a3.303 3.303 0 01-1.365-1.38c-.32-.62-.48-1.375-.48-2.265 0-.88.145-1.635.435-2.265.3-.63.715-1.115 1.245-1.455.54-.34 1.165-.51 1.875-.51zm-.015 1.08c-.63 0-1.13.205-1.5.615-.36.4-.575.96-.645 1.68h4.095c0-.46-.07-.86-.21-1.2a1.695 1.695 0 00-.645-.795c-.28-.2-.645-.3-1.095-.3zm12.366 3.075c0 .67-.09 1.265-.27 1.785-.17.51-.42.945-.75 1.305-.32.36-.715.635-1.185.825-.46.18-.975.27-1.545.27-.53 0-1.02-.09-1.47-.27-.45-.19-.84-.465-1.17-.825-.33-.36-.59-.795-.78-1.305-.18-.52-.27-1.115-.27-1.785 0-.89.15-1.64.45-2.25.3-.62.73-1.09 1.29-1.41.56-.33 1.225-.495 1.995-.495.73 0 1.37.165 1.92.495.56.32.995.79 1.305 1.41.32.61.48 1.36.48 2.25zm-6.075 0c0 .63.08 1.18.24 1.65.17.46.43.815.78 1.065.35.25.795.375 1.335.375.54 0 .985-.125 1.335-.375s.605-.605.765-1.065c.17-.47.255-1.02.255-1.65 0-.64-.085-1.185-.255-1.635-.17-.45-.43-.795-.78-1.035-.34-.25-.785-.375-1.335-.375-.82 0-1.415.27-1.785.81-.37.54-.555 1.285-.555 2.235z" fill="#FCFCFC"/><path d="M198.8 10.63c0 .83-.105 1.585-.315 2.265a4.88 4.88 0 01-.945 1.74 3.99 3.99 0 01-1.545 1.125c-.61.26-1.32.39-2.13.39-.84 0-1.57-.13-2.19-.39a4.204 4.204 0 01-1.545-1.125 4.813 4.813 0 01-.915-1.755c-.2-.68-.3-1.435-.3-2.265 0-1.1.18-2.06.54-2.88.36-.82.905-1.46 1.635-1.92.74-.46 1.67-.69 2.79-.69 1.07 0 1.97.23 2.7.69.73.45 1.28 1.09 1.65 1.92.38.82.57 1.785.57 2.895zm-8.46 0c0 .9.125 1.675.375 2.325.25.65.635 1.15 1.155 1.5.53.35 1.195.525 1.995.525.81 0 1.47-.175 1.98-.525.52-.35.905-.85 1.155-1.5s.375-1.425.375-2.325c0-1.35-.28-2.405-.84-3.165-.56-.77-1.445-1.155-2.655-1.155-.81 0-1.48.175-2.01.525-.52.34-.905.835-1.155 1.485-.25.64-.375 1.41-.375 2.31zm16.204-1.56h-2.625V16h-1.305V9.07h-2.595V7.96h6.525v1.11zm3.699-1.26c.61 0 1.14.085 1.59.255.45.16.8.4 1.05.72.25.31.375.69.375 1.14 0 .49-.135.88-.405 1.17-.27.28-.64.485-1.11.615v.06c.32.09.615.215.885.375s.485.37.645.63c.17.26.255.595.255 1.005 0 .44-.125.84-.375 1.2-.24.36-.615.645-1.125.855-.5.21-1.145.315-1.935.315-.38 0-.745-.02-1.095-.06-.34-.04-.65-.1-.93-.18-.27-.08-.51-.175-.72-.285V14.44c.34.16.74.305 1.2.435.47.13.98.195 1.53.195.4 0 .76-.045 1.08-.135.33-.09.59-.23.78-.42.19-.2.285-.47.285-.81 0-.31-.085-.56-.255-.75-.17-.2-.425-.35-.765-.45-.33-.1-.755-.15-1.275-.15h-1.08v-1.08h.87c.69 0 1.24-.09 1.65-.27.42-.19.63-.51.63-.96 0-.38-.16-.665-.48-.855-.31-.19-.76-.285-1.35-.285-.44 0-.83.045-1.17.135-.33.08-.695.205-1.095.375l-.465-1.05c.43-.19.88-.33 1.35-.42a7.72 7.72 0 011.455-.135zm5.238 8.19V7.96h1.32v3.3h2.085c.7 0 1.275.085 1.725.255.45.17.785.425 1.005.765.22.33.33.75.33 1.26 0 .5-.11.935-.33 1.305-.21.37-.545.655-1.005.855-.45.2-1.045.3-1.785.3h-3.345zm3.225-1.065c.57 0 1.035-.095 1.395-.285.36-.2.54-.545.54-1.035 0-.49-.165-.82-.495-.99-.33-.18-.805-.27-1.425-.27h-1.92v2.58h1.905zM223.281 16V7.96h1.32V16h-1.32zm10.34-6.015c0 .5-.15.89-.45 1.17-.3.28-.685.47-1.155.57v.06c.5.07.935.25 1.305.54.37.28.555.72.555 1.32 0 .34-.065.655-.195.945-.12.29-.31.54-.57.75-.26.21-.595.375-1.005.495-.41.11-.905.165-1.485.165h-3.465V7.96h3.45c.57 0 1.08.065 1.53.195.46.12.82.33 1.08.63.27.29.405.69.405 1.2zm-1.11 3.66c0-.46-.175-.79-.525-.99-.35-.2-.865-.3-1.545-.3h-1.965v2.58h1.995c.66 0 1.165-.095 1.515-.285.35-.2.525-.535.525-1.005zm-.225-3.495c0-.38-.14-.655-.42-.825-.27-.18-.715-.27-1.335-.27h-2.055v2.205h1.815c.65 0 1.145-.09 1.485-.27.34-.18.51-.46.51-.84zm3.512 5.85V7.96h1.32v3.3h2.085c.7 0 1.275.085 1.725.255.45.17.785.425 1.005.765.22.33.33.75.33 1.26 0 .5-.11.935-.33 1.305-.21.37-.545.655-1.005.855-.45.2-1.045.3-1.785.3h-3.345zm3.225-1.065c.57 0 1.035-.095 1.395-.285.36-.2.54-.545.54-1.035 0-.49-.165-.82-.495-.99-.33-.18-.805-.27-1.425-.27h-1.92v2.58h1.905zM243.598 16V7.96h1.32V16h-1.32zM301.455 16V5.29h8.04V16h-1.335V6.475h-5.355V16h-1.35zm14.617-8.19c.99 0 1.785.345 2.385 1.035.61.69.915 1.73.915 3.12 0 .91-.14 1.68-.42 2.31-.27.62-.655 1.09-1.155 1.41-.49.31-1.07.465-1.74.465a3.36 3.36 0 01-1.095-.165c-.32-.11-.595-.25-.825-.42a3.49 3.49 0 01-.57-.585h-.09c.02.17.04.385.06.645.02.26.03.485.03.675v3.3h-1.32V7.96h1.08l.18 1.095h.06c.16-.23.35-.44.57-.63.23-.19.5-.34.81-.45.32-.11.695-.165 1.125-.165zm-.24 1.11c-.54 0-.975.105-1.305.315-.33.2-.57.505-.72.915-.15.41-.23.93-.24 1.56v.255c0 .66.07 1.22.21 1.68.14.46.375.81.705 1.05.34.24.8.36 1.38.36.49 0 .89-.135 1.2-.405.32-.27.555-.635.705-1.095.16-.47.24-1.005.24-1.605 0-.92-.18-1.655-.54-2.205-.35-.55-.895-.825-1.635-.825zm6.888 3.945c0 .09-.005.22-.015.39 0 .16-.005.335-.015.525l-.03.525c-.01.16-.02.29-.03.39l4.305-6.735h1.62V16h-1.23v-4.74-.63l.03-.765c.01-.26.02-.455.03-.585L323.11 16h-1.635V7.96h1.245v4.905zm17.019-4.905V16h-1.185v-5.13c0-.21.005-.43.015-.66l.06-.675h-.045L335.959 16h-1.11l-2.55-6.465h-.045c.02.22.03.445.03.675.01.23.015.465.015.705V16h-1.185V7.96h1.755l2.535 6.465 2.58-6.465h1.755zm5.671-.15c.69 0 1.28.15 1.77.45.5.3.88.725 1.14 1.275.27.54.405 1.175.405 1.905v.795h-5.505c.02.91.25 1.605.69 2.085.45.47 1.075.705 1.875.705.51 0 .96-.045 1.35-.135.4-.1.81-.24 1.23-.42v1.155c-.41.18-.815.31-1.215.39-.4.09-.875.135-1.425.135-.76 0-1.435-.155-2.025-.465a3.303 3.303 0 01-1.365-1.38c-.32-.62-.48-1.375-.48-2.265 0-.88.145-1.635.435-2.265.3-.63.715-1.115 1.245-1.455.54-.34 1.165-.51 1.875-.51zm-.015 1.08c-.63 0-1.13.205-1.5.615-.36.4-.575.96-.645 1.68h4.095c0-.46-.07-.86-.21-1.2a1.695 1.695 0 00-.645-.795c-.28-.2-.645-.3-1.095-.3zm9.202-1.08c.99 0 1.785.345 2.385 1.035.61.69.915 1.73.915 3.12 0 .91-.14 1.68-.42 2.31-.27.62-.655 1.09-1.155 1.41-.49.31-1.07.465-1.74.465a3.36 3.36 0 01-1.095-.165c-.32-.11-.595-.25-.825-.42a3.49 3.49 0 01-.57-.585h-.09c.02.17.04.385.06.645.02.26.03.485.03.675v3.3h-1.32V7.96h1.08l.18 1.095h.06c.16-.23.35-.44.57-.63.23-.19.5-.34.81-.45.32-.11.695-.165 1.125-.165zm-.24 1.11c-.54 0-.975.105-1.305.315-.33.2-.57.505-.72.915-.15.41-.23.93-.24 1.56v.255c0 .66.07 1.22.21 1.68.14.46.375.81.705 1.05.34.24.8.36 1.38.36.49 0 .89-.135 1.2-.405.32-.27.555-.635.705-1.095.16-.47.24-1.005.24-1.605 0-.92-.18-1.655-.54-2.205-.35-.55-.895-.825-1.635-.825zm5.644 7.08V7.96h1.32v3.3h2.085c.7 0 1.275.085 1.725.255.45.17.785.425 1.005.765.22.33.33.75.33 1.26 0 .5-.11.935-.33 1.305-.21.37-.545.655-1.005.855-.45.2-1.045.3-1.785.3h-3.345zm3.225-1.065c.57 0 1.035-.095 1.395-.285.36-.2.54-.545.54-1.035 0-.49-.165-.82-.495-.99-.33-.18-.805-.27-1.425-.27h-1.92v2.58h1.905zM367.801 16V7.96h1.32V16h-1.32zm11.405-8.19c.99 0 1.785.345 2.385 1.035.61.69.915 1.73.915 3.12 0 .91-.14 1.68-.42 2.31-.27.62-.655 1.09-1.155 1.41-.49.31-1.07.465-1.74.465a3.36 3.36 0 01-1.095-.165c-.32-.11-.595-.25-.825-.42a3.49 3.49 0 01-.57-.585h-.09c.02.17.04.385.06.645.02.26.03.485.03.675v3.3h-1.32V7.96h1.08l.18 1.095h.06c.16-.23.35-.44.57-.63.23-.19.5-.34.81-.45.32-.11.695-.165 1.125-.165zm-.24 1.11c-.54 0-.975.105-1.305.315-.33.2-.57.505-.72.915-.15.41-.23.93-.24 1.56v.255c0 .66.07 1.22.21 1.68.14.46.375.81.705 1.05.34.24.8.36 1.38.36.49 0 .89-.135 1.2-.405.32-.27.555-.635.705-1.095.16-.47.24-1.005.24-1.605 0-.92-.18-1.655-.54-2.205-.35-.55-.895-.825-1.635-.825zm8.749-1.11c.69 0 1.28.15 1.77.45.5.3.88.725 1.14 1.275.27.54.405 1.175.405 1.905v.795h-5.505c.02.91.25 1.605.69 2.085.45.47 1.075.705 1.875.705.51 0 .96-.045 1.35-.135.4-.1.81-.24 1.23-.42v1.155c-.41.18-.815.31-1.215.39-.4.09-.875.135-1.425.135-.76 0-1.435-.155-2.025-.465a3.303 3.303 0 01-1.365-1.38c-.32-.62-.48-1.375-.48-2.265 0-.88.145-1.635.435-2.265.3-.63.715-1.115 1.245-1.455.54-.34 1.165-.51 1.875-.51zm-.015 1.08c-.63 0-1.13.205-1.5.615-.36.4-.575.96-.645 1.68h4.095c0-.46-.07-.86-.21-1.2a1.695 1.695 0 00-.645-.795c-.28-.2-.645-.3-1.095-.3zm10.132-.93h1.44l-3.435 3.87 3.72 4.17h-1.53l-3.63-4.08V16h-1.32V7.96h1.32v3.9l3.435-3.9zm9.304 8.04h-1.335V9.055h-2.37a38.64 38.64 0 01-.375 3.255c-.15.89-.34 1.615-.57 2.175-.23.56-.505.97-.825 1.23-.32.26-.695.39-1.125.39-.13 0-.26-.01-.39-.03a.824.824 0 01-.3-.075v-.99c.06.02.125.035.195.045.07.01.14.015.21.015.22 0 .42-.09.6-.27.18-.18.34-.455.48-.825.15-.37.285-.835.405-1.395.12-.57.225-1.24.315-2.01.09-.77.17-1.64.24-2.61h4.845V16zm5.597-8.175c.98 0 1.705.215 2.175.645.47.43.705 1.115.705 2.055V16h-.96l-.255-1.14h-.06c-.23.29-.47.535-.72.735-.24.19-.52.33-.84.42-.31.09-.69.135-1.14.135-.48 0-.915-.085-1.305-.255-.38-.17-.68-.43-.9-.78-.22-.36-.33-.81-.33-1.35 0-.8.315-1.415.945-1.845.63-.44 1.6-.68 2.91-.72l1.365-.045v-.48c0-.67-.145-1.135-.435-1.395-.29-.26-.7-.39-1.23-.39-.42 0-.82.065-1.2.195-.38.12-.735.26-1.065.42l-.405-.99c.35-.19.765-.35 1.245-.48.48-.14.98-.21 1.5-.21zm.39 4.29c-1 .04-1.695.2-2.085.48-.38.28-.57.675-.57 1.185 0 .45.135.78.405.99.28.21.635.315 1.065.315.68 0 1.245-.185 1.695-.555.45-.38.675-.96.675-1.74v-.72l-1.185.045zm13.598-4.155V16h-1.185v-5.13c0-.21.005-.43.015-.66l.06-.675h-.045L422.941 16h-1.11l-2.55-6.465h-.045c.02.22.03.445.03.675.01.23.015.465.015.705V16h-1.185V7.96h1.755l2.535 6.465 2.58-6.465h1.755zm2.567 8.04V7.96h1.32v3.3h2.085c.7 0 1.275.085 1.725.255.45.17.785.425 1.005.765.22.33.33.75.33 1.26 0 .5-.11.935-.33 1.305-.21.37-.545.655-1.005.855-.45.2-1.045.3-1.785.3h-3.345zm3.225-1.065c.57 0 1.035-.095 1.395-.285.36-.2.54-.545.54-1.035 0-.49-.165-.82-.495-.99-.33-.18-.805-.27-1.425-.27h-1.92v2.58h1.905zM437.088 16V7.96h1.32V16h-1.32zM29.455 16V5.29h8.04V16H36.16V6.475h-5.355V16h-1.35zm17.782-4.035c0 .67-.09 1.265-.27 1.785-.17.51-.42.945-.75 1.305-.32.36-.715.635-1.185.825-.46.18-.975.27-1.545.27-.53 0-1.02-.09-1.47-.27-.45-.19-.84-.465-1.17-.825-.33-.36-.59-.795-.78-1.305-.18-.52-.27-1.115-.27-1.785 0-.89.15-1.64.45-2.25.3-.62.73-1.09 1.29-1.41.56-.33 1.225-.495 1.995-.495.73 0 1.37.165 1.92.495.56.32.995.79 1.305 1.41.32.61.48 1.36.48 2.25zm-6.075 0c0 .63.08 1.18.24 1.65.17.46.43.815.78 1.065.35.25.795.375 1.335.375.54 0 .985-.125 1.335-.375s.605-.605.765-1.065c.17-.47.255-1.02.255-1.65 0-.64-.085-1.185-.255-1.635-.17-.45-.43-.795-.78-1.035-.34-.25-.785-.375-1.335-.375-.82 0-1.415.27-1.785.81-.37.54-.555 1.285-.555 2.235zM55.449 16h-1.335V9.055h-2.37a38.64 38.64 0 01-.375 3.255c-.15.89-.34 1.615-.57 2.175-.23.56-.505.97-.825 1.23-.32.26-.695.39-1.125.39-.13 0-.26-.01-.39-.03a.824.824 0 01-.3-.075v-.99c.06.02.125.035.195.045.07.01.14.015.21.015.22 0 .42-.09.6-.27.18-.18.34-.455.48-.825.15-.37.285-.835.405-1.395.12-.57.225-1.24.315-2.01.09-.77.17-1.64.24-2.61h4.845V16z" fill="#A0A3BD"/></g></g><defs><clipPath id="clip0_75_3854"><path fill="#fff" d="M0 0h375v33H0z"/></clipPath><clipPath id="clip1_75_3854"><path fill="#fff" transform="translate(-6)" d="M0 0h387v33H0z"/></clipPath><linearGradient id="paint0_linear_75_3854" x1="74" y1="29" x2="74.644" y2="38.557" gradientUnits="userSpaceOnUse"><stop stop-color="#624AF2"/><stop offset="1" stop-color="#50DDC3"/></linearGradient></defs></svg>