<svg width="323" height="52" viewBox="0 0 323 52" fill="none" xmlns="http://www.w3.org/2000/svg"><path d="M33.798 28.39v-1.98h3.81V37h-2.22v-8.61h-1.59zm13.05-.33h-5.024v2.67c.23-.27.545-.485.945-.645.41-.17.86-.255 1.35-.255.73 0 1.335.16 1.815.48.49.31.85.73 1.08 1.26.24.52.36 1.1.36 1.74 0 1.13-.32 2.035-.96 2.715-.63.68-1.535 1.02-2.715 1.02-.77 0-1.44-.135-2.01-.405a3.281 3.281 0 01-1.335-1.155c-.32-.5-.495-1.08-.525-1.74h2.055c.08.45.265.81.555 1.08.29.26.675.39 1.155.39.58 0 1.01-.175 1.29-.525.29-.36.435-.835.435-1.425 0-.56-.15-.995-.45-1.305-.3-.31-.725-.465-1.275-.465-.4 0-.74.09-1.02.27-.28.17-.485.4-.615.69h-2.055V26.2h6.945v1.86zm2.233.765c0-.51.14-.985.42-1.425.29-.44.715-.795 1.275-1.065.57-.27 1.255-.405 2.055-.405.8 0 1.48.135 2.04.405.57.27.995.625 1.275 1.065.29.44.435.915.435 1.425 0 .58-.14 1.075-.42 1.485-.28.4-.7.7-1.26.9.63.24 1.11.59 1.44 1.05.34.45.51 1 .51 1.65 0 .7-.175 1.305-.525 1.815-.35.5-.83.88-1.44 1.14-.6.26-1.285.39-2.055.39-.77 0-1.46-.13-2.07-.39-.6-.26-1.075-.64-1.425-1.14-.34-.51-.51-1.115-.51-1.815 0-.65.165-1.2.495-1.65.34-.46.825-.81 1.455-1.05-.56-.2-.985-.505-1.275-.915-.28-.41-.42-.9-.42-1.47zm2.085.345c0 .48.15.85.45 1.11.3.26.705.39 1.215.39.52 0 .93-.13 1.23-.39.3-.26.45-.63.45-1.11 0-.48-.155-.85-.465-1.11-.3-.27-.705-.405-1.215-.405-.5 0-.905.135-1.215.405-.3.26-.45.63-.45 1.11zm-.285 4.62c0 .53.175.95.525 1.26.35.31.825.465 1.425.465.6 0 1.075-.155 1.425-.465.36-.31.54-.73.54-1.26 0-.54-.185-.95-.555-1.23-.36-.29-.83-.435-1.41-.435-.57 0-1.04.145-1.41.435-.36.28-.54.69-.54 1.23zm11.8-2.175L67.168 37h-2.565l-3.915-4.845V37h-2.115V26.41h2.115v4.755l3.93-4.755h2.55l-4.485 5.205z" fill="#fff"/><path d="M21.36 10.346c0 .72-.091 1.374-.273 1.963a4.23 4.23 0 01-.819 1.508c-.355.425-.802.75-1.339.975-.529.225-1.144.338-1.846.338-.728 0-1.36-.113-1.898-.338a3.643 3.643 0 01-1.339-.975 4.171 4.171 0 01-.793-1.521 6.944 6.944 0 01-.26-1.963c0-.953.156-1.785.468-2.496a3.65 3.65 0 011.417-1.664c.641-.399 1.447-.598 2.418-.598.927 0 1.707.2 2.34.598.633.39 1.11.945 1.43 1.664.33.71.494 1.547.494 2.509zm-7.332 0c0 .78.108 1.452.325 2.015.217.563.55.997 1.001 1.3.46.303 1.036.455 1.729.455.702 0 1.274-.152 1.716-.455.45-.303.784-.737 1.001-1.3.217-.563.325-1.235.325-2.015 0-1.17-.243-2.084-.728-2.743-.485-.667-1.252-1.001-2.301-1.001-.702 0-1.283.152-1.742.455-.45.295-.784.724-1.001 1.287-.217.555-.325 1.222-.325 2.002zm10.884 1.092l-2.405-3.406h1.3l1.794 2.626 1.781-2.626h1.287l-2.405 3.406L28.8 15h-1.3l-1.898-2.782L23.677 15H22.39l2.522-3.562zm10.833-1.651c0 .433-.13.771-.39 1.014s-.594.407-1 .494v.052c.432.06.81.217 1.13.468.32.243.481.624.481 1.144 0 .295-.056.568-.169.819a1.63 1.63 0 01-.494.65 2.48 2.48 0 01-.87.429c-.356.095-.785.143-1.288.143h-3.003V8.032h2.99c.494 0 .936.056 1.326.169.399.104.71.286.936.546.234.251.351.598.351 1.04zm-.962 3.172c0-.399-.152-.685-.455-.858-.303-.173-.75-.26-1.339-.26h-1.703v2.236h1.73c.571 0 1.009-.082 1.312-.247.303-.173.455-.464.455-.871zm-.195-3.029c0-.33-.121-.568-.364-.715-.234-.156-.62-.234-1.157-.234h-1.78v1.911h1.572c.563 0 .992-.078 1.287-.234a.771.771 0 00.442-.728zm5.683-2.015c.85 0 1.478.186 1.885.559.408.373.611.966.611 1.781V15h-.832l-.22-.988h-.053c-.199.251-.407.464-.624.637-.208.165-.45.286-.728.364a3.589 3.589 0 01-.988.117c-.416 0-.793-.074-1.13-.221a1.741 1.741 0 01-.78-.676c-.191-.312-.287-.702-.287-1.17 0-.693.273-1.226.82-1.599.545-.381 1.386-.59 2.521-.624l1.183-.039v-.416c0-.58-.125-.984-.377-1.209-.251-.225-.606-.338-1.066-.338-.364 0-.71.056-1.04.169-.329.104-.637.225-.923.364l-.35-.858a5.008 5.008 0 011.078-.416 4.62 4.62 0 011.3-.182zm.338 3.718c-.866.035-1.469.173-1.807.416-.329.243-.494.585-.494 1.027 0 .39.117.676.351.858.243.182.55.273.923.273.59 0 1.08-.16 1.47-.481.39-.33.584-.832.584-1.508v-.624l-1.027.039zm9.12-2.639h-2.274V15h-1.131V8.994h-2.25v-.962h5.656v.962zM51.102 15V8.032h1.144v2.86h1.807c.607 0 1.105.074 1.495.221.39.147.68.368.871.663.19.286.286.65.286 1.092 0 .433-.095.81-.286 1.131-.182.32-.472.568-.87.741-.39.173-.907.26-1.548.26h-2.899zm2.795-.923c.494 0 .897-.082 1.21-.247.311-.173.467-.472.467-.897 0-.425-.143-.71-.429-.858-.286-.156-.698-.234-1.235-.234h-1.664v2.236h1.651zm3.965.923V8.032h1.144V15h-1.144z" fill="#A0A3BD"/><path fill-rule="evenodd" clip-rule="evenodd" d="M7.177 14.65C2.79 18.32 0 23.835 0 30v2c0 11.046 8.954 20 20 20h61c11.046 0 20-8.954 20-20v-2c0-11.046-8.954-20-20-20H65.73c-.068.338-.15.672-.243 1H81c10.493 0 19 8.507 19 19v2c0 10.493-8.507 19-19 19H20C9.507 51 1 42.493 1 32v-2c0-5.829 2.625-11.044 6.756-14.53a13.503 13.503 0 01-.579-.82z" fill="#4E4B66"/><path d="M159.914 33.85c.16 1.04.7 1.56 1.62 1.56.7 0 1.205-.305 1.515-.915.31-.62.445-1.585.405-2.895-.16.48-.475.865-.945 1.155-.46.28-1 .42-1.62.42-1.02 0-1.825-.305-2.415-.915-.58-.62-.87-1.495-.87-2.625 0-.69.14-1.305.42-1.845.28-.55.695-.98 1.245-1.29.56-.31 1.235-.465 2.025-.465 1.54 0 2.6.47 3.18 1.41.58.93.87 2.225.87 3.885 0 1.89-.295 3.325-.885 4.305-.58.98-1.555 1.47-2.925 1.47-.73 0-1.36-.145-1.89-.435a3.18 3.18 0 01-1.215-1.17c-.28-.5-.445-1.05-.495-1.65h1.98zm3.36-4.065c0-.56-.165-1.02-.495-1.38-.32-.37-.795-.555-1.425-.555-.54 0-.97.16-1.29.48-.32.32-.48.765-.48 1.335 0 .6.16 1.065.48 1.395.33.32.77.48 1.32.48.51 0 .95-.15 1.32-.45.38-.31.57-.745.57-1.305z" fill="#fff"/><path d="M125.132 6.797V9.93h3.484v.91h-3.484v3.198h3.874V15h-5.057V5.835h5.057v.962h-3.874zM135.387 15l-2.392-3.744h-1.287V15h-1.183V5.835h3.016c1.04 0 1.82.251 2.34.754.52.494.78 1.153.78 1.976 0 .745-.208 1.348-.624 1.807-.416.45-1.018.732-1.807.845L136.726 15h-1.339zm-3.679-4.602h1.729c1.344 0 2.015-.59 2.015-1.768 0-1.179-.671-1.768-2.015-1.768h-1.729v3.536zM142.966 15l-2.392-3.744h-1.287V15h-1.183V5.835h3.016c1.04 0 1.82.251 2.34.754.52.494.78 1.153.78 1.976 0 .745-.208 1.348-.624 1.807-.416.45-1.018.732-1.807.845L144.305 15h-1.339zm-3.679-4.602h1.729c1.344 0 2.015-.59 2.015-1.768 0-1.179-.671-1.768-2.015-1.768h-1.729v3.536z" fill="#A0A3BD"/><path fill-rule="evenodd" clip-rule="evenodd" d="M118.092 14.722C113.754 18.391 111 23.874 111 30v2c0 11.046 8.954 20 20 20h61c11.046 0 20-8.954 20-20v-2c0-11.046-8.954-20-20-20h-39.231c-.063.338-.139.671-.227 1H192c10.493 0 19 8.507 19 19v2c0 10.493-8.507 19-19 19h-61c-10.493 0-19-8.507-19-19v-2a18.959 18.959 0 016.662-14.45c-.2-.268-.39-.544-.57-.828z" fill="#4E4B66"/><path d="M266.504 27.895L262.634 37h-2.19l3.915-8.865h-4.905V26.32h7.05v1.575zm1.032 3.72c0 3.59 1.35 5.385 4.05 5.385 1.43 0 2.46-.48 3.09-1.44.63-.96.945-2.275.945-3.945 0-1.66-.315-2.97-.945-3.93-.63-.96-1.66-1.44-3.09-1.44-2.7 0-4.05 1.79-4.05 5.37zm6 0c0 1.09-.135 1.93-.405 2.52-.26.58-.775.87-1.545.87-.78 0-1.305-.29-1.575-.87-.26-.59-.39-1.43-.39-2.52 0-1.08.13-1.91.39-2.49.27-.59.795-.885 1.575-.885.77 0 1.285.295 1.545.885.27.58.405 1.41.405 2.49zm3.478 0c0 3.59 1.35 5.385 4.05 5.385 1.43 0 2.46-.48 3.09-1.44.63-.96.945-2.275.945-3.945 0-1.66-.315-2.97-.945-3.93-.63-.96-1.66-1.44-3.09-1.44-2.7 0-4.05 1.79-4.05 5.37zm6 0c0 1.09-.135 1.93-.405 2.52-.26.58-.775.87-1.545.87-.78 0-1.305-.29-1.575-.87-.26-.59-.39-1.43-.39-2.52 0-1.08.13-1.91.39-2.49.27-.59.795-.885 1.575-.885.77 0 1.285.295 1.545.885.27.58.405 1.41.405 2.49z" fill="#fff"/><path d="M239.005 5.744c1.118 0 2.041.277 2.769.832.728.546 1.231 1.296 1.508 2.249h-1.248a3.019 3.019 0 00-1.131-1.443c-.52-.364-1.157-.546-1.911-.546-.598 0-1.135.147-1.612.442-.468.286-.841.702-1.118 1.248-.269.537-.403 1.17-.403 1.898 0 .72.134 1.348.403 1.885.277.537.65.953 1.118 1.248a3.073 3.073 0 001.612.429c.754 0 1.391-.178 1.911-.533.52-.364.897-.85 1.131-1.456h1.248c-.277.953-.78 1.707-1.508 2.262-.728.546-1.651.819-2.769.819-.858 0-1.616-.195-2.275-.585a4.179 4.179 0 01-1.547-1.651c-.364-.71-.546-1.517-.546-2.418 0-.91.182-1.72.546-2.431a4.067 4.067 0 011.547-1.651c.659-.399 1.417-.598 2.275-.598zm7.042 5.564V15h-1.183V5.835h2.912c1.049 0 1.833.247 2.353.741.52.485.78 1.153.78 2.002 0 .858-.269 1.53-.806 2.015-.537.477-1.313.715-2.327.715h-1.729zm1.625-.988c.719 0 1.235-.152 1.547-.455.321-.303.481-.732.481-1.287 0-.572-.16-1.005-.481-1.3-.312-.303-.828-.455-1.547-.455h-1.625v3.497h1.625zm13.797-4.329V15h-1.183V7.811L257.413 15h-1.053l-2.886-7.163V15h-1.183V5.991h1.417l3.198 7.566 3.146-7.566h1.417z" fill="#A0A3BD"/><path fill-rule="evenodd" clip-rule="evenodd" d="M229.092 14.722C224.754 18.391 222 23.874 222 30v2c0 11.046 8.954 20 20 20h61c11.046 0 20-8.954 20-20v-2c0-11.046-8.954-20-20-20h-34.231c-.063.338-.139.671-.227 1H303c10.493 0 19 8.507 19 19v2c0 10.493-8.507 19-19 19h-61c-10.493 0-19-8.507-19-19v-2a18.959 18.959 0 016.662-14.45c-.2-.268-.39-.544-.57-.828z" fill="#4E4B66"/></svg>