<svg width="97" height="23" viewBox="0 0 97 23" fill="none" xmlns="http://www.w3.org/2000/svg"><path d="M11.07 11.63c0 .83-.105 1.585-.315 2.265-.2.67-.51 1.25-.93 1.74-.41.49-.94.865-1.59 1.125-.64.26-1.395.39-2.265.39-.87 0-1.63-.13-2.28-.39a4.29 4.29 0 01-1.59-1.125 4.995 4.995 0 01-.93-1.755c-.2-.68-.3-1.435-.3-2.265 0-1.11.18-2.075.54-2.895.37-.82.93-1.455 1.68-1.905.76-.46 1.725-.69 2.895-.69 1.16 0 2.115.23 2.865.69.75.45 1.305 1.09 1.665 1.92.37.82.555 1.785.555 2.895zm-7.815 0c0 .75.095 1.395.285 1.935.19.54.485.955.885 1.245.4.29.915.435 1.545.435.65 0 1.17-.145 1.56-.435.4-.29.69-.705.87-1.245.19-.54.285-1.185.285-1.935 0-1.13-.21-2.015-.63-2.655-.42-.64-1.11-.96-2.07-.96-.64 0-1.16.145-1.56.435-.4.29-.695.705-.885 1.245-.19.54-.285 1.185-.285 1.935zm16.634-1.14h-2.686V17H14.97v-6.51h-2.685V8.81h7.604v1.68zm8.804 2.4c0 .68-.095 1.285-.285 1.815-.18.53-.445.98-.795 1.35-.34.36-.755.635-1.245.825-.49.18-1.045.27-1.665.27-.57 0-1.1-.09-1.59-.27a3.522 3.522 0 01-1.245-.825c-.35-.37-.625-.82-.825-1.35-.19-.53-.285-1.135-.285-1.815 0-.91.16-1.675.48-2.295.32-.63.78-1.11 1.38-1.44.6-.33 1.31-.495 2.13-.495.77 0 1.45.165 2.04.495.59.33 1.055.81 1.395 1.44.34.62.51 1.385.51 2.295zm-5.655 0c0 .54.055.995.165 1.365.12.36.305.635.555.825.25.18.575.27.975.27s.72-.09.96-.27c.25-.19.43-.465.54-.825.12-.37.18-.825.18-1.365s-.06-.99-.18-1.35c-.11-.36-.29-.63-.54-.81-.25-.18-.575-.27-.975-.27-.59 0-1.02.205-1.29.615-.26.4-.39 1.005-.39 1.815zm7.007-.795c0-1.21.15-2.235.45-3.075.3-.85.775-1.525 1.425-2.025.65-.51 1.5-.855 2.55-1.035a28.16 28.16 0 011.605-.225c.55-.07 1.115-.14 1.695-.21l.255 1.95c-.25.03-.525.065-.825.105-.3.03-.605.065-.915.105-.3.03-.59.065-.87.105-.28.04-.535.075-.765.105-.37.06-.695.145-.975.255-.28.1-.515.245-.705.435-.19.19-.34.45-.45.78-.1.32-.165.735-.195 1.245h.105c.12-.19.285-.38.495-.57a2.89 2.89 0 011.905-.675c.65 0 1.215.135 1.695.405s.85.67 1.11 1.2c.26.53.39 1.19.39 1.98 0 .93-.17 1.705-.51 2.325-.34.62-.81 1.09-1.41 1.41-.6.31-1.295.465-2.085.465-.6 0-1.145-.11-1.635-.33-.49-.22-.91-.545-1.26-.975-.35-.43-.62-.96-.81-1.59-.18-.63-.27-1.35-.27-2.16zm4.11 3.24c.32 0 .595-.07.825-.21.24-.14.425-.37.555-.69.14-.32.21-.75.21-1.29 0-.65-.11-1.165-.33-1.545-.21-.39-.58-.585-1.11-.585-.32 0-.62.08-.9.24-.27.15-.5.325-.69.525-.19.19-.32.355-.39.495 0 .39.03.77.09 1.14.06.36.16.685.3.975.14.29.325.52.555.69.24.17.535.255.885.255zM44.431 8.66c.92 0 1.665.36 2.235 1.08.57.71.855 1.76.855 3.15 0 .93-.135 1.715-.405 2.355-.27.63-.64 1.105-1.11 1.425-.47.32-1.015.48-1.635.48-.39 0-.73-.05-1.02-.15-.28-.1-.52-.23-.72-.39-.2-.16-.375-.33-.525-.51h-.12a6.026 6.026 0 01.12 1.2v3.3h-2.235V8.81h1.815l.315 1.065h.105c.15-.22.33-.42.54-.6.21-.19.46-.34.75-.45.3-.11.645-.165 1.035-.165zm-.72 1.785c-.39 0-.7.08-.93.24-.23.16-.4.405-.51.735-.1.32-.155.725-.165 1.215v.24c0 .53.05.98.15 1.35.1.36.27.635.51.825.24.19.565.285.975.285.34 0 .62-.095.84-.285.22-.19.385-.47.495-.84.11-.37.165-.82.165-1.35 0-.8-.125-1.4-.375-1.8-.24-.41-.625-.615-1.155-.615zm9.012-1.8c1.1 0 1.94.24 2.52.72.59.47.885 1.195.885 2.175V17h-1.56l-.435-1.11h-.06c-.23.29-.47.53-.72.72-.24.19-.52.325-.84.405-.31.09-.695.135-1.155.135-.48 0-.915-.09-1.305-.27-.38-.19-.68-.475-.9-.855-.22-.39-.33-.88-.33-1.47 0-.87.305-1.51.915-1.92.61-.42 1.525-.65 2.745-.69l1.425-.045v-.36c0-.43-.115-.745-.345-.945-.22-.2-.53-.3-.93-.3s-.79.06-1.17.18c-.38.11-.76.25-1.14.42l-.735-1.515c.44-.23.925-.41 1.455-.54.54-.13 1.1-.195 1.68-.195zm.315 4.59c-.72.02-1.22.15-1.5.39-.28.24-.42.555-.42.945 0 .34.1.585.3.735.2.14.46.21.78.21.48 0 .885-.14 1.215-.42.33-.29.495-.695.495-1.215v-.675l-.87.03zM70.056 8.81l-3.015 3.93 3.3 4.26h-2.385l-3.12-4.155V17h-2.085v-4.155L59.631 17h-2.385l3.3-4.26-3.015-3.93h2.31l2.91 3.975V8.81h2.085v3.975l2.91-3.975h2.31zm4.816-.165c1.1 0 1.94.24 2.52.72.59.47.885 1.195.885 2.175V17h-1.56l-.435-1.11h-.06c-.23.29-.47.53-.72.72-.24.19-.52.325-.84.405-.31.09-.695.135-1.155.135-.48 0-.915-.09-1.305-.27-.38-.19-.68-.475-.9-.855-.22-.39-.33-.88-.33-1.47 0-.87.305-1.51.915-1.92.61-.42 1.525-.65 2.745-.69l1.425-.045v-.36c0-.43-.115-.745-.345-.945-.22-.2-.53-.3-.93-.3s-.79.06-1.17.18c-.38.11-.76.25-1.14.42l-.735-1.515c.44-.23.925-.41 1.455-.54.54-.13 1.1-.195 1.68-.195zm.315 4.59c-.72.02-1.22.15-1.5.39-.28.24-.42.555-.42.945 0 .34.1.585.3.735.2.14.46.21.78.21.48 0 .885-.14 1.215-.42.33-.29.495-.695.495-1.215v-.675l-.87.03zm12.157-2.745H84.66V17h-2.236v-6.51H79.74V8.81h7.605v1.68zm5.322 1.485c.84 0 1.535.09 2.085.27.55.17.954.435 1.215.795.27.36.405.81.405 1.35 0 .53-.125.99-.375 1.38-.24.39-.625.695-1.155.915-.53.21-1.225.315-2.085.315h-3.9V8.81h2.235v3.165h1.575zm1.47 2.445c0-.32-.13-.55-.39-.69-.25-.14-.625-.21-1.125-.21h-1.53v1.935h1.56c.44 0 .794-.08 1.065-.24.28-.16.42-.425.42-.795z" fill="#A0A3BD"/></svg>