<svg width="333" height="524" viewBox="0 0 333 524" fill="none" xmlns="http://www.w3.org/2000/svg"><rect width="333" height="48" rx="20" fill="#1B203D"/><path d="M29.68 18.79c.95 0 1.745.09 2.385.27.65.17 1.135.455 1.455.855.33.39.495.92.495 1.59 0 .4-.065.765-.195 1.095-.13.33-.32.6-.57.81-.24.21-.535.345-.885.405v.075c.36.07.685.195.975.375.29.18.52.44.69.78.17.34.255.79.255 1.35 0 .65-.16 1.21-.48 1.68-.31.46-.76.815-1.35 1.065-.59.24-1.29.36-2.1.36H26.35V18.79h3.33zm.255 4.245c.66 0 1.115-.105 1.365-.315.26-.21.39-.515.39-.915 0-.41-.15-.705-.45-.885-.3-.18-.775-.27-1.425-.27h-1.2v2.385h1.32zm-1.32 1.8v2.79H30.1c.68 0 1.155-.13 1.425-.39.27-.27.405-.625.405-1.065 0-.27-.06-.505-.18-.705-.11-.2-.305-.355-.585-.465-.28-.11-.66-.165-1.14-.165h-1.41zm10.963 4.815c-.81 0-1.5-.145-2.07-.435-.57-.3-1.005-.76-1.305-1.38-.3-.62-.45-1.415-.45-2.385 0-1 .17-1.815.51-2.445.34-.63.81-1.095 1.41-1.395.61-.3 1.31-.45 2.1-.45.56 0 1.045.055 1.455.165.42.11.785.24 1.095.39l-.66 1.725c-.35-.14-.68-.255-.99-.345-.3-.09-.6-.135-.9-.135-.39 0-.715.095-.975.285-.26.18-.455.455-.585.825-.12.36-.18.815-.18 1.365 0 .54.065.99.195 1.35.14.35.34.615.6.795.26.17.575.255.945.255.47 0 .885-.06 1.245-.18.36-.13.71-.305 1.05-.525v1.905c-.34.22-.7.375-1.08.465-.37.1-.84.15-1.41.15zm7.75-8.49c.76 0 1.41.145 1.95.435.55.29.975.71 1.275 1.26.3.55.45 1.225.45 2.025v1.08h-5.28c.02.63.205 1.125.555 1.485.36.36.855.54 1.485.54.53 0 1.01-.05 1.44-.15.43-.11.875-.275 1.335-.495v1.725c-.4.2-.825.345-1.275.435-.44.1-.975.15-1.605.15-.82 0-1.545-.15-2.175-.45a3.445 3.445 0 01-1.485-1.395c-.36-.62-.54-1.4-.54-2.34 0-.96.16-1.755.48-2.385.33-.64.785-1.12 1.365-1.44.58-.32 1.255-.48 2.025-.48zm.015 1.59c-.43 0-.79.14-1.08.42-.28.28-.445.715-.495 1.305h3.135c0-.33-.06-.625-.18-.885a1.34 1.34 0 00-.51-.615c-.23-.15-.52-.225-.87-.225zm14.11-1.44h2.46l-3.24 3.93 3.524 4.26h-2.535l-3.345-4.155V29.5h-2.235v-8.19h2.235v3.975l3.135-3.975zm7.276-.165c1.1 0 1.94.24 2.52.72.59.47.885 1.195.885 2.175v5.46h-1.56l-.435-1.11h-.06c-.23.29-.47.53-.72.72-.24.19-.52.325-.84.405-.31.09-.695.135-1.155.135-.48 0-.915-.09-1.305-.27-.38-.19-.68-.475-.9-.855-.22-.39-.33-.88-.33-1.47 0-.87.305-1.51.915-1.92.61-.42 1.525-.65 2.745-.69l1.425-.045v-.36c0-.43-.115-.745-.345-.945-.22-.2-.53-.3-.93-.3s-.79.06-1.17.18c-.38.11-.76.25-1.14.42l-.735-1.515c.44-.23.925-.41 1.455-.54.54-.13 1.1-.195 1.68-.195zm.315 4.59c-.72.02-1.22.15-1.5.39-.28.24-.42.555-.42.945 0 .34.1.585.3.735.2.14.46.21.78.21.48 0 .885-.14 1.215-.42.33-.29.495-.695.495-1.215v-.675l-.87.03zm12.158-2.745h-2.685v6.51h-2.235v-6.51h-2.685v-1.68h7.605v1.68zm4.74-1.83c.76 0 1.41.145 1.95.435.55.29.975.71 1.275 1.26.3.55.45 1.225.45 2.025v1.08h-5.28c.02.63.204 1.125.554 1.485.36.36.855.54 1.485.54.53 0 1.01-.05 1.44-.15.43-.11.876-.275 1.335-.495v1.725c-.4.2-.825.345-1.275.435-.44.1-.975.15-1.605.15-.82 0-1.544-.15-2.174-.45a3.445 3.445 0 01-1.485-1.395c-.36-.62-.54-1.4-.54-2.34 0-.96.16-1.755.48-2.385.33-.64.784-1.12 1.364-1.44.58-.32 1.255-.48 2.026-.48zm.015 1.59c-.43 0-.79.14-1.08.42-.28.28-.445.715-.495 1.305h3.134c0-.33-.06-.625-.18-.885a1.34 1.34 0 00-.51-.615c-.23-.15-.52-.225-.87-.225zm11.127-1.44v1.68h-3.42v6.51h-2.235v-8.19h5.655zm8.801 4.08c0 .68-.095 1.285-.285 1.815-.18.53-.445.98-.795 1.35-.34.36-.755.635-1.245.825-.49.18-1.045.27-1.665.27-.57 0-1.1-.09-1.59-.27a3.524 3.524 0 01-1.245-.825c-.35-.37-.625-.82-.825-1.35-.19-.53-.285-1.135-.285-1.815 0-.91.16-1.675.48-2.295.32-.63.78-1.11 1.38-1.44.6-.33 1.31-.495 2.13-.495.77 0 1.45.165 2.04.495.59.33 1.055.81 1.395 1.44.34.62.51 1.385.51 2.295zm-5.655 0c0 .54.055.995.165 1.365.12.36.305.635.555.825.25.18.575.27.975.27s.72-.09.96-.27c.25-.19.43-.465.54-.825.12-.37.18-.825.18-1.365s-.06-.99-.18-1.35c-.11-.36-.29-.63-.54-.81-.25-.18-.575-.27-.975-.27-.59 0-1.02.205-1.29.615-.26.4-.39 1.005-.39 1.815zm12.063-4.23c.92 0 1.665.36 2.235 1.08.57.71.854 1.76.854 3.15 0 .93-.134 1.715-.404 2.355-.27.63-.64 1.105-1.11 1.425-.47.32-1.015.48-1.635.48-.39 0-.73-.05-1.02-.15-.28-.1-.52-.23-.72-.39-.2-.16-.375-.33-.525-.51h-.12a6.026 6.026 0 01.12 1.2v3.3h-2.235V21.31h1.815l.315 1.065h.105c.15-.22.33-.42.54-.6.21-.19.46-.34.75-.45.3-.11.645-.165 1.035-.165zm-.72 1.785c-.39 0-.7.08-.93.24-.23.16-.4.405-.51.735-.1.32-.155.725-.165 1.215v.24c0 .53.05.98.15 1.35.1.36.27.635.51.825.24.19.565.285.975.285.34 0 .62-.095.84-.285.22-.19.385-.47.495-.84.11-.37.165-.82.165-1.35 0-.8-.125-1.4-.375-1.8-.24-.41-.625-.615-1.155-.615zm7.812 1.605c0 .17-.01.38-.03.63-.01.25-.025.505-.045.765-.01.26-.025.49-.045.69-.02.2-.035.34-.045.42L123 21.31h2.685v8.19h-2.16v-3.27c0-.27.01-.565.03-.885.02-.33.04-.635.06-.915.03-.29.05-.51.06-.66l-3.765 5.73h-2.685v-8.19h2.16v3.24zm10.796 0c0 .17-.01.38-.03.63-.01.25-.025.505-.045.765-.01.26-.025.49-.045.69-.02.2-.035.34-.045.42l3.78-5.745h2.685v8.19h-2.16v-3.27c0-.27.01-.565.03-.885.02-.33.04-.635.06-.915.03-.29.05-.51.06-.66l-3.765 5.73h-2.685v-8.19h2.16v3.24z" fill="#FCFCFC"/><circle cx="299" cy="24" r="14" fill="#1954C5"/><path d="M304.25 20.5l-7.219 7.875-3.281-3.58" stroke="#EFF0F7" stroke-width="2" stroke-linecap="round" stroke-linejoin="round"/><rect y="68" width="333" height="48" rx="20" fill="#1B203D"/><path d="M34.735 86.79v8.82h1.425v5.01h-2.19V97.5h-6.705v3.12h-2.19v-5.01h.825c.28-.56.55-1.15.81-1.77.26-.62.5-1.285.72-1.995.23-.71.435-1.48.615-2.31.18-.84.33-1.755.45-2.745h6.24zm-4.44 1.89c-.07.52-.17 1.075-.3 1.665-.13.58-.285 1.175-.465 1.785-.17.61-.36 1.21-.57 1.8-.21.59-.435 1.15-.675 1.68h4.185v-6.93h-2.175zm9.49 3.87c0 .17-.01.38-.03.63-.01.25-.025.505-.045.765-.01.26-.025.49-.045.69-.02.2-.035.34-.045.42l3.78-5.745h2.685v8.19h-2.16v-3.27c0-.27.01-.565.03-.885.02-.33.04-.635.06-.915.03-.29.05-.51.06-.66L40.31 97.5h-2.685v-8.19h2.16v3.24zm11.621-3.39c.59 0 1.14.08 1.65.24.52.15.935.385 1.245.705.32.32.48.73.48 1.23 0 .49-.15.88-.45 1.17-.29.29-.685.5-1.185.63v.075c.35.08.665.195.945.345.28.14.5.335.66.585.17.24.255.565.255.975 0 .45-.145.87-.435 1.26-.28.38-.72.69-1.32.93-.59.23-1.35.345-2.28.345-.44 0-.855-.02-1.245-.06a9.58 9.58 0 01-1.065-.165c-.32-.08-.6-.175-.84-.285v-1.845c.34.16.755.305 1.245.435.5.13 1.03.195 1.59.195.41 0 .775-.03 1.095-.09.33-.06.59-.16.78-.3.2-.14.3-.325.3-.555 0-.22-.085-.4-.255-.54-.17-.15-.425-.26-.765-.33s-.775-.105-1.305-.105h-.87V92.46h.825c.74 0 1.31-.06 1.71-.18.41-.12.615-.345.615-.675 0-.26-.13-.455-.39-.585-.26-.14-.685-.21-1.275-.21-.39 0-.815.045-1.275.135-.46.09-.895.22-1.305.39l-.66-1.56c.47-.18.985-.325 1.545-.435.56-.12 1.22-.18 1.98-.18zm8.695-.015c1.1 0 1.94.24 2.52.72.59.47.885 1.195.885 2.175v5.46h-1.56l-.435-1.11h-.06c-.23.29-.47.53-.72.72-.24.19-.52.325-.84.405-.31.09-.695.135-1.155.135-.48 0-.915-.09-1.305-.27-.38-.19-.68-.475-.9-.855-.22-.39-.33-.88-.33-1.47 0-.87.305-1.51.915-1.92.61-.42 1.525-.65 2.745-.69l1.425-.045v-.36c0-.43-.115-.745-.345-.945-.22-.2-.53-.3-.93-.3s-.79.06-1.17.18c-.38.11-.76.25-1.14.42l-.735-1.515c.44-.23.925-.41 1.455-.54.54-.13 1.1-.195 1.68-.195zm.315 4.59c-.72.02-1.22.15-1.5.39-.28.24-.42.555-.42.945 0 .34.1.585.3.735.2.14.46.21.78.21.48 0 .885-.14 1.215-.42.33-.29.495-.695.495-1.215v-.675l-.87.03zm13.223-7.95c-.05.52-.195.98-.435 1.38-.24.39-.615.695-1.125.915-.51.22-1.195.33-2.055.33-.88 0-1.57-.105-2.07-.315-.49-.22-.84-.525-1.05-.915-.21-.39-.335-.855-.375-1.395h1.995c.05.55.19.915.42 1.095.23.18.605.27 1.125.27.43 0 .78-.095 1.05-.285.28-.2.445-.56.495-1.08h2.025zm-5.685 6.765c0 .17-.01.38-.03.63-.01.25-.025.505-.045.765-.01.26-.025.49-.045.69-.02.2-.035.34-.045.42l3.78-5.745h2.685v8.19h-2.16v-3.27c0-.27.01-.565.03-.885.02-.33.04-.635.06-.915.03-.29.05-.51.06-.66l-3.765 5.73h-2.685v-8.19h2.16v3.24zm10.87-3.24v3.15h3.12v-3.15h2.236v8.19h-2.235v-3.375h-3.12V97.5H76.59v-8.19h2.235z" fill="#FCFCFC"/><circle cx="299" cy="92" r="14" fill="#262B4B"/><rect y="136" width="333" height="48" rx="20" fill="#1B203D"/><path d="M28.075 154.91v10.59H25.96v-10.59h2.115zm9.113 0v1.68h-2.925v8.91h-2.115v-8.91h-2.91v-1.68h7.95zm2.5 9.225c.24.54.36 1.085.36 1.635 0 .62-.165 1.13-.495 1.53-.32.4-.82.6-1.5.6v-.81c.26 0 .45-.065.57-.195.12-.12.18-.34.18-.66v-.15h-.96v-1.95h1.845zm9.654 1.365h-2.265v-8.82h-2.91v-1.89h8.085v1.89h-2.91v8.82zm6.702-8.34c.76 0 1.41.145 1.95.435.55.29.975.71 1.275 1.26.3.55.45 1.225.45 2.025v1.08h-5.28c.02.63.205 1.125.555 1.485.36.36.855.54 1.485.54.53 0 1.01-.05 1.44-.15.43-.11.875-.275 1.335-.495v1.725c-.4.2-.825.345-1.275.435-.44.1-.975.15-1.605.15-.82 0-1.545-.15-2.175-.45a3.445 3.445 0 01-1.485-1.395c-.36-.62-.54-1.4-.54-2.34 0-.96.16-1.755.48-2.385.33-.64.785-1.12 1.365-1.44.58-.32 1.255-.48 2.025-.48zm.015 1.59c-.43 0-.79.14-1.08.42-.28.28-.445.715-.495 1.305h3.135c0-.33-.06-.625-.18-.885a1.34 1.34 0 00-.51-.615c-.23-.15-.52-.225-.87-.225zm7.152 2.565l-2.64-4.005h2.535l1.59 2.61 1.605-2.61h2.535l-2.67 4.005 2.79 4.185h-2.535l-1.725-2.805-1.725 2.805h-2.535l2.775-4.185zm9.227-4.005v3.15h3.12v-3.15h2.235v8.19h-2.235v-3.375h-3.12v3.375h-2.235v-8.19h2.235zm15.137 4.08c0 .68-.095 1.285-.285 1.815-.18.53-.445.98-.795 1.35-.34.36-.755.635-1.245.825-.49.18-1.045.27-1.665.27-.57 0-1.1-.09-1.59-.27a3.522 3.522 0 01-1.245-.825c-.35-.37-.625-.82-.825-1.35-.19-.53-.285-1.135-.285-1.815 0-.91.16-1.675.48-2.295.32-.63.78-1.11 1.38-1.44.6-.33 1.31-.495 2.13-.495.77 0 1.45.165 2.04.495.59.33 1.055.81 1.395 1.44.34.62.51 1.385.51 2.295zm-5.655 0c0 .54.055.995.165 1.365.12.36.305.635.555.825.25.18.575.27.975.27s.72-.09.96-.27c.25-.19.43-.465.54-.825.12-.37.18-.825.18-1.365s-.06-.99-.18-1.35c-.11-.36-.29-.63-.54-.81-.25-.18-.575-.27-.975-.27-.59 0-1.02.205-1.29.615-.26.4-.39 1.005-.39 1.815zm14.837 4.11h-2.235v-6.51h-2.055c-.1 1.2-.225 2.225-.375 3.075-.14.84-.32 1.525-.54 2.055-.21.53-.48.92-.81 1.17-.33.24-.735.36-1.215.36-.26 0-.495-.02-.705-.06-.21-.04-.4-.1-.57-.18v-1.785c.11.04.225.075.345.105.12.03.245.045.375.045.14 0 .27-.055.39-.165.13-.11.25-.305.36-.585.12-.28.23-.665.33-1.155s.19-1.105.27-1.845c.09-.75.17-1.655.24-2.715h6.195v8.19zm9.773-4.11c0 .68-.095 1.285-.285 1.815-.18.53-.445.98-.795 1.35-.34.36-.755.635-1.245.825-.49.18-1.045.27-1.665.27-.57 0-1.1-.09-1.59-.27a3.523 3.523 0 01-1.245-.825c-.35-.37-.625-.82-.825-1.35-.19-.53-.285-1.135-.285-1.815 0-.91.16-1.675.48-2.295.32-.63.78-1.11 1.38-1.44.6-.33 1.31-.495 2.13-.495.77 0 1.45.165 2.04.495.59.33 1.055.81 1.395 1.44.34.62.51 1.385.51 2.295zm-5.655 0c0 .54.055.995.165 1.365.12.36.305.635.555.825.25.18.575.27.975.27s.72-.09.96-.27c.25-.19.43-.465.54-.825.12-.37.18-.825.18-1.365s-.06-.99-.18-1.35c-.11-.36-.29-.63-.54-.81-.25-.18-.575-.27-.975-.27-.59 0-1.02.205-1.29.615-.26.4-.39 1.005-.39 1.815zm13.157-4.08v1.68h-3.42v6.51h-2.235v-8.19h5.655zm3.668 3.24c0 .17-.01.38-.03.63-.01.25-.025.505-.045.765-.01.26-.025.49-.045.69-.02.2-.035.34-.045.42l3.78-5.745H124v8.19h-2.16v-3.27c0-.27.01-.565.03-.885.02-.33.04-.635.06-.915.03-.29.05-.51.06-.66l-3.765 5.73h-2.685v-8.19h2.16v3.24zm10.796 0c0 .17-.01.38-.03.63-.01.25-.025.505-.045.765-.01.26-.025.49-.045.69-.02.2-.035.34-.045.42l3.78-5.745h2.685v8.19h-2.16v-3.27c0-.27.01-.565.03-.885.02-.33.04-.635.06-.915.03-.29.05-.51.06-.66l-3.765 5.73h-2.685v-8.19h2.16v3.24z" fill="#FCFCFC"/><circle cx="299" cy="160" r="14" fill="#262B4B"/><rect y="204" width="333" height="48" rx="20" fill="#1B203D"/><path d="M26.35 233.5v-10.71h6.765v1.875h-4.5v2.235h.9c1.01 0 1.835.14 2.475.42.65.28 1.13.665 1.44 1.155.31.49.465 1.05.465 1.68 0 .7-.155 1.3-.465 1.8-.31.5-.79.885-1.44 1.155-.65.26-1.49.39-2.52.39h-3.12zm3.03-1.86c.69 0 1.23-.11 1.62-.33.4-.22.6-.605.6-1.155 0-.38-.1-.67-.3-.87-.19-.2-.465-.335-.825-.405-.35-.08-.775-.12-1.275-.12h-.585v2.88h.765zm8.515-3.09c0 .17-.01.38-.03.63-.01.25-.025.505-.045.765-.01.26-.025.49-.045.69-.02.2-.035.34-.045.42l3.78-5.745h2.685v8.19h-2.16v-3.27c0-.27.01-.565.03-.885.02-.33.04-.635.06-.915.03-.29.05-.51.06-.66l-3.765 5.73h-2.685v-8.19h2.16v3.24zm11.621-3.39c.59 0 1.14.08 1.65.24.52.15.935.385 1.245.705.32.32.48.73.48 1.23 0 .49-.15.88-.45 1.17-.29.29-.685.5-1.185.63v.075c.35.08.665.195.945.345.28.14.5.335.66.585.17.24.255.565.255.975 0 .45-.145.87-.435 1.26-.28.38-.72.69-1.32.93-.59.23-1.35.345-2.28.345-.44 0-.855-.02-1.245-.06a9.58 9.58 0 01-1.065-.165c-.32-.08-.6-.175-.84-.285v-1.845c.34.16.755.305 1.245.435.5.13 1.03.195 1.59.195.41 0 .775-.03 1.095-.09.33-.06.59-.16.78-.3.2-.14.3-.325.3-.555 0-.22-.085-.4-.255-.54-.17-.15-.425-.26-.765-.33s-.775-.105-1.305-.105h-.87v-1.545h.825c.74 0 1.31-.06 1.71-.18.41-.12.615-.345.615-.675 0-.26-.13-.455-.39-.585-.26-.14-.685-.21-1.275-.21-.39 0-.815.045-1.275.135-.46.09-.895.22-1.305.39l-.66-1.56c.47-.18.985-.325 1.545-.435.56-.12 1.22-.18 1.98-.18zm7.57.15v3.15h3.12v-3.15h2.236v8.19h-2.235v-3.375h-3.12v3.375h-2.235v-8.19h2.235zm11.072-.15c.76 0 1.41.145 1.95.435.55.29.975.71 1.275 1.26.3.55.45 1.225.45 2.025v1.08h-5.28c.02.63.205 1.125.555 1.485.36.36.855.54 1.485.54.53 0 1.01-.05 1.44-.15.43-.11.875-.275 1.335-.495v1.725c-.4.2-.825.345-1.275.435-.44.1-.975.15-1.605.15-.82 0-1.545-.15-2.175-.45a3.445 3.445 0 01-1.485-1.395c-.36-.62-.54-1.4-.54-2.34 0-.96.16-1.755.48-2.385.33-.64.785-1.12 1.365-1.44.58-.32 1.255-.48 2.025-.48zm.015 1.59c-.43 0-.79.14-1.08.42-.28.28-.445.715-.495 1.305h3.135c0-.33-.06-.625-.18-.885a1.34 1.34 0 00-.51-.615c-.23-.15-.52-.225-.87-.225zm8.803 6.9c-.81 0-1.5-.145-2.07-.435-.57-.3-1.005-.76-1.305-1.38-.3-.62-.45-1.415-.45-2.385 0-1 .17-1.815.51-2.445.34-.63.81-1.095 1.41-1.395.61-.3 1.31-.45 2.1-.45.56 0 1.045.055 1.455.165.42.11.785.24 1.095.39l-.66 1.725c-.35-.14-.68-.255-.99-.345-.3-.09-.6-.135-.9-.135-.39 0-.715.095-.975.285-.26.18-.455.455-.585.825-.12.36-.18.815-.18 1.365 0 .54.065.99.195 1.35.14.35.34.615.6.795.26.17.575.255.945.255.47 0 .885-.06 1.245-.18.36-.13.71-.305 1.05-.525v1.905c-.34.22-.7.375-1.08.465-.37.1-.84.15-1.41.15z" fill="#FCFCFC"/><circle cx="299" cy="228" r="14" fill="#1954C5"/><path d="M304.25 224.5l-7.219 7.875-3.281-3.58" stroke="#EFF0F7" stroke-width="2" stroke-linecap="round" stroke-linejoin="round"/><rect y="272" width="333" height="48" rx="20" fill="#1B203D"/><path d="M30.88 301.5l-2.58-8.4h-.06l.045.9c.02.4.04.83.06 1.29.02.45.03.86.03 1.23v4.98H26.35v-10.71h3.09l2.535 8.19h.045l2.685-8.19h3.09v10.71H35.68v-5.07c0-.34.005-.73.015-1.17.02-.44.035-.855.045-1.245l.045-.9h-.06l-2.76 8.385H30.88zm12.8-8.355c1.1 0 1.94.24 2.52.72.59.47.885 1.195.885 2.175v5.46h-1.56l-.435-1.11h-.06c-.23.29-.47.53-.72.72-.24.19-.52.325-.84.405-.31.09-.695.135-1.155.135-.48 0-.915-.09-1.305-.27-.38-.19-.68-.475-.9-.855-.22-.39-.33-.88-.33-1.47 0-.87.305-1.51.915-1.92.61-.42 1.525-.65 2.745-.69l1.425-.045v-.36c0-.43-.115-.745-.345-.945-.22-.2-.53-.3-.93-.3s-.79.06-1.17.18c-.38.11-.76.25-1.14.42l-.735-1.515c.44-.23.925-.41 1.455-.54.54-.13 1.1-.195 1.68-.195zm.315 4.59c-.72.02-1.22.15-1.5.39-.28.24-.42.555-.42.945 0 .34.1.585.3.735.2.14.46.21.78.21.48 0 .885-.14 1.215-.42.33-.29.495-.695.495-1.215v-.675l-.87.03zm9.938-4.575c.92 0 1.665.36 2.235 1.08.57.71.855 1.76.855 3.15 0 .93-.135 1.715-.405 2.355-.27.63-.64 1.105-1.11 1.425-.47.32-1.015.48-1.635.48-.39 0-.73-.05-1.02-.15-.28-.1-.52-.23-.72-.39-.2-.16-.375-.33-.525-.51h-.12a6.026 6.026 0 01.12 1.2v3.3h-2.235v-11.79h1.815l.315 1.065h.105c.15-.22.33-.42.54-.6.21-.19.46-.34.75-.45.3-.11.645-.165 1.035-.165zm-.72 1.785c-.39 0-.7.08-.93.24-.23.16-.4.405-.51.735-.1.32-.155.725-.165 1.215v.24c0 .53.05.98.15 1.35.1.36.27.635.51.825.24.19.565.285.975.285.34 0 .62-.095.84-.285.22-.19.385-.47.495-.84.11-.37.165-.82.165-1.35 0-.8-.125-1.4-.375-1.8-.24-.41-.625-.615-1.155-.615zm11.022-1.635h2.46l-3.24 3.93 3.525 4.26h-2.535l-3.345-4.155v4.155h-2.235v-8.19H61.1v3.975l3.135-3.975zm7-.15c.76 0 1.41.145 1.95.435.55.29.974.71 1.275 1.26.3.55.45 1.225.45 2.025v1.08h-5.28c.02.63.205 1.125.555 1.485.36.36.855.54 1.484.54.53 0 1.01-.05 1.44-.15.43-.11.876-.275 1.336-.495v1.725c-.4.2-.825.345-1.275.435-.44.1-.975.15-1.606.15-.82 0-1.544-.15-2.174-.45a3.445 3.445 0 01-1.486-1.395c-.36-.62-.54-1.4-.54-2.34 0-.96.16-1.755.48-2.385.33-.64.785-1.12 1.366-1.44.58-.32 1.255-.48 2.025-.48zm.014 1.59c-.43 0-.79.14-1.08.42-.28.28-.444.715-.495 1.305h3.135c0-.33-.06-.625-.18-.885a1.34 1.34 0 00-.51-.615c-.23-.15-.52-.225-.87-.225zm12.253.24h-2.685v6.51h-2.235v-6.51h-2.685v-1.68h7.605v1.68zm3.67 1.56c0 .17-.01.38-.03.63-.01.25-.024.505-.044.765-.01.26-.025.49-.045.69-.02.2-.035.34-.045.42l3.78-5.745h2.685v8.19h-2.16v-3.27c0-.27.01-.565.03-.885.02-.33.04-.635.06-.915.03-.29.05-.51.06-.66l-3.765 5.73h-2.685v-8.19h2.16v3.24zm10.872-3.24v3.15h3.12v-3.15h2.235v8.19h-2.235v-3.375h-3.12v3.375h-2.235v-8.19h2.235zm13.351 0v1.68h-3.42v6.51h-2.235v-8.19h5.655z" fill="#FCFCFC"/><circle cx="299" cy="296" r="14" fill="#262B4B"/><rect y="340" width="333" height="48" rx="20" fill="#1B203D"/><path d="M26.35 369.5v-10.71h8.475v10.71H32.56v-8.82h-3.945v8.82H26.35zm9.827-8.19h2.445l1.545 4.605c.05.15.09.3.12.45.04.15.07.305.09.465.03.16.05.33.06.51h.045c.03-.26.07-.505.12-.735.06-.24.125-.47.195-.69l1.515-4.605h2.4l-3.465 9.24a4.41 4.41 0 01-.825 1.41c-.33.38-.715.665-1.155.855-.44.19-.92.285-1.44.285-.25 0-.47-.015-.66-.045-.18-.02-.34-.045-.48-.075v-1.77c.11.02.24.04.39.06.16.02.325.03.495.03.31 0 .575-.065.795-.195.23-.13.42-.31.57-.54.15-.22.27-.46.36-.72l.135-.405-3.255-8.13zm16.49 1.68h-2.685v6.51h-2.235v-6.51h-2.685v-1.68h7.605v1.68zm4.74-1.83c.76 0 1.41.145 1.95.435.55.29.974.71 1.274 1.26.3.55.45 1.225.45 2.025v1.08h-5.28c.02.63.205 1.125.555 1.485.36.36.855.54 1.485.54.53 0 1.01-.05 1.44-.15.43-.11.875-.275 1.335-.495v1.725c-.4.2-.825.345-1.275.435-.44.1-.975.15-1.605.15-.82 0-1.545-.15-2.175-.45a3.445 3.445 0 01-1.485-1.395c-.36-.62-.54-1.4-.54-2.34 0-.96.16-1.755.48-2.385.33-.64.785-1.12 1.365-1.44.58-.32 1.255-.48 2.025-.48zm.014 1.59c-.43 0-.79.14-1.08.42-.28.28-.445.715-.495 1.305h3.135c0-.33-.06-.625-.18-.885a1.34 1.34 0 00-.51-.615c-.23-.15-.52-.225-.87-.225zm17.668-1.44v8.19H62.894v-8.19h2.235v6.51h2.745v-6.51h2.235v6.51h2.745v-6.51h2.235zm5.71-.15c.76 0 1.41.145 1.95.435.55.29.976.71 1.276 1.26.3.55.45 1.225.45 2.025v1.08h-5.28c.02.63.205 1.125.555 1.485.36.36.855.54 1.485.54.53 0 1.01-.05 1.44-.15.43-.11.875-.275 1.335-.495v1.725c-.4.2-.825.345-1.275.435-.44.1-.975.15-1.605.15-.82 0-1.545-.15-2.175-.45a3.445 3.445 0 01-1.485-1.395c-.36-.62-.54-1.4-.54-2.34 0-.96.16-1.755.48-2.385.33-.64.785-1.12 1.365-1.44.58-.32 1.255-.48 2.025-.48zm.016 1.59c-.43 0-.79.14-1.08.42-.28.28-.445.715-.495 1.305h3.135c0-.33-.06-.625-.18-.885a1.34 1.34 0 00-.51-.615c-.23-.15-.52-.225-.87-.225zm8.802 6.9c-.81 0-1.5-.145-2.07-.435-.57-.3-1.005-.76-1.305-1.38-.3-.62-.45-1.415-.45-2.385 0-1 .17-1.815.51-2.445.34-.63.81-1.095 1.41-1.395.61-.3 1.31-.45 2.1-.45.56 0 1.045.055 1.455.165.42.11.785.24 1.095.39l-.66 1.725c-.35-.14-.68-.255-.99-.345-.3-.09-.6-.135-.9-.135-.39 0-.715.095-.975.285-.26.18-.455.455-.585.825-.12.36-.18.815-.18 1.365 0 .54.065.99.195 1.35.14.35.34.615.6.795.26.17.575.255.945.255.47 0 .885-.06 1.245-.18.36-.13.71-.305 1.05-.525v1.905c-.34.22-.7.375-1.08.465-.37.1-.84.15-1.41.15zm11.155-6.66h-2.685v6.51h-2.235v-6.51h-2.685v-1.68h7.605v1.68zm8.771.465c0 .44-.14.815-.42 1.125-.27.31-.675.51-1.215.6v.06c.57.07 1.025.265 1.365.585.35.32.525.73.525 1.23 0 .35-.07.675-.21.975-.13.3-.34.56-.63.78-.29.22-.665.39-1.125.51-.45.12-1 .18-1.65.18h-3.9v-8.19h3.9c.64 0 1.21.07 1.71.21.51.13.91.35 1.2.66.3.31.45.735.45 1.275zm-2.055 3.48c0-.32-.125-.55-.375-.69-.25-.15-.625-.225-1.125-.225h-1.47v1.935h1.515c.42 0 .765-.075 1.035-.225.28-.16.42-.425.42-.795zm-.21-3.3c0-.26-.1-.45-.3-.57-.2-.12-.495-.18-.885-.18h-1.575v1.62h1.32c.47 0 .825-.065 1.065-.195.25-.14.375-.365.375-.675zm6.599.915c0 .17-.01.38-.03.63-.01.25-.025.505-.045.765-.01.26-.025.49-.045.69-.02.2-.035.34-.045.42l3.78-5.745h2.685v8.19h-2.16v-3.27c0-.27.01-.565.03-.885.02-.33.04-.635.06-.915.03-.29.05-.51.06-.66l-3.765 5.73h-2.685v-8.19h2.16v3.24zm9.881 4.95h-2.415l2.205-3.24c-.28-.12-.545-.28-.795-.48a2.383 2.383 0 01-.585-.795c-.15-.32-.225-.7-.225-1.14 0-.82.31-1.445.93-1.875.62-.44 1.415-.66 2.385-.66h3.81v8.19h-2.235v-3.045h-1.23l-1.845 3.045zm.375-5.64c0 .34.135.61.405.81.27.19.62.285 1.05.285h1.245v-2.07h-1.53c-.4 0-.695.1-.885.3a.923.923 0 00-.285.675z" fill="#FCFCFC"/><circle cx="299" cy="364" r="14" fill="#262B4B"/><rect y="408" width="333" height="48" rx="20" fill="#1B203D"/><path d="M38.392 437.5h-2.265v-4.62h-4.245v4.62h-2.265v-10.71h2.265v4.2h4.245v-4.2h2.265v10.71zm5.89-8.34c.76 0 1.41.145 1.95.435.55.29.974.71 1.274 1.26.3.55.45 1.225.45 2.025v1.08h-5.28c.02.63.205 1.125.555 1.485.36.36.855.54 1.485.54.53 0 1.01-.05 1.44-.15.43-.11.875-.275 1.335-.495v1.725c-.4.2-.825.345-1.275.435-.44.1-.975.15-1.605.15-.82 0-1.545-.15-2.175-.45a3.445 3.445 0 01-1.485-1.395c-.36-.62-.54-1.4-.54-2.34 0-.96.16-1.755.48-2.385.33-.64.785-1.12 1.365-1.44.58-.32 1.255-.48 2.025-.48zm.014 1.59c-.43 0-.79.14-1.08.42-.28.28-.445.715-.495 1.305h3.135c0-.33-.06-.625-.18-.885a1.34 1.34 0 00-.51-.615c-.23-.15-.52-.225-.87-.225zm12.838-1.44v6.555h1.2v4.575h-2.01v-2.94h-5.505v2.94h-2.01v-4.575h.69c.36-.55.665-1.175.915-1.875.25-.71.45-1.465.6-2.265.15-.8.26-1.605.33-2.415h5.79zm-3.915 1.68c-.08.6-.18 1.185-.3 1.755-.12.56-.27 1.1-.45 1.62-.17.52-.38 1.02-.63 1.5h3.06v-4.875h-1.68zm13.77.465c0 .44-.14.815-.42 1.125-.27.31-.674.51-1.214.6v.06c.57.07 1.025.265 1.365.585.35.32.525.73.525 1.23 0 .35-.07.675-.21.975-.13.3-.34.56-.63.78-.29.22-.665.39-1.125.51-.45.12-1 .18-1.65.18h-3.9v-8.19h3.9c.64 0 1.21.07 1.71.21.51.13.91.35 1.2.66.3.31.45.735.45 1.275zm-2.054 3.48c0-.32-.125-.55-.375-.69-.25-.15-.625-.225-1.125-.225h-1.47v1.935h1.515c.42 0 .765-.075 1.035-.225.28-.16.42-.425.42-.795zm-.21-3.3c0-.26-.1-.45-.3-.57-.2-.12-.495-.18-.885-.18h-1.575v1.62h1.32c.47 0 .825-.065 1.065-.195.25-.14.375-.365.375-.675zm6.598.915c0 .17-.01.38-.03.63-.01.25-.025.505-.045.765-.01.26-.025.49-.045.69-.02.2-.035.34-.045.42l3.78-5.745h2.685v8.19h-2.16v-3.27c0-.27.01-.565.03-.885.02-.33.04-.635.06-.915.03-.29.05-.51.06-.66l-3.765 5.73h-2.685v-8.19h2.16v3.24zm20.276-3.24l-3.015 3.93 3.3 4.26H89.5l-3.12-4.155v4.155h-2.085v-4.155l-3.12 4.155H78.79l3.3-4.26-3.015-3.93h2.31l2.91 3.975v-3.975h2.085v3.975l2.91-3.975h2.31zm3.616 3.24c0 .17-.01.38-.03.63-.01.25-.025.505-.045.765-.01.26-.025.49-.045.69-.02.2-.035.34-.045.42l3.78-5.745h2.685v8.19h-2.16v-3.27c0-.27.01-.565.03-.885.02-.33.04-.635.06-.915.03-.29.05-.51.06-.66l-3.765 5.73h-2.685v-8.19h2.16v3.24zm18.956-3.24v8.19h-2.085v-4.02c0-.4.005-.79.015-1.17.02-.38.045-.73.075-1.05h-.045l-2.265 6.24h-1.68l-2.295-6.255h-.06c.04.33.065.685.075 1.065.02.37.03.78.03 1.23v3.96h-2.085v-8.19h3.165l2.04 5.55 2.07-5.55h3.045zm9.776 4.08c0 .68-.095 1.285-.285 1.815-.18.53-.445.98-.795 1.35-.34.36-.755.635-1.245.825-.49.18-1.045.27-1.665.27-.57 0-1.1-.09-1.59-.27a3.522 3.522 0 01-1.245-.825c-.35-.37-.625-.82-.825-1.35-.19-.53-.285-1.135-.285-1.815 0-.91.16-1.675.48-2.295.32-.63.78-1.11 1.38-1.44.6-.33 1.31-.495 2.13-.495.77 0 1.45.165 2.04.495.59.33 1.055.81 1.395 1.44.34.62.51 1.385.51 2.295zm-5.655 0c0 .54.055.995.165 1.365.12.36.305.635.555.825.25.18.575.27.975.27s.72-.09.96-.27c.25-.19.43-.465.54-.825.12-.37.18-.825.18-1.365s-.06-.99-.18-1.35c-.11-.36-.29-.63-.54-.81-.25-.18-.575-.27-.975-.27-.59 0-1.02.205-1.29.615-.26.4-.39 1.005-.39 1.815zm10.832 4.26c-.81 0-1.5-.145-2.07-.435-.57-.3-1.005-.76-1.305-1.38-.3-.62-.45-1.415-.45-2.385 0-1 .17-1.815.51-2.445.34-.63.81-1.095 1.41-1.395.61-.3 1.31-.45 2.1-.45.56 0 1.045.055 1.455.165.42.11.785.24 1.095.39l-.66 1.725c-.35-.14-.68-.255-.99-.345-.3-.09-.6-.135-.9-.135-.39 0-.715.095-.975.285-.26.18-.455.455-.585.825-.12.36-.18.815-.18 1.365 0 .54.065.99.195 1.35.14.35.34.615.6.795.26.17.575.255.945.255.47 0 .885-.06 1.245-.18.36-.13.71-.305 1.05-.525v1.905c-.34.22-.7.375-1.08.465-.37.1-.84.15-1.41.15zm11.155-6.66h-2.685v6.51h-2.235v-6.51h-2.685v-1.68h7.605v1.68zm5.321 1.485c.84 0 1.535.09 2.085.27.55.17.955.435 1.215.795.27.36.405.81.405 1.35 0 .53-.125.99-.375 1.38-.24.39-.625.695-1.155.915-.53.21-1.225.315-2.085.315h-3.9v-8.19h2.235v3.165h1.575zm1.47 2.445c0-.32-.13-.55-.39-.69-.25-.14-.625-.21-1.125-.21h-1.53v1.935h1.56c.44 0 .795-.08 1.065-.24.28-.16.42-.425.42-.795z" fill="#FCFCFC"/><circle cx="299" cy="432" r="14" fill="#262B4B"/><rect y="476" width="333" height="48" rx="20" fill="#1B203D"/><path d="M30.88 505.5l-2.58-8.4h-.06l.045.9c.02.4.04.83.06 1.29.02.45.03.86.03 1.23v4.98H26.35v-10.71h3.09l2.535 8.19h.045l2.685-8.19h3.09v10.71H35.68v-5.07c0-.34.005-.73.015-1.17.02-.44.035-.855.045-1.245l.045-.9h-.06l-2.76 8.385H30.88zm12.815-8.34c.76 0 1.41.145 1.95.435.55.29.975.71 1.275 1.26.3.55.45 1.225.45 2.025v1.08h-5.28c.02.63.205 1.125.555 1.485.36.36.855.54 1.485.54.53 0 1.01-.05 1.44-.15.43-.11.875-.275 1.335-.495v1.725c-.4.2-.825.345-1.275.435-.44.1-.975.15-1.605.15-.82 0-1.545-.15-2.175-.45a3.445 3.445 0 01-1.485-1.395c-.36-.62-.54-1.4-.54-2.34 0-.96.16-1.755.48-2.385.33-.64.785-1.12 1.365-1.44.58-.32 1.255-.48 2.025-.48zm.015 1.59c-.43 0-.79.14-1.08.42-.28.28-.445.715-.495 1.305h3.135c0-.33-.06-.625-.18-.885a1.34 1.34 0 00-.51-.615c-.23-.15-.52-.225-.87-.225zm12.838-1.44v6.555h1.2v4.575h-2.01v-2.94h-5.505v2.94h-2.01v-4.575h.69c.36-.55.665-1.175.915-1.875.25-.71.45-1.465.6-2.265.15-.8.26-1.605.33-2.415h5.79zm-3.915 1.68c-.08.6-.18 1.185-.3 1.755-.12.56-.27 1.1-.45 1.62-.17.52-.38 1.02-.63 1.5h3.06v-4.875h-1.68zm8.67 1.56c0 .17-.01.38-.03.63-.01.25-.024.505-.044.765-.01.26-.025.49-.045.69-.02.2-.035.34-.045.42l3.78-5.745h2.685v8.19h-2.16v-3.27c0-.27.01-.565.03-.885.02-.33.04-.635.06-.915.03-.29.05-.51.06-.66l-3.765 5.73h-2.685v-8.19h2.16v3.24zm17.576 7.89h-2.01v-2.94h-6.93v-8.19h2.236v6.51h3.27v-6.51h2.235v6.555h1.2v4.575zm3.548-7.89c0 .17-.01.38-.03.63-.01.25-.025.505-.045.765-.01.26-.025.49-.045.69-.02.2-.035.34-.045.42l3.78-5.745h2.685v8.19h-2.16v-3.27c0-.27.01-.565.03-.885.02-.33.04-.635.06-.915.03-.29.05-.51.06-.66l-3.765 5.73h-2.685v-8.19h2.16v3.24zm10.87-3.24v3.15h3.12v-3.15h2.236v8.19h-2.235v-3.375h-3.12v3.375h-2.235v-8.19h2.235zm11.057-.165c1.1 0 1.94.24 2.52.72.59.47.885 1.195.885 2.175v5.46h-1.56l-.435-1.11h-.06c-.23.29-.47.53-.72.72-.24.19-.52.325-.84.405-.31.09-.695.135-1.155.135-.48 0-.915-.09-1.305-.27-.38-.19-.68-.475-.9-.855-.22-.39-.33-.88-.33-1.47 0-.87.305-1.51.915-1.92.61-.42 1.525-.65 2.745-.69l1.425-.045v-.36c0-.43-.115-.745-.345-.945-.22-.2-.53-.3-.93-.3s-.79.06-1.17.18c-.38.11-.76.25-1.14.42l-.735-1.515c.44-.23.925-.41 1.455-.54.54-.13 1.1-.195 1.68-.195zm.315 4.59c-.72.02-1.22.15-1.5.39-.28.24-.42.555-.42.945 0 .34.1.585.3.735.2.14.46.21.78.21.48 0 .885-.14 1.215-.42.33-.29.495-.695.495-1.215v-.675l-.87.03zm6.503 2.4c.24.54.36 1.085.36 1.635 0 .62-.165 1.13-.495 1.53-.32.4-.82.6-1.5.6v-.81c.26 0 .45-.065.57-.195.12-.12.18-.34.18-.66v-.15h-.96v-1.95h1.845zm8.335-6.975c.59 0 1.14.08 1.65.24.52.15.935.385 1.245.705.32.32.48.73.48 1.23 0 .49-.15.88-.45 1.17-.29.29-.685.5-1.185.63v.075c.35.08.665.195.945.345.28.14.5.335.66.585.17.24.255.565.255.975 0 .45-.145.87-.435 1.26-.28.38-.72.69-1.32.93-.59.23-1.35.345-2.28.345-.44 0-.855-.02-1.245-.06a9.58 9.58 0 01-1.065-.165c-.32-.08-.6-.175-.84-.285v-1.845c.34.16.755.305 1.245.435.5.13 1.03.195 1.59.195.41 0 .775-.03 1.095-.09.33-.06.59-.16.78-.3.2-.14.3-.325.3-.555 0-.22-.085-.4-.255-.54-.17-.15-.425-.26-.765-.33s-.775-.105-1.305-.105h-.87v-1.545h.825c.74 0 1.31-.06 1.71-.18.41-.12.615-.345.615-.675 0-.26-.13-.455-.39-.585-.26-.14-.685-.21-1.275-.21-.39 0-.815.045-1.275.135-.46.09-.895.22-1.305.39l-.66-1.56c.47-.18.985-.325 1.545-.435.56-.12 1.22-.18 1.98-.18zm12.7.15v6.555h1.2v4.575h-2.01v-2.94h-5.505v2.94h-2.01v-4.575h.69c.36-.55.665-1.175.915-1.875.25-.71.45-1.465.6-2.265.15-.8.26-1.605.33-2.415h5.79zm-3.915 1.68c-.08.6-.18 1.185-.3 1.755-.12.56-.27 1.1-.45 1.62-.17.52-.38 1.02-.63 1.5h3.06v-4.875h-1.68zm13.951 2.4c0 .68-.095 1.285-.285 1.815-.18.53-.445.98-.795 1.35-.34.36-.755.635-1.245.825-.49.18-1.045.27-1.665.27-.57 0-1.1-.09-1.59-.27a3.522 3.522 0 01-1.245-.825c-.35-.37-.625-.82-.825-1.35-.19-.53-.285-1.135-.285-1.815 0-.91.16-1.675.48-2.295.32-.63.78-1.11 1.38-1.44.6-.33 1.31-.495 2.13-.495.77 0 1.45.165 2.04.495.59.33 1.055.81 1.395 1.44.34.62.51 1.385.51 2.295zm-5.655 0c0 .54.055.995.165 1.365.12.36.305.635.555.825.25.18.575.27.975.27s.72-.09.96-.27c.25-.19.43-.465.54-.825.12-.37.18-.825.18-1.365s-.06-.99-.18-1.35c-.11-.36-.29-.63-.54-.81-.25-.18-.575-.27-.975-.27-.59 0-1.02.205-1.29.615-.26.4-.39 1.005-.39 1.815zm12.062-4.23c.92 0 1.665.36 2.235 1.08.57.71.855 1.76.855 3.15 0 .93-.135 1.715-.405 2.355-.27.63-.64 1.105-1.11 1.425-.47.32-1.015.48-1.635.48-.39 0-.73-.05-1.02-.15-.28-.1-.52-.23-.72-.39-.2-.16-.375-.33-.525-.51h-.12a6.026 6.026 0 01.12 1.2v3.3h-2.235v-11.79h1.815l.315 1.065h.105c.15-.22.33-.42.54-.6.21-.19.46-.34.75-.45.3-.11.645-.165 1.035-.165zm-.72 1.785c-.39 0-.7.08-.93.24-.23.16-.4.405-.51.735-.1.32-.155.725-.165 1.215v.24c0 .53.05.98.15 1.35.1.36.27.635.51.825.24.19.565.285.975.285.34 0 .62-.095.84-.285.22-.19.385-.47.495-.84.11-.37.165-.82.165-1.35 0-.8-.125-1.4-.375-1.8-.24-.41-.625-.615-1.155-.615zm13.092 2.445c0 .68-.095 1.285-.285 1.815-.18.53-.445.98-.795 1.35-.34.36-.755.635-1.245.825-.49.18-1.045.27-1.665.27-.57 0-1.1-.09-1.59-.27a3.522 3.522 0 01-1.245-.825c-.35-.37-.625-.82-.825-1.35-.19-.53-.285-1.135-.285-1.815 0-.91.16-1.675.48-2.295.32-.63.78-1.11 1.38-1.44.6-.33 1.31-.495 2.13-.495.77 0 1.45.165 2.04.495.59.33 1.055.81 1.395 1.44.34.62.51 1.385.51 2.295zm-5.655 0c0 .54.055.995.165 1.365.12.36.305.635.555.825.25.18.575.27.975.27s.72-.09.96-.27c.25-.19.43-.465.54-.825.12-.37.18-.825.18-1.365s-.06-.99-.18-1.35c-.11-.36-.29-.63-.54-.81-.25-.18-.575-.27-.975-.27-.59 0-1.02.205-1.29.615-.26.4-.39 1.005-.39 1.815zm14.762-1.935c0 .44-.14.815-.42 1.125-.27.31-.675.51-1.215.6v.06c.57.07 1.025.265 1.365.585.35.32.525.73.525 1.23 0 .35-.07.675-.21.975-.13.3-.34.56-.63.78-.29.22-.665.39-1.125.51-.45.12-1 .18-1.65.18h-3.9v-8.19h3.9c.64 0 1.21.07 1.71.21.51.13.91.35 1.2.66.3.31.45.735.45 1.275zm-2.055 3.48c0-.32-.125-.55-.375-.69-.25-.15-.625-.225-1.125-.225h-1.47v1.935h1.515c.42 0 .765-.075 1.035-.225.28-.16.42-.425.42-.795zm-.21-3.3c0-.26-.1-.45-.3-.57-.2-.12-.495-.18-.885-.18h-1.575v1.62h1.32c.47 0 .825-.065 1.065-.195.25-.14.375-.365.375-.675zm8.249.84c.84 0 1.535.09 2.085.27.55.17.955.435 1.215.795.27.36.405.81.405 1.35 0 .53-.125.99-.375 1.38-.24.39-.625.695-1.155.915-.53.21-1.225.315-2.085.315h-3.9v-8.19h2.235v3.165h1.575zm1.47 2.445c0-.32-.13-.55-.39-.69-.25-.14-.625-.21-1.125-.21h-1.53v1.935h1.56c.44 0 .795-.08 1.065-.24.28-.16.42-.425.42-.795zm7.309-5.76c.76 0 1.41.145 1.95.435.55.29.975.71 1.275 1.26.3.55.45 1.225.45 2.025v1.08h-5.28c.02.63.205 1.125.555 1.485.36.36.855.54 1.485.54.53 0 1.01-.05 1.44-.15.43-.11.875-.275 1.335-.495v1.725c-.4.2-.825.345-1.275.435-.44.1-.975.15-1.605.15-.82 0-1.545-.15-2.175-.45a3.445 3.445 0 01-1.485-1.395c-.36-.62-.54-1.4-.54-2.34 0-.96.16-1.755.48-2.385.33-.64.785-1.12 1.365-1.44.58-.32 1.255-.48 2.025-.48zm.015 1.59c-.43 0-.79.14-1.08.42-.28.28-.445.715-.495 1.305h3.135c0-.33-.06-.625-.18-.885a1.34 1.34 0 00-.51-.615c-.23-.15-.52-.225-.87-.225z" fill="#FCFCFC"/><circle cx="299" cy="500" r="14" fill="#262B4B"/></svg>