<svg width="149" height="14" viewBox="0 0 149 14" fill="none" xmlns="http://www.w3.org/2000/svg"><path d="M.53 13V.862h9.605V13H7.568V3.004H3.097V13H.53zm20.895-4.658c0 .77-.108 1.456-.323 2.057-.204.6-.504 1.11-.901 1.53-.385.408-.856.72-1.411.935-.555.204-1.184.306-1.887.306a5.186 5.186 0 01-1.802-.306 3.992 3.992 0 01-1.411-.935 4.514 4.514 0 01-.935-1.53c-.215-.6-.323-1.286-.323-2.057 0-1.031.181-1.898.544-2.601a3.755 3.755 0 011.564-1.632c.68-.374 1.485-.561 2.414-.561.873 0 1.643.187 2.312.561.669.374 1.196.918 1.581 1.632.385.703.578 1.57.578 2.601zm-6.409 0c0 .612.062 1.128.187 1.547.136.408.346.72.629.935.283.204.652.306 1.105.306.453 0 .816-.102 1.088-.306.283-.215.487-.527.612-.935.136-.42.204-.935.204-1.547 0-.612-.068-1.122-.204-1.53-.125-.408-.329-.714-.612-.918-.283-.204-.652-.306-1.105-.306-.669 0-1.156.232-1.462.697-.295.453-.442 1.139-.442 2.057zm10.074-.085l-2.992-4.539h2.873l1.802 2.958 1.82-2.958h2.872L28.44 8.257 31.601 13h-2.873l-1.955-3.179L24.818 13h-2.873l3.145-4.743zm16.024.085c0 .77-.107 1.456-.323 2.057-.204.6-.504 1.11-.9 1.53-.386.408-.856.72-1.412.935-.555.204-1.184.306-1.887.306a5.187 5.187 0 01-1.802-.306 3.992 3.992 0 01-1.41-.935 4.515 4.515 0 01-.936-1.53c-.215-.6-.323-1.286-.323-2.057 0-1.031.182-1.898.544-2.601a3.755 3.755 0 011.564-1.632c.68-.374 1.485-.561 2.414-.561.873 0 1.644.187 2.312.561.67.374 1.196.918 1.581 1.632.386.703.578 1.57.578 2.601zm-6.409 0c0 .612.063 1.128.187 1.547.136.408.346.72.63.935.283.204.651.306 1.104.306.454 0 .816-.102 1.088-.306.284-.215.488-.527.612-.935.136-.42.204-.935.204-1.547 0-.612-.068-1.122-.204-1.53-.124-.408-.328-.714-.612-.918-.283-.204-.651-.306-1.105-.306-.668 0-1.156.232-1.462.697-.294.453-.442 1.139-.442 2.057zm21.363-4.624L52.65 8.172 56.39 13h-2.703l-3.536-4.709V13h-2.363V8.291L44.253 13H41.55l3.74-4.828-3.417-4.454h2.618l3.298 4.505V3.718h2.363v4.505l3.298-4.505h2.618zm4.098 3.672c0 .193-.012.43-.034.714-.012.283-.029.572-.051.867-.012.295-.029.555-.051.782-.023.227-.04.385-.051.476l4.284-6.511h3.043V13h-2.448V9.294c0-.306.01-.64.034-1.003.022-.374.045-.72.068-1.037.034-.329.056-.578.068-.748L60.76 13h-3.043V3.718h2.448V7.39zm13.612-3.842c.861 0 1.598.164 2.21.493a3.443 3.443 0 011.445 1.428c.34.623.51 1.388.51 2.295v1.224h-5.984c.023.714.232 1.275.629 1.683.408.408.969.612 1.683.612.6 0 1.145-.057 1.632-.17a8.278 8.278 0 001.513-.561v1.955a5.726 5.726 0 01-1.445.493c-.499.113-1.105.17-1.819.17-.93 0-1.751-.17-2.465-.51a3.904 3.904 0 01-1.683-1.581c-.408-.703-.612-1.587-.612-2.652 0-1.088.181-1.989.544-2.703.374-.725.89-1.27 1.547-1.632.657-.363 1.422-.544 2.295-.544zm.017 1.802c-.487 0-.895.159-1.224.476-.317.317-.504.81-.561 1.479h3.553c0-.374-.068-.708-.204-1.003a1.518 1.518 0 00-.578-.697c-.26-.17-.59-.255-.986-.255zm15.99-1.632h2.788l-3.672 4.454L92.896 13h-2.873l-3.791-4.709V13h-2.533V3.718h2.533v4.505l3.553-4.505zm8.247-.187c1.247 0 2.199.272 2.856.816.669.533 1.003 1.354 1.003 2.465V13h-1.768l-.493-1.258h-.068c-.26.329-.532.6-.816.816-.272.215-.589.368-.952.459-.35.102-.787.153-1.309.153a3.488 3.488 0 01-1.479-.306 2.4 2.4 0 01-1.02-.969c-.249-.442-.374-.997-.374-1.666 0-.986.346-1.711 1.037-2.176.692-.476 1.729-.737 3.111-.782l1.615-.051v-.408c0-.487-.13-.844-.39-1.071-.25-.227-.601-.34-1.055-.34-.453 0-.895.068-1.326.204a9.92 9.92 0 00-1.292.476l-.833-1.717a7.3 7.3 0 011.65-.612 8.107 8.107 0 011.903-.221zm.357 5.202c-.816.023-1.382.17-1.7.442-.317.272-.476.629-.476 1.071 0 .385.114.663.34.833.227.159.522.238.884.238.544 0 1.003-.159 1.377-.476.374-.329.561-.788.561-1.377v-.765l-.986.034zm8.628-5.015v3.57h3.536v-3.57h2.533V13h-2.533V9.175h-3.536V13h-2.533V3.718h2.533zm12.531-.187c1.247 0 2.199.272 2.856.816.669.533 1.003 1.354 1.003 2.465V13h-1.768l-.493-1.258h-.068c-.261.329-.533.6-.816.816a2.481 2.481 0 01-.952.459c-.351.102-.788.153-1.309.153a3.488 3.488 0 01-1.479-.306 2.396 2.396 0 01-1.02-.969c-.249-.442-.374-.997-.374-1.666 0-.986.346-1.711 1.037-2.176.691-.476 1.728-.737 3.111-.782l1.615-.051v-.408c0-.487-.13-.844-.391-1.071-.249-.227-.601-.34-1.054-.34a4.38 4.38 0 00-1.326.204 9.914 9.914 0 00-1.292.476l-.833-1.717a7.298 7.298 0 011.649-.612 8.11 8.11 0 011.904-.221zm.357 5.202c-.816.023-1.383.17-1.7.442-.317.272-.476.629-.476 1.071 0 .385.113.663.34.833.227.159.521.238.884.238.544 0 1.003-.159 1.377-.476.374-.329.561-.788.561-1.377v-.765l-.986.034zM134.313 13h-2.533V5.622h-2.329c-.114 1.36-.255 2.522-.425 3.485-.159.952-.363 1.728-.612 2.329-.238.6-.544 1.043-.918 1.326-.374.272-.833.408-1.377.408-.295 0-.561-.023-.799-.068a2.685 2.685 0 01-.646-.204v-2.023c.124.045.255.085.391.119.136.034.277.051.425.051a.644.644 0 00.442-.187c.147-.125.283-.346.408-.663.136-.317.26-.754.374-1.309.113-.555.215-1.252.306-2.091.102-.85.192-1.876.272-3.077h7.021V13zm2.644 0V3.718h2.533v3.587h1.224c.952 0 1.734.102 2.346.306.612.193 1.065.493 1.36.901.306.408.459.918.459 1.53 0 .6-.142 1.122-.425 1.564-.272.442-.708.788-1.309 1.037-.589.238-1.371.357-2.346.357h-3.842zm3.706-1.751c.499 0 .901-.09 1.207-.272.317-.181.476-.482.476-.901 0-.363-.147-.623-.442-.782-.283-.159-.708-.238-1.275-.238h-1.139v2.193h1.173zM146.222 13V3.718h2.533V13h-2.533z" fill="#A0A3BD"/></svg>