<svg width="71" height="23" viewBox="0 0 71 23" fill="none" xmlns="http://www.w3.org/2000/svg"><path d="M2.25 18.625l.04-.26c.209-1.341 1.083-2.495 2.39-2.858 1.158-.322 2.696-.632 4.32-.632s3.162.31 4.32.632c1.307.363 2.18 1.517 2.39 2.858l.04.26M9 11.5A3.75 3.75 0 109 4a3.75 3.75 0 000 7.5z" stroke="#EFF0F7" stroke-linecap="round" stroke-linejoin="round"/><path d="M23.63 15.95c1.7-1.14 3.06-2.27 4.08-3.39 1.02-1.13 1.53-2.18 1.53-3.15 0-.6-.155-1.08-.465-1.44-.3-.37-.79-.555-1.47-.555-.7 0-1.23.225-1.59.675-.36.44-.56 1.05-.6 1.83h-1.35c.07-1.18.435-2.085 1.095-2.715.66-.64 1.51-.96 2.55-.96.99 0 1.775.265 2.355.795.58.53.87 1.28.87 2.25 0 .8-.26 1.615-.78 2.445-.51.82-1.155 1.585-1.935 2.295-.77.7-1.565 1.295-2.385 1.785h5.37v1.125H23.63v-.99zm12.366-9.81c.68 0 1.265.12 1.755.36s.86.57 1.11.99c.25.42.375.895.375 1.425 0 .66-.195 1.215-.585 1.665-.38.45-.94.72-1.68.81v.09c.77.2 1.37.51 1.8.93.44.42.66 1 .66 1.74 0 .87-.29 1.58-.87 2.13-.58.55-1.415.825-2.505.825-1.09 0-1.975-.28-2.655-.84-.67-.57-1.065-1.4-1.185-2.49h1.35c.09.66.34 1.185.75 1.575.42.39.985.585 1.695.585.67 0 1.185-.17 1.545-.51.36-.35.54-.8.54-1.35 0-.66-.26-1.16-.78-1.5-.51-.35-1.24-.525-2.19-.525h-.36v-1.14h.36c1.84 0 2.76-.615 2.76-1.845 0-.54-.17-.97-.51-1.29-.34-.32-.81-.48-1.41-.48-.6 0-1.105.175-1.515.525-.41.34-.65.845-.72 1.515h-1.335c.07-1 .415-1.78 1.035-2.34.63-.57 1.485-.855 2.565-.855zm8.684 9.81c1.7-1.14 3.06-2.27 4.08-3.39 1.02-1.13 1.53-2.18 1.53-3.15 0-.6-.155-1.08-.465-1.44-.3-.37-.79-.555-1.47-.555-.7 0-1.23.225-1.59.675-.36.44-.56 1.05-.6 1.83h-1.35c.07-1.18.435-2.085 1.095-2.715.66-.64 1.51-.96 2.55-.96.99 0 1.775.265 2.355.795.58.53.87 1.28.87 2.25 0 .8-.26 1.615-.78 2.445-.51.82-1.155 1.585-1.935 2.295-.77.7-1.565 1.295-2.385 1.785h5.37v1.125H44.68v-.99zm8.736-4.305c0 1.7.28 3.025.84 3.975.56.95 1.53 1.425 2.91 1.425 1.38 0 2.35-.475 2.91-1.425.57-.95.855-2.275.855-3.975 0-1.68-.285-2.995-.855-3.945-.56-.95-1.53-1.425-2.91-1.425-1.38 0-2.35.475-2.91 1.425-.56.94-.84 2.255-.84 3.945zm6.165 0c0 .87-.066 1.6-.196 2.19-.12.58-.354 1.045-.704 1.395-.35.35-.855.525-1.515.525-.65 0-1.15-.175-1.5-.525-.35-.35-.59-.815-.72-1.395-.12-.59-.18-1.32-.18-2.19 0-.86.06-1.58.18-2.16.13-.58.37-1.04.72-1.38.35-.35.85-.525 1.5-.525.66 0 1.165.175 1.515.525.35.34.585.8.705 1.38.13.58.194 1.3.194 2.16zm3.048 0c0 1.7.28 3.025.84 3.975.56.95 1.53 1.425 2.91 1.425 1.38 0 2.35-.475 2.91-1.425.57-.95.855-2.275.855-3.975 0-1.68-.285-2.995-.855-3.945-.56-.95-1.53-1.425-2.91-1.425-1.38 0-2.35.475-2.91 1.425-.56.94-.84 2.255-.84 3.945zm6.165 0c0 .87-.065 1.6-.195 2.19-.12.58-.355 1.045-.705 1.395-.35.35-.855.525-1.515.525-.65 0-1.15-.175-1.5-.525-.35-.35-.59-.815-.72-1.395-.12-.59-.18-1.32-.18-2.19 0-.86.06-1.58.18-2.16.13-.58.37-1.04.72-1.38.35-.35.85-.525 1.5-.525.66 0 1.165.175 1.515.525.35.34.585.8.705 1.38.13.58.195 1.3.195 2.16z" fill="#EFF0F7"/></svg>