<svg width="334" height="113" viewBox="0 0 334 113" fill="none" xmlns="http://www.w3.org/2000/svg"><path d="M6.681 8.834c-.487 0-.924.096-1.309.289a2.67 2.67 0 00-.952.833c-.26.351-.459.782-.595 1.292a7.244 7.244 0 00-.187 1.717c0 .861.102 1.598.306 2.21.215.6.55 1.06 1.003 1.377.453.317 1.031.476 1.734.476a6.51 6.51 0 001.479-.17 14.616 14.616 0 001.615-.476v2.159a8.653 8.653 0 01-1.581.476 9.156 9.156 0 01-1.751.153c-1.247 0-2.278-.255-3.094-.765-.805-.521-1.4-1.247-1.785-2.176-.385-.94-.578-2.034-.578-3.281 0-.918.125-1.757.374-2.516.25-.77.612-1.434 1.088-1.989a4.992 4.992 0 011.785-1.292c.714-.306 1.53-.459 2.448-.459.6 0 1.201.08 1.802.238a9.148 9.148 0 011.751.612l-.833 2.091a12.996 12.996 0 00-1.377-.561 4.047 4.047 0 00-1.343-.238zm13.153 2.788h-3.043V19h-2.533v-7.378h-3.043V9.718h8.62v1.904zm9.979 2.72c0 .77-.108 1.456-.323 2.057-.204.6-.505 1.11-.901 1.53-.386.408-.856.72-1.411.935-.556.204-1.185.306-1.887.306a5.186 5.186 0 01-1.802-.306 3.992 3.992 0 01-1.411-.935 4.514 4.514 0 01-.935-1.53c-.216-.6-.323-1.286-.323-2.057 0-1.031.181-1.898.544-2.601a3.755 3.755 0 011.564-1.632c.68-.374 1.484-.561 2.414-.561.872 0 1.643.187 2.312.561.668.374 1.195.918 1.58 1.632.386.703.579 1.57.579 2.601zm-6.41 0c0 .612.063 1.128.188 1.547.136.408.345.72.629.935.283.204.651.306 1.105.306.453 0 .816-.102 1.088-.306.283-.215.487-.527.612-.935.136-.42.204-.935.204-1.547 0-.612-.068-1.122-.204-1.53-.125-.408-.329-.714-.612-.918-.284-.204-.652-.306-1.105-.306-.669 0-1.156.232-1.462.697-.295.453-.442 1.139-.442 2.057zm10.951-.952c0 .193-.011.43-.034.714a23.92 23.92 0 01-.05.867 13.07 13.07 0 01-.052.782l-.05.476 4.283-6.511h3.043V19h-2.448v-3.706c0-.306.011-.64.034-1.003.023-.374.045-.72.068-1.037.034-.329.057-.578.068-.748L34.95 19h-3.043V9.718h2.448v3.672zm21.483-3.672V19h-2.363v-4.556c0-.453.006-.895.017-1.326.023-.43.051-.827.085-1.19h-.05L50.957 19h-1.904l-2.6-7.089h-.069c.046.374.074.776.085 1.207.023.42.034.884.034 1.394V19h-2.363V9.718h3.587l2.312 6.29 2.346-6.29h3.451zm11.08 4.624c0 .77-.108 1.456-.323 2.057-.204.6-.504 1.11-.9 1.53a3.8 3.8 0 01-1.412.935c-.555.204-1.184.306-1.887.306a5.186 5.186 0 01-1.802-.306 3.99 3.99 0 01-1.41-.935 4.512 4.512 0 01-.936-1.53c-.215-.6-.323-1.286-.323-2.057 0-1.031.181-1.898.544-2.601a3.754 3.754 0 011.564-1.632c.68-.374 1.485-.561 2.414-.561.873 0 1.644.187 2.312.561.669.374 1.196.918 1.581 1.632.386.703.578 1.57.578 2.601zm-6.409 0c0 .612.063 1.128.187 1.547.136.408.346.72.63.935.282.204.65.306 1.104.306.453 0 .816-.102 1.088-.306.283-.215.487-.527.612-.935.136-.42.204-.935.204-1.547 0-.612-.068-1.122-.204-1.53-.125-.408-.329-.714-.612-.918-.283-.204-.652-.306-1.105-.306-.669 0-1.156.232-1.462.697-.294.453-.442 1.139-.442 2.057zm12.277 4.828c-.918 0-1.7-.164-2.346-.493-.646-.34-1.14-.861-1.48-1.564-.34-.703-.51-1.604-.51-2.703 0-1.133.193-2.057.579-2.771.385-.714.918-1.241 1.598-1.581.69-.34 1.484-.51 2.38-.51.634 0 1.184.062 1.649.187.476.125.89.272 1.24.442l-.747 1.955a12.18 12.18 0 00-1.122-.391 3.534 3.534 0 00-1.02-.153c-.442 0-.81.108-1.105.323-.295.204-.516.516-.663.935-.136.408-.204.924-.204 1.547 0 .612.073 1.122.22 1.53.16.397.386.697.68.901.295.193.652.289 1.072.289a4.46 4.46 0 001.41-.204 5.84 5.84 0 001.19-.595v2.159c-.385.25-.793.425-1.223.527-.42.113-.952.17-1.598.17zm12.642-7.548h-3.043V19h-2.533v-7.378h-3.043V9.718h8.619v1.904zm6.03 1.683c.953 0 1.74.102 2.364.306.623.193 1.082.493 1.377.901.306.408.459.918.459 1.53 0 .6-.142 1.122-.425 1.564-.272.442-.709.788-1.31 1.037-.6.238-1.388.357-2.362.357h-4.42V9.718h2.532v3.587h1.785zm1.667 2.771c0-.363-.148-.623-.442-.782-.284-.159-.709-.238-1.276-.238h-1.734v2.193h1.769c.498 0 .9-.09 1.206-.272.318-.181.477-.482.477-.901z" fill="#FCFCFC"/><path d="M2.938 29.902c.529 0 .988.074 1.378.221.39.139.693.347.91.624.217.269.325.598.325.988 0 .425-.117.763-.351 1.014-.234.243-.555.42-.962.533v.052c.277.078.533.186.767.325.234.139.42.32.559.546.147.225.221.516.221.871 0 .381-.108.728-.325 1.04-.208.312-.533.559-.975.741-.433.182-.992.273-1.677.273-.33 0-.646-.017-.949-.052a5.123 5.123 0 01-.806-.156 3.468 3.468 0 01-.624-.247v-1.027c.295.139.641.264 1.04.377.407.113.85.169 1.326.169.347 0 .659-.039.936-.117.286-.078.511-.2.676-.364.165-.173.247-.407.247-.702 0-.269-.074-.485-.221-.65-.147-.173-.368-.303-.663-.39-.286-.087-.654-.13-1.105-.13h-.936v-.936h.754c.598 0 1.075-.078 1.43-.234.364-.165.546-.442.546-.832a.807.807 0 00-.416-.741c-.269-.165-.659-.247-1.17-.247-.381 0-.72.039-1.014.117-.286.07-.602.178-.949.325l-.403-.91a5.394 5.394 0 011.17-.364 6.691 6.691 0 011.261-.117zm7.179.013c.85 0 1.478.186 1.885.559.407.373.611.966.611 1.781V37h-.832l-.221-.988h-.052c-.2.251-.407.464-.624.637-.208.165-.45.286-.728.364a3.588 3.588 0 01-.988.117c-.416 0-.793-.074-1.13-.221a1.74 1.74 0 01-.781-.676c-.19-.312-.286-.702-.286-1.17 0-.693.273-1.226.819-1.599.546-.381 1.387-.59 2.522-.624l1.183-.039v-.416c0-.58-.126-.984-.377-1.209-.251-.225-.607-.338-1.066-.338-.364 0-.71.056-1.04.169-.33.104-.637.225-.923.364l-.351-.858a5.007 5.007 0 011.079-.416 4.62 4.62 0 011.3-.182zm.338 3.718c-.867.035-1.469.173-1.807.416-.33.243-.494.585-.494 1.027 0 .39.117.676.351.858.243.182.55.273.923.273.59 0 1.079-.16 1.469-.481.39-.33.585-.832.585-1.508v-.624l-1.027.039zm13.58-.13c0 .58-.078 1.096-.234 1.547a3.1 3.1 0 01-.65 1.131c-.277.312-.62.55-1.027.715a3.648 3.648 0 01-1.339.234 3.4 3.4 0 01-1.274-.234 2.88 2.88 0 01-1.014-.715 3.416 3.416 0 01-.676-1.131c-.156-.45-.234-.966-.234-1.547 0-.771.13-1.421.39-1.95.26-.537.633-.945 1.118-1.222.485-.286 1.062-.429 1.73-.429.632 0 1.186.143 1.663.429.485.277.862.685 1.131 1.222.277.529.416 1.179.416 1.95zm-5.265 0c0 .546.07 1.023.208 1.43.147.399.373.706.676.923.303.217.69.325 1.157.325.468 0 .854-.108 1.157-.325.303-.217.524-.524.663-.923.147-.407.221-.884.221-1.43 0-.555-.074-1.027-.22-1.417-.148-.39-.374-.689-.677-.897-.295-.217-.68-.325-1.157-.325-.71 0-1.226.234-1.547.702-.32.468-.48 1.114-.48 1.937zm12.252-3.471v6.006h1.014v3.38h-1.105V37h-4.849v2.418H24.99v-3.38h.56a8.48 8.48 0 00.987-1.807c.269-.659.468-1.343.598-2.054a12.1 12.1 0 00.221-2.145h3.666zm-2.652.897c-.035.59-.126 1.2-.273 1.833a12.04 12.04 0 01-.572 1.794 6.632 6.632 0 01-.793 1.482h3.185v-5.109H28.37zm6.11 3.354c0 .078-.003.19-.012.338 0 .139-.005.29-.013.455l-.026.455a9.722 9.722 0 01-.026.338l3.73-5.837h1.405V37h-1.066v-4.108-.546l.026-.663c.009-.225.017-.394.026-.507L34.819 37h-1.417v-6.968h1.079v4.251zm8.42-4.251v2.899h3.782v-2.899h1.144V37h-1.144v-3.107H42.9V37h-1.144v-6.968H42.9zm13.66-.13c.858 0 1.547.299 2.067.897.528.598.793 1.5.793 2.704 0 .789-.122 1.456-.364 2.002-.234.537-.568.945-1.001 1.222-.425.269-.928.403-1.508.403-.356 0-.672-.048-.95-.143a2.637 2.637 0 01-.714-.364 3.029 3.029 0 01-.494-.507h-.078c.017.147.034.334.052.559.017.225.026.42.026.585v2.86h-1.144V30.032h.936l.156.949h.052c.138-.2.303-.381.494-.546.199-.165.433-.295.702-.39.277-.095.602-.143.975-.143zm-.208.962c-.468 0-.845.091-1.131.273-.286.173-.494.438-.624.793-.13.355-.2.806-.208 1.352v.221c0 .572.06 1.057.182 1.456.121.399.325.702.61.91.295.208.694.312 1.197.312.424 0 .771-.117 1.04-.351.277-.234.48-.55.61-.949.14-.407.209-.871.209-1.391 0-.797-.156-1.434-.468-1.911-.304-.477-.776-.715-1.417-.715zm7.582-.962c.598 0 1.109.13 1.534.39.433.26.762.628.988 1.105.234.468.35 1.018.35 1.651v.689h-4.77c.017.789.216 1.391.598 1.807.39.407.931.611 1.625.611.442 0 .832-.039 1.17-.117a7.057 7.057 0 001.066-.364v1.001a5.113 5.113 0 01-1.053.338 5.691 5.691 0 01-1.235.117c-.659 0-1.244-.134-1.755-.403a2.863 2.863 0 01-1.183-1.196c-.278-.537-.416-1.192-.416-1.963 0-.763.125-1.417.377-1.963.26-.546.62-.966 1.079-1.261.468-.295 1.01-.442 1.625-.442zm-.013.936c-.546 0-.98.178-1.3.533-.312.347-.499.832-.56 1.456h3.55c0-.399-.061-.745-.182-1.04a1.469 1.469 0 00-.56-.689c-.242-.173-.558-.26-.948-.26zm8.78-.806h1.249l-2.977 3.354L74.197 37H72.87l-3.146-3.536V37H68.58v-6.968h1.144v3.38l2.977-3.38zM80.766 37h-1.157v-6.019h-2.054a33.459 33.459 0 01-.325 2.821c-.13.771-.294 1.4-.494 1.885-.199.485-.437.84-.715 1.066a1.5 1.5 0 01-.975.338c-.112 0-.225-.009-.338-.026a.714.714 0 01-.26-.065v-.858c.052.017.109.03.17.039.06.009.12.013.181.013a.72.72 0 00.52-.234c.156-.156.295-.394.416-.715.13-.32.247-.724.351-1.209.104-.494.195-1.075.273-1.742a51.64 51.64 0 00.208-2.262h4.2V37zm4.851-7.085c.85 0 1.478.186 1.885.559.407.373.611.966.611 1.781V37h-.832l-.22-.988h-.053a3.97 3.97 0 01-.624.637c-.208.165-.45.286-.728.364a3.59 3.59 0 01-.988.117c-.416 0-.793-.074-1.13-.221a1.74 1.74 0 01-.78-.676c-.192-.312-.287-.702-.287-1.17 0-.693.273-1.226.82-1.599.545-.381 1.386-.59 2.521-.624l1.183-.039v-.416c0-.58-.126-.984-.377-1.209-.251-.225-.607-.338-1.066-.338-.364 0-.71.056-1.04.169-.33.104-.637.225-.923.364l-.35-.858a5.006 5.006 0 011.078-.416 4.62 4.62 0 011.3-.182zm.338 3.718c-.867.035-1.469.173-1.807.416-.33.243-.494.585-.494 1.027 0 .39.117.676.351.858.243.182.55.273.923.273.59 0 1.08-.16 1.47-.481.39-.33.584-.832.584-1.508v-.624l-1.027.039zm11.785-3.601V37h-1.027v-4.446c0-.182.004-.373.013-.572l.052-.585h-.039L94.463 37h-.962l-2.21-5.603h-.039c.017.19.026.386.026.585.009.2.013.403.013.611V37h-1.027v-6.968h1.521l2.197 5.603 2.236-5.603h1.521zm3.368 0v2.899h3.783v-2.899h1.144V37h-1.144v-3.107h-3.783V37h-1.144v-6.968h1.144zM108.241 37v-6.968h1.144v2.86h1.807c.606 0 1.105.074 1.495.221.39.147.68.368.871.663.19.286.286.65.286 1.092 0 .433-.096.81-.286 1.131-.182.32-.473.568-.871.741-.39.173-.906.26-1.547.26h-2.899zm2.795-.923c.494 0 .897-.082 1.209-.247.312-.173.468-.472.468-.897 0-.425-.143-.71-.429-.858-.286-.156-.698-.234-1.235-.234h-1.664v2.236h1.651zm3.965.923v-6.968h1.144V37h-1.144zm9-9.854c-.035.433-.143.797-.325 1.092a1.594 1.594 0 01-.78.663c-.347.147-.797.221-1.352.221-.563 0-1.018-.074-1.365-.221-.338-.147-.585-.364-.741-.65-.156-.295-.251-.663-.286-1.105h1.066c.043.468.165.784.364.949.208.156.537.234.988.234.399 0 .711-.082.936-.247.234-.173.373-.485.416-.936h1.079zm-4.563 7.137c0 .078-.004.19-.013.338 0 .139-.004.29-.013.455l-.026.455a9.48 9.48 0 01-.026.338l3.731-5.837h1.404V37h-1.066v-4.108-.546l.026-.663c.009-.225.017-.394.026-.507L119.776 37h-1.417v-6.968h1.079v4.251zm16.375-4.251V37h-1.144v-5.993h-3.601V37h-1.144v-6.968h5.889zm8.282 3.471c0 .58-.078 1.096-.234 1.547a3.108 3.108 0 01-.65 1.131c-.278.312-.62.55-1.027.715a3.65 3.65 0 01-1.339.234c-.46 0-.884-.078-1.274-.234a2.88 2.88 0 01-1.014-.715 3.406 3.406 0 01-.676-1.131c-.156-.45-.234-.966-.234-1.547 0-.771.13-1.421.39-1.95.26-.537.632-.945 1.118-1.222.485-.286 1.061-.429 1.729-.429.632 0 1.187.143 1.664.429a2.82 2.82 0 011.131 1.222c.277.529.416 1.179.416 1.95zm-5.265 0c0 .546.069 1.023.208 1.43.147.399.372.706.676.923.303.217.689.325 1.157.325.468 0 .853-.108 1.157-.325.303-.217.524-.524.663-.923.147-.407.221-.884.221-1.43 0-.555-.074-1.027-.221-1.417-.148-.39-.373-.689-.676-.897-.295-.217-.681-.325-1.157-.325-.711 0-1.227.234-1.547.702-.321.468-.481 1.114-.481 1.937zm9.873 3.627c-.616 0-1.166-.126-1.651-.377-.477-.251-.854-.641-1.131-1.17-.269-.529-.403-1.205-.403-2.028 0-.858.143-1.556.429-2.093.286-.537.671-.932 1.157-1.183.494-.251 1.053-.377 1.677-.377.355 0 .697.039 1.027.117.329.07.598.156.806.26l-.351.949a6.78 6.78 0 00-.728-.221 3.235 3.235 0 00-.78-.104c-.468 0-.854.1-1.157.299-.304.2-.529.494-.676.884-.148.39-.221.875-.221 1.456 0 .555.073 1.027.221 1.417.147.39.368.685.663.884.294.2.663.299 1.105.299.381 0 .715-.039 1.001-.117.294-.078.563-.173.806-.286v1.014a3.073 3.073 0 01-.78.273c-.278.07-.616.104-1.014.104zm8.261-6.136h-2.275V37h-1.131v-6.006h-2.249v-.962h5.655v.962z" fill="#A0A3BD"/><rect x="196" width="138" height="42" rx="20" fill="#1B203D"/><path d="M228.005 15.005c.72 0 1.335.125 1.845.375.52.25.91.595 1.17 1.035.27.44.405.93.405 1.47 0 .68-.185 1.24-.555 1.68-.37.43-.86.695-1.47.795v.075c1.48.44 2.22 1.31 2.22 2.61 0 .91-.305 1.65-.915 2.22-.61.56-1.47.84-2.58.84-1.18 0-2.12-.29-2.82-.87-.7-.59-1.09-1.475-1.17-2.655h2.07c.05.54.225.97.525 1.29.31.31.745.465 1.305.465.48 0 .855-.13 1.125-.39.27-.27.405-.62.405-1.05 0-.51-.195-.9-.585-1.17-.39-.27-.965-.405-1.725-.405h-.435v-1.725h.435c1.4.02 2.1-.465 2.1-1.455 0-.43-.125-.765-.375-1.005-.25-.25-.59-.375-1.02-.375-.45 0-.82.145-1.11.435-.29.28-.455.675-.495 1.185h-2.07c.06-1.08.41-1.91 1.05-2.49.64-.59 1.53-.885 2.67-.885zm12.744 2.055h-5.025v2.67c.23-.27.545-.485.945-.645.41-.17.86-.255 1.35-.255.73 0 1.335.16 1.815.48.49.31.85.73 1.08 1.26.24.52.36 1.1.36 1.74 0 1.13-.32 2.035-.96 2.715-.63.68-1.535 1.02-2.715 1.02-.77 0-1.44-.135-2.01-.405a3.281 3.281 0 01-1.335-1.155c-.32-.5-.495-1.08-.525-1.74h2.055c.08.45.265.81.555 1.08.29.26.675.39 1.155.39.58 0 1.01-.175 1.29-.525.29-.36.435-.835.435-1.425 0-.56-.15-.995-.45-1.305-.3-.31-.725-.465-1.275-.465-.4 0-.74.09-1.02.27-.28.17-.485.4-.615.69h-2.055V15.2h6.945v1.86zm5.184 3.555c0 3.59 1.35 5.385 4.05 5.385 1.43 0 2.46-.48 3.09-1.44.63-.96.945-2.275.945-3.945 0-1.66-.315-2.97-.945-3.93-.63-.96-1.66-1.44-3.09-1.44-2.7 0-4.05 1.79-4.05 5.37zm6 0c0 1.09-.135 1.93-.405 2.52-.26.58-.775.87-1.545.87-.78 0-1.305-.29-1.575-.87-.26-.59-.39-1.43-.39-2.52 0-1.08.13-1.91.39-2.49.27-.59.795-.885 1.575-.885.77 0 1.285.295 1.545.885.27.58.405 1.41.405 2.49zm3.477 0c0 3.59 1.35 5.385 4.05 5.385 1.43 0 2.46-.48 3.09-1.44.63-.96.945-2.275.945-3.945 0-1.66-.315-2.97-.945-3.93-.63-.96-1.66-1.44-3.09-1.44-2.7 0-4.05 1.79-4.05 5.37zm6 0c0 1.09-.135 1.93-.405 2.52-.26.58-.775.87-1.545.87-.78 0-1.305-.29-1.575-.87-.26-.59-.39-1.43-.39-2.52 0-1.08.13-1.91.39-2.49.27-.59.795-.885 1.575-.885.77 0 1.285.295 1.545.885.27.58.405 1.41.405 2.49zm3.478 0c0 3.59 1.35 5.385 4.05 5.385 1.43 0 2.46-.48 3.09-1.44.63-.96.945-2.275.945-3.945 0-1.66-.315-2.97-.945-3.93-.63-.96-1.66-1.44-3.09-1.44-2.7 0-4.05 1.79-4.05 5.37zm6 0c0 1.09-.135 1.93-.405 2.52-.26.58-.775.87-1.545.87-.78 0-1.305-.29-1.575-.87-.26-.59-.39-1.43-.39-2.52 0-1.08.13-1.91.39-2.49.27-.59.795-.885 1.575-.885.77 0 1.285.295 1.545.885.27.58.405 1.41.405 2.49zm11.769-2.955c.92 0 1.665.36 2.235 1.08.57.71.855 1.76.855 3.15 0 .93-.135 1.715-.405 2.355-.27.63-.64 1.105-1.11 1.425-.47.32-1.015.48-1.635.48-.39 0-.73-.05-1.02-.15-.28-.1-.52-.23-.72-.39-.2-.16-.375-.33-.525-.51h-.12a6.026 6.026 0 01.12 1.2v3.3h-2.235V17.81h1.815l.315 1.065h.105c.15-.22.33-.42.54-.6.21-.19.46-.34.75-.45.3-.11.645-.165 1.035-.165zm-.72 1.785c-.39 0-.7.08-.93.24-.23.16-.4.405-.51.735-.1.32-.155.725-.165 1.215v.24c0 .53.05.98.15 1.35.1.36.27.635.51.825.24.19.565.285.975.285.34 0 .62-.095.84-.285.22-.19.385-.47.495-.84.11-.37.165-.82.165-1.35 0-.8-.125-1.4-.375-1.8-.24-.41-.625-.615-1.155-.615zm4.336-1.635h2.445l1.545 4.605c.05.15.09.3.12.45.04.15.07.305.09.465.03.16.05.33.06.51h.045c.03-.26.07-.505.12-.735.06-.24.125-.47.195-.69l1.515-4.605h2.4l-3.465 9.24a4.41 4.41 0 01-.825 1.41c-.33.38-.715.665-1.155.855-.44.19-.92.285-1.44.285-.25 0-.47-.015-.66-.045-.18-.02-.34-.045-.48-.075v-1.77c.11.02.24.04.39.06.16.02.325.03.495.03.31 0 .575-.065.795-.195.23-.13.42-.31.57-.54.15-.22.27-.46.36-.72l.135-.405-3.255-8.13zm9.215 3.285c0-1.21.15-2.235.45-3.075.3-.85.775-1.525 1.425-2.025.65-.51 1.5-.855 2.55-1.035a28.16 28.16 0 011.605-.225c.55-.07 1.115-.14 1.695-.21l.255 1.95c-.25.03-.525.065-.825.105-.3.03-.605.065-.915.105-.3.03-.59.065-.87.105-.28.04-.535.075-.765.105-.37.06-.695.145-.975.255-.28.1-.515.245-.705.435-.19.19-.34.45-.45.78-.1.32-.165.735-.195 1.245h.105c.12-.19.285-.38.495-.57a2.89 2.89 0 011.905-.675c.65 0 1.215.135 1.695.405s.85.67 1.11 1.2c.26.53.39 1.19.39 1.98 0 .93-.17 1.705-.51 2.325-.34.62-.81 1.09-1.41 1.41-.6.31-1.295.465-2.085.465-.6 0-1.145-.11-1.635-.33-.49-.22-.91-.545-1.26-.975-.35-.43-.62-.96-.81-1.59-.18-.63-.27-1.35-.27-2.16zm4.11 3.24c.32 0 .595-.07.825-.21.24-.14.425-.37.555-.69.14-.32.21-.75.21-1.29 0-.65-.11-1.165-.33-1.545-.21-.39-.58-.585-1.11-.585-.32 0-.62.08-.9.24-.27.15-.5.325-.69.525-.19.19-.32.355-.39.495 0 .39.03.77.09 1.14.06.36.16.685.3.975.14.29.325.52.555.69.24.17.535.255.885.255zm7.261-.54V26h-2.28v-2.205h2.28z" fill="#fff"/><path d="M75.391 88.325c-.57 0-1.085.1-1.545.3-.46.19-.85.475-1.17.855-.32.37-.565.825-.735 1.365-.17.53-.255 1.13-.255 1.8 0 .88.135 1.645.405 2.295.28.65.69 1.15 1.23 1.5.55.35 1.235.525 2.055.525.47 0 .915-.04 1.335-.12.42-.08.83-.18 1.23-.3v1.17c-.4.15-.815.26-1.245.33-.42.07-.925.105-1.515.105-1.09 0-2-.225-2.73-.675-.73-.45-1.28-1.09-1.65-1.92-.36-.83-.54-1.805-.54-2.925 0-.81.11-1.55.33-2.22.23-.67.56-1.25.99-1.74.44-.49.98-.865 1.62-1.125.64-.27 1.375-.405 2.205-.405.55 0 1.08.055 1.59.165.51.11.965.265 1.365.465l-.54 1.14c-.33-.15-.7-.285-1.11-.405-.4-.12-.84-.18-1.32-.18zm11.173 3.66c0 .5-.15.89-.45 1.17-.3.28-.685.47-1.155.57v.06c.5.07.935.25 1.305.54.37.28.555.72.555 1.32 0 .34-.065.655-.195.945-.12.29-.31.54-.57.75-.26.21-.595.375-1.005.495-.41.11-.905.165-1.485.165h-3.465v-8.04h3.45c.57 0 1.08.065 1.53.195.46.12.82.33 1.08.63.27.29.405.69.405 1.2zm-1.11 3.66c0-.46-.175-.79-.525-.99-.35-.2-.865-.3-1.545-.3h-1.965v2.58h1.995c.66 0 1.165-.095 1.515-.285.35-.2.525-.535.525-1.005zm-.225-3.495c0-.38-.14-.655-.42-.825-.27-.18-.715-.27-1.335-.27h-2.055v2.205h1.815c.65 0 1.145-.09 1.485-.27.34-.18.51-.46.51-.84zM89.236 98h-1.53l2.295-3.375c-.31-.08-.61-.205-.9-.375a2.073 2.073 0 01-.705-.735c-.18-.32-.27-.715-.27-1.185 0-.77.26-1.355.78-1.755.52-.41 1.21-.615 2.07-.615h3.6V98h-1.32v-3.195h-1.95L89.236 98zm.165-5.655c0 .46.17.805.51 1.035.35.22.835.33 1.455.33h1.89v-2.655h-2.145c-.61 0-1.05.12-1.32.36-.26.24-.39.55-.39.93zm9.834-2.535c.61 0 1.14.085 1.59.255.45.16.8.4 1.05.72.25.31.375.69.375 1.14 0 .49-.135.88-.405 1.17-.27.28-.64.485-1.11.615v.06c.32.09.615.215.885.375s.485.37.645.63c.17.26.255.595.255 1.005 0 .44-.125.84-.375 1.2-.24.36-.615.645-1.125.855-.5.21-1.145.315-1.935.315-.38 0-.745-.02-1.095-.06-.34-.04-.65-.1-.93-.18-.27-.08-.51-.175-.72-.285V96.44c.34.16.74.305 1.2.435.47.13.98.195 1.53.195.4 0 .76-.045 1.08-.135.33-.09.59-.23.78-.42.19-.2.285-.47.285-.81 0-.31-.085-.56-.255-.75-.17-.2-.425-.35-.765-.45-.33-.1-.755-.15-1.275-.15h-1.08v-1.08h.87c.69 0 1.24-.09 1.65-.27.42-.19.63-.51.63-.96 0-.38-.16-.665-.48-.855-.31-.19-.76-.285-1.35-.285-.44 0-.83.045-1.17.135-.33.08-.695.205-1.095.375l-.465-1.05c.43-.19.88-.33 1.35-.42a7.72 7.72 0 011.455-.135zm8.284.015c.98 0 1.705.215 2.175.645.47.43.705 1.115.705 2.055V98h-.96l-.255-1.14h-.06c-.23.29-.47.535-.72.735-.24.19-.52.33-.84.42-.31.09-.69.135-1.14.135-.48 0-.915-.085-1.305-.255-.38-.17-.68-.43-.9-.78-.22-.36-.33-.81-.33-1.35 0-.8.315-1.415.945-1.845.63-.44 1.6-.68 2.91-.72l1.365-.045v-.48c0-.67-.145-1.135-.435-1.395-.29-.26-.7-.39-1.23-.39-.42 0-.82.065-1.2.195-.38.12-.735.26-1.065.42l-.405-.99c.35-.19.765-.35 1.245-.48.48-.14.98-.21 1.5-.21zm.39 4.29c-1 .04-1.695.2-2.085.48-.38.28-.57.675-.57 1.185 0 .45.135.78.405.99.28.21.635.315 1.065.315.68 0 1.245-.185 1.695-.555.45-.38.675-.96.675-1.74v-.72l-1.185.045zm10.523-3.045h-2.625V98h-1.305v-6.93h-2.595v-1.11h6.525v1.11zm5.289 2.19c.7 0 1.28.085 1.74.255.46.17.805.425 1.035.765.24.33.36.75.36 1.26 0 .5-.115.935-.345 1.305-.22.37-.565.655-1.035.855-.47.2-1.075.3-1.815.3h-3.645v-8.04h1.32v3.3h2.385zm1.815 2.355c0-.49-.175-.82-.525-.99-.34-.18-.82-.27-1.44-.27h-2.235v2.58h2.265c.56 0 1.02-.1 1.38-.3.37-.2.555-.54.555-1.02zm6.611 2.535c-.71 0-1.345-.145-1.905-.435-.55-.29-.985-.74-1.305-1.35-.31-.61-.465-1.39-.465-2.34 0-.99.165-1.795.495-2.415.33-.62.775-1.075 1.335-1.365.57-.29 1.215-.435 1.935-.435.41 0 .805.045 1.185.135.38.08.69.18.93.3l-.405 1.095c-.24-.09-.52-.175-.84-.255a3.72 3.72 0 00-.9-.12c-.54 0-.985.115-1.335.345-.35.23-.61.57-.78 1.02-.17.45-.255 1.01-.255 1.68 0 .64.085 1.185.255 1.635.17.45.425.79.765 1.02.34.23.765.345 1.275.345.44 0 .825-.045 1.155-.135.34-.09.65-.2.93-.33v1.17c-.27.14-.57.245-.9.315-.32.08-.71.12-1.17.12zm4.477-.15h-1.53l2.295-3.375c-.31-.08-.61-.205-.9-.375a2.073 2.073 0 01-.705-.735c-.18-.32-.27-.715-.27-1.185 0-.77.26-1.355.78-1.755.52-.41 1.21-.615 2.07-.615h3.6V98h-1.32v-3.195h-1.95L136.624 98zm.165-5.655c0 .46.17.805.51 1.035.35.22.835.33 1.455.33h1.89v-2.655h-2.145c-.61 0-1.05.12-1.32.36-.26.24-.39.55-.39.93zm14.65 5.805c-.71 0-1.345-.145-1.905-.435-.55-.29-.985-.74-1.305-1.35-.31-.61-.465-1.39-.465-2.34 0-.99.165-1.795.495-2.415.33-.62.775-1.075 1.335-1.365.57-.29 1.215-.435 1.935-.435.41 0 .805.045 1.185.135.38.08.69.18.93.3l-.405 1.095c-.24-.09-.52-.175-.84-.255a3.72 3.72 0 00-.9-.12c-.54 0-.985.115-1.335.345-.35.23-.61.57-.78 1.02-.17.45-.255 1.01-.255 1.68 0 .64.085 1.185.255 1.635.17.45.425.79.765 1.02.34.23.765.345 1.275.345.44 0 .825-.045 1.155-.135.34-.09.65-.2.93-.33v1.17c-.27.14-.57.245-.9.315-.32.08-.71.12-1.17.12zm16.313-8.19V98h-1.185v-5.13c0-.21.005-.43.015-.66l.06-.675h-.045L163.972 98h-1.11l-2.55-6.465h-.045c.02.22.03.445.03.675.01.23.015.465.015.705V98h-1.185v-8.04h1.755l2.535 6.465 2.58-6.465h1.755zm5.671-.15c.69 0 1.28.15 1.77.45.5.3.88.725 1.14 1.275.27.54.405 1.175.405 1.905v.795h-5.505c.02.91.25 1.605.69 2.085.45.47 1.075.705 1.875.705.51 0 .96-.045 1.35-.135.4-.1.81-.24 1.23-.42v1.155c-.41.18-.815.31-1.215.39-.4.09-.875.135-1.425.135-.76 0-1.435-.155-2.025-.465a3.303 3.303 0 01-1.365-1.38c-.32-.62-.48-1.375-.48-2.265 0-.88.145-1.635.435-2.265.3-.63.715-1.115 1.245-1.455.54-.34 1.165-.51 1.875-.51zm-.015 1.08c-.63 0-1.13.205-1.5.615-.36.4-.575.96-.645 1.68h4.095c0-.46-.07-.86-.21-1.2a1.695 1.695 0 00-.645-.795c-.28-.2-.645-.3-1.095-.3zm6.697-.93v3.345h4.365V89.96h1.32V98h-1.32v-3.585h-4.365V98h-1.32v-8.04h1.32zm11.336-.15c.69 0 1.28.15 1.77.45.5.3.88.725 1.14 1.275.27.54.405 1.175.405 1.905v.795h-5.505c.02.91.25 1.605.69 2.085.45.47 1.075.705 1.875.705.51 0 .96-.045 1.35-.135.4-.1.81-.24 1.23-.42v1.155c-.41.18-.815.31-1.215.39-.4.09-.875.135-1.425.135-.76 0-1.435-.155-2.025-.465a3.303 3.303 0 01-1.365-1.38c-.32-.62-.48-1.375-.48-2.265 0-.88.145-1.635.435-2.265.3-.63.715-1.115 1.245-1.455.54-.34 1.165-.51 1.875-.51zm-.015 1.08c-.63 0-1.13.205-1.5.615-.36.4-.575.96-.645 1.68h4.095c0-.46-.07-.86-.21-1.2a1.695 1.695 0 00-.645-.795c-.28-.2-.645-.3-1.095-.3zm11.347-.93v6.93h1.17v3.9h-1.275V98h-5.595v2.79h-1.26v-3.9h.645a9.78 9.78 0 001.14-2.085c.31-.76.54-1.55.69-2.37.16-.83.245-1.655.255-2.475h4.23zm-3.06 1.035a12.59 12.59 0 01-.315 2.115c-.17.72-.39 1.41-.66 2.07-.26.66-.565 1.23-.915 1.71h3.675v-5.895h-1.785zm15.451-1.035l-3.315 3.9 3.6 4.14h-1.5l-3.48-4.08V98h-1.23v-4.08l-3.48 4.08h-1.5l3.6-4.14-3.315-3.9h1.44l3.255 3.9v-3.9h1.23v3.9l3.27-3.9h1.425zm10.23 0V98h-1.185v-5.13c0-.21.005-.43.015-.66l.06-.675h-.045L221.614 98h-1.11l-2.55-6.465h-.045c.02.22.03.445.03.675.01.23.015.465.015.705V98h-1.185v-8.04h1.755l2.535 6.465 2.58-6.465h1.755zm5.671-.15c.69 0 1.28.15 1.77.45.5.3.88.725 1.14 1.275.27.54.405 1.175.405 1.905v.795h-5.505c.02.91.25 1.605.69 2.085.45.47 1.075.705 1.875.705.51 0 .96-.045 1.35-.135.4-.1.81-.24 1.23-.42v1.155c-.41.18-.815.31-1.215.39-.4.09-.875.135-1.425.135-.76 0-1.435-.155-2.025-.465a3.303 3.303 0 01-1.365-1.38c-.32-.62-.48-1.375-.48-2.265 0-.88.145-1.635.435-2.265.3-.63.715-1.115 1.245-1.455.54-.34 1.165-.51 1.875-.51zm-.015 1.08c-.63 0-1.13.205-1.5.615-.36.4-.575.96-.645 1.68H233c0-.46-.07-.86-.21-1.2a1.695 1.695 0 00-.645-.795c-.28-.2-.645-.3-1.095-.3zm9.202-1.08c.99 0 1.785.345 2.385 1.035.61.69.915 1.73.915 3.12 0 .91-.14 1.68-.42 2.31-.27.62-.655 1.09-1.155 1.41-.49.31-1.07.465-1.74.465a3.36 3.36 0 01-1.095-.165c-.32-.11-.595-.25-.825-.42a3.49 3.49 0 01-.57-.585h-.09c.02.17.04.385.06.645.02.26.03.485.03.675v3.3h-1.32V89.96h1.08l.18 1.095h.06c.16-.23.35-.44.57-.63.23-.19.5-.34.81-.45.32-.11.695-.165 1.125-.165zm-.24 1.11c-.54 0-.975.105-1.305.315-.33.2-.57.505-.72.915-.15.41-.23.93-.24 1.56v.255c0 .66.07 1.22.21 1.68.14.46.375.81.705 1.05.34.24.8.36 1.38.36.49 0 .89-.135 1.2-.405.32-.27.555-.635.705-1.095.16-.47.24-1.005.24-1.605 0-.92-.18-1.655-.54-2.205-.35-.55-.895-.825-1.635-.825zm12.633 3.045c0 .67-.09 1.265-.27 1.785-.17.51-.42.945-.75 1.305-.32.36-.715.635-1.185.825-.46.18-.975.27-1.545.27-.53 0-1.02-.09-1.47-.27-.45-.19-.84-.465-1.17-.825-.33-.36-.59-.795-.78-1.305-.18-.52-.27-1.115-.27-1.785 0-.89.15-1.64.45-2.25.3-.62.73-1.09 1.29-1.41.56-.33 1.225-.495 1.995-.495.73 0 1.37.165 1.92.495.56.32.995.79 1.305 1.41.32.61.48 1.36.48 2.25zm-6.075 0c0 .63.08 1.18.24 1.65.17.46.43.815.78 1.065.35.25.795.375 1.335.375.54 0 .985-.125 1.335-.375s.605-.605.765-1.065c.17-.47.255-1.02.255-1.65 0-.64-.085-1.185-.255-1.635-.17-.45-.43-.795-.78-1.035-.34-.25-.785-.375-1.335-.375-.82 0-1.415.27-1.785.81-.37.54-.555 1.285-.555 2.235zm16.792-4.005V98h-1.185v-5.13c0-.21.005-.43.015-.66l.06-.675h-.045L259.582 98h-1.11l-2.55-6.465h-.045c.02.22.03.445.03.675.01.23.015.465.015.705V98h-1.185v-8.04h1.755l2.535 6.465 2.58-6.465h1.755z" fill="#FCFCFC"/><rect x="1" y="73" width="332" height="39" rx="19" stroke="url(#paint0_linear_139_1416)" stroke-width="2"/><defs><linearGradient id="paint0_linear_139_1416" x1="0" y1="72" x2="33.03" y2="194.29" gradientUnits="userSpaceOnUse"><stop stop-color="#624AF2"/><stop offset="1" stop-color="#50DDC3"/></linearGradient></defs></svg>