<svg width="375" height="99" viewBox="0 0 375 99" fill="none" xmlns="http://www.w3.org/2000/svg"><g filter="url(#filter0_bd_75_2878)"><path fill="#1A1B37" d="M0 0h375v98H0z"/><path d="M16 44c0-5.523 4.477-10 10-10h323c5.523 0 10 4.477 10 10H16z" fill="#4E4B66"/><path fill-rule="evenodd" clip-rule="evenodd" d="M375 0H0v58c0-3.723 0-5.584.49-7.09a10 10 0 016.42-6.42C8.416 44 10.277 44 14 44h2c0-5.523 4.477-10 10-10h323c5.523 0 10 4.477 10 10h2c3.723 0 5.584 0 7.09.49a10.002 10.002 0 016.421 6.42C375 52.416 375 54.277 375 58V0z" fill="#000"/><path d="M37.61 84h1.495v-5.454h6.574V84h1.494V72.022h-1.494v5.18h-6.575v-5.18H37.61V84zm14.65.158c1.204 0 2.142-.523 2.706-1.478h.133V84h1.444v-6.126c0-1.86-1.22-2.98-3.403-2.98-1.91 0-3.27.946-3.503 2.35l-.008.049h1.444l.008-.025c.233-.697.938-1.096 2.009-1.096 1.336 0 2.009.598 2.009 1.702v.814l-2.565.157c-2.084.125-3.262 1.046-3.262 2.64v.016c0 1.627 1.286 2.657 2.988 2.657zm-1.51-2.69v-.016c0-.888.597-1.37 1.958-1.453l2.39-.15v.814c0 1.278-1.07 2.241-2.54 2.241-1.037 0-1.809-.531-1.809-1.436zm11.229 2.698c2.083 0 3.52-1.137 3.52-2.797v-.017c0-.996-.623-1.71-1.802-1.967v-.133c.888-.208 1.478-1.03 1.478-1.934V77.3c0-1.427-1.146-2.415-3.146-2.415-1.826 0-3.138.913-3.346 2.349l-.008.058h1.411l.009-.042c.14-.713.913-1.17 1.934-1.17 1.145 0 1.735.564 1.735 1.328v.017c0 .93-.64 1.386-1.785 1.386h-1.395v1.195h1.395c1.37 0 2.1.449 2.1 1.42v.016c0 .889-.78 1.528-2.1 1.528-1.087 0-1.884-.465-2.067-1.196l-.017-.066h-1.469l.008.066c.183 1.445 1.636 2.391 3.545 2.391zm7.976-.008c1.203 0 2.141-.523 2.706-1.478h.133V84h1.444v-6.126c0-1.86-1.22-2.98-3.403-2.98-1.91 0-3.27.946-3.503 2.35l-.009.049h1.445l.008-.025c.232-.697.938-1.096 2.009-1.096 1.336 0 2.009.598 2.009 1.702v.814l-2.565.157c-2.084.125-3.263 1.046-3.263 2.64v.016c0 1.627 1.287 2.657 2.989 2.657zm-1.511-2.69v-.016c0-.888.598-1.37 1.959-1.453l2.39-.15v.814c0 1.278-1.07 2.241-2.54 2.241-1.037 0-1.809-.531-1.809-1.436zm8.39 4.898V84h6.998v2.366h1.345v-3.561H83.75v-7.753h-6.1l-.35 4.988c-.082 1.204-.406 2.333-1.062 2.765h-.747v3.56h1.345zm5.471-3.561h-4.4v-.133c.424-.556.656-1.51.74-2.598l.282-3.827h3.378v6.558z" fill="#EFF0F7"/><path d="M167.592 84h-2.066V72.022h1.859l5.877 8.143h.141v-8.143h2.059V84h-1.851l-5.877-8.151h-.142V84zm13.314-1.47c.619 0 1.137-.176 1.552-.53.415-.36.622-.803.622-1.329v-.722l-2.05.133c-1.129.072-1.693.482-1.693 1.229 0 .376.144.675.431.896.294.216.673.324 1.138.324zm-.606 1.62c-.886 0-1.608-.25-2.167-.748-.559-.498-.838-1.156-.838-1.975 0-.82.296-1.461.888-1.926.598-.465 1.45-.73 2.557-.797l2.34-.141v-.764c0-.448-.146-.791-.439-1.029-.294-.238-.717-.357-1.27-.357-.476 0-.869.083-1.179.25-.31.16-.512.392-.606.696h-1.943c.083-.802.471-1.438 1.163-1.909.697-.476 1.585-.714 2.664-.714 1.162 0 2.059.269 2.69.805.636.537.954 1.29.954 2.258V84h-1.984v-1.245h-.141a2.66 2.66 0 01-1.096 1.03 3.412 3.412 0 01-1.593.364zm6.888-.15v-9.081h1.984v1.47h.141a2.4 2.4 0 01.955-1.213c.442-.293.965-.44 1.569-.44.614 0 1.137.147 1.568.44.432.288.745.692.938 1.212h.141a2.666 2.666 0 011.08-1.203 3.164 3.164 0 011.676-.449c.908 0 1.619.269 2.134.805.52.537.78 1.276.78 2.217V84h-2.05v-5.72c0-1.167-.554-1.75-1.661-1.75-.531 0-.96.17-1.286.514-.327.343-.49.778-.49 1.303V84h-2v-5.869c0-.498-.147-.888-.44-1.17-.294-.288-.695-.432-1.204-.432s-.932.186-1.27.556c-.338.371-.506.836-.506 1.395V84h-2.059zm18.808-7.628c-.614 0-1.12.202-1.519.606-.398.404-.619.938-.664 1.602h4.275c-.022-.675-.221-1.212-.597-1.61-.377-.4-.875-.598-1.495-.598zm2.109 5.13h1.95a3.154 3.154 0 01-1.369 1.967c-.714.476-1.602.714-2.665.714-1.333 0-2.382-.415-3.146-1.246-.758-.835-1.137-1.983-1.137-3.444 0-1.461.382-2.618 1.146-3.47.763-.858 1.804-1.287 3.121-1.287 1.295 0 2.307.407 3.038 1.22.736.808 1.104 1.93 1.104 3.362v.664h-6.342v.108c.028.758.243 1.359.647 1.802.41.437.952.655 1.627.655 1.041 0 1.716-.348 2.026-1.046z" fill="#1954C5"/><circle cx="328.26" cy="78" r="1.35" transform="rotate(-90 328.26 78)" fill="#EFF0F7"/><circle cx="334" cy="78" r="1.35" transform="rotate(-90 334 78)" fill="#EFF0F7"/><circle cx="339.74" cy="78" r="1.35" transform="rotate(-90 339.74 78)" fill="#EFF0F7"/><circle cx="334" cy="78" r="11.15" stroke="#EFF0F7" stroke-width="1.7"/></g><defs><filter id="filter0_bd_75_2878" x="-20" y="-20" width="415" height="138" filterUnits="userSpaceOnUse" color-interpolation-filters="sRGB"><feFlood flood-opacity="0" result="BackgroundImageFix"/><feGaussianBlur in="BackgroundImageFix" stdDeviation="10"/><feComposite in2="SourceAlpha" operator="in" result="effect1_backgroundBlur_75_2878"/><feColorMatrix in="SourceAlpha" values="0 0 0 0 0 0 0 0 0 0 0 0 0 0 0 0 0 0 127 0" result="hardAlpha"/><feOffset dy=".5"/><feColorMatrix values="0 0 0 0 0 0 0 0 0 0 0 0 0 0 0 0 0 0 0.3 0"/><feBlend in2="effect1_backgroundBlur_75_2878" result="effect2_dropShadow_75_2878"/><feBlend in="SourceGraphic" in2="effect2_dropShadow_75_2878" result="shape"/></filter></defs></svg>