<svg width="102" height="26" viewBox="0 0 102 26" fill="none" xmlns="http://www.w3.org/2000/svg"><path d="M0 0h89c7.18 0 13 5.82 13 13s-5.82 13-13 13H0V0z" fill="#1954C5"/><path d="M31.437 8.718v7.644h1.235v4.342h-1.898V18h-5.811v2.704h-1.898v-4.342h.715c.243-.485.477-.997.702-1.534a19.08 19.08 0 00.624-1.729c.2-.615.377-1.283.533-2.002.156-.728.286-1.521.39-2.379h5.408zm-3.848 1.638c-.06.45-.147.932-.26 1.443a24.1 24.1 0 01-.403 1.547 23.29 23.29 0 01-.494 1.56c-.182.511-.377.997-.585 1.456h3.627v-6.006h-1.885zm8.225 3.354c0 .147-.009.33-.026.546-.009.217-.022.438-.04.663a9.802 9.802 0 01-.038.598c-.018.173-.03.295-.04.364l3.277-4.979h2.327V18h-1.872v-2.834c0-.234.008-.49.026-.767.017-.286.034-.55.052-.793.026-.251.043-.442.052-.572L36.269 18h-2.327v-7.098h1.872v2.808zm10.071-2.938c.512 0 .988.07 1.43.208.45.13.81.334 1.08.611.276.277.415.633.415 1.066 0 .425-.13.763-.39 1.014-.251.251-.593.433-1.027.546v.065c.303.07.576.169.82.299.242.121.432.29.571.507.148.208.221.49.221.845 0 .39-.126.754-.377 1.092-.242.33-.624.598-1.144.806-.511.2-1.17.299-1.976.299-.381 0-.74-.017-1.079-.052a8.301 8.301 0 01-.923-.143 4.194 4.194 0 01-.728-.247v-1.599c.295.139.654.264 1.08.377.433.113.892.169 1.377.169.355 0 .672-.026.95-.078.285-.052.51-.139.675-.26a.561.561 0 00.26-.481.579.579 0 00-.22-.468c-.148-.13-.37-.225-.664-.286a5.772 5.772 0 00-1.13-.091h-.755v-1.339h.715c.642 0 1.136-.052 1.482-.156.355-.104.533-.299.533-.585 0-.225-.113-.394-.338-.507-.225-.121-.593-.182-1.105-.182-.338 0-.706.039-1.105.117-.398.078-.776.19-1.13.338l-.573-1.352a8.11 8.11 0 011.34-.377 8.278 8.278 0 011.715-.156zm7.536-.013c.953 0 1.681.208 2.184.624.512.407.767 1.036.767 1.885V18H55.02l-.377-.962h-.052c-.2.251-.407.46-.624.624-.208.165-.45.282-.728.351a3.646 3.646 0 01-1 .117c-.417 0-.794-.078-1.132-.234a1.836 1.836 0 01-.78-.741c-.19-.338-.286-.763-.286-1.274 0-.754.265-1.309.793-1.664.529-.364 1.322-.563 2.38-.598l1.234-.039v-.312c0-.373-.1-.646-.299-.819-.19-.173-.46-.26-.806-.26-.347 0-.685.052-1.014.156-.33.095-.659.217-.988.364l-.637-1.313c.382-.2.802-.355 1.261-.468a6.198 6.198 0 011.456-.169zm.273 3.978c-.624.017-1.057.13-1.3.338a1.027 1.027 0 00-.364.819c0 .295.087.507.26.637.174.121.399.182.676.182.416 0 .767-.121 1.053-.364.286-.251.43-.602.43-1.053v-.585l-.755.026zm11.46-6.89c-.043.45-.17.85-.377 1.196-.208.338-.533.602-.975.793-.442.19-1.036.286-1.781.286-.763 0-1.36-.091-1.794-.273-.425-.19-.728-.455-.91-.793-.182-.338-.29-.741-.325-1.209h1.729c.043.477.165.793.364.949.2.156.524.234.975.234.372 0 .676-.082.91-.247.242-.173.386-.485.429-.936h1.755zm-4.927 5.863c0 .147-.009.33-.026.546-.009.217-.022.438-.04.663a9.802 9.802 0 01-.038.598c-.017.173-.03.295-.04.364l3.277-4.979h2.327V18h-1.872v-2.834c0-.234.009-.49.026-.767.017-.286.035-.55.052-.793.026-.251.043-.442.052-.572L60.682 18h-2.327v-7.098h1.872v2.808zm9.421-2.808v2.73h2.704v-2.73h1.937V18h-1.937v-2.925h-2.704V18h-1.937v-7.098h1.937z" fill="#EFF0F7"/></svg>