<svg width="146" height="23" viewBox="0 0 146 23" fill="none" xmlns="http://www.w3.org/2000/svg"><path d="M9.825 17H7.56V8.18H4.935l-.195 1.5c-.06.54-.13 1.09-.21 1.65-.07.55-.145 1.075-.225 1.575-.08.49-.16.925-.24 1.305-.13.62-.305 1.15-.525 1.59-.21.44-.505.775-.885 1.005-.37.23-.855.345-1.455.345-.2 0-.39-.015-.57-.045-.18-.03-.35-.07-.51-.12v-1.86c.13.04.255.075.375.105.13.03.27.045.42.045a.67.67 0 00.495-.195c.13-.13.245-.35.345-.66.1-.32.2-.76.3-1.32.05-.24.11-.58.18-1.02.07-.45.15-.975.24-1.575A89.116 89.116 0 003.06 6.29h6.765V17zm9.962-4.11c0 .68-.095 1.285-.285 1.815-.18.53-.445.98-.795 1.35-.34.36-.755.635-1.245.825-.49.18-1.045.27-1.665.27-.57 0-1.1-.09-1.59-.27a3.522 3.522 0 01-1.245-.825c-.35-.37-.625-.82-.825-1.35-.19-.53-.285-1.135-.285-1.815 0-.91.16-1.675.48-2.295.32-.63.78-1.11 1.38-1.44.6-.33 1.31-.495 2.13-.495.77 0 1.45.165 2.04.495.59.33 1.055.81 1.395 1.44.34.62.51 1.385.51 2.295zm-5.655 0c0 .54.055.995.165 1.365.12.36.305.635.555.825.25.18.575.27.975.27s.72-.09.96-.27c.25-.19.43-.465.54-.825.12-.37.18-.825.18-1.365s-.06-.99-.18-1.35c-.11-.36-.29-.63-.54-.81-.25-.18-.575-.27-.975-.27-.59 0-1.02.205-1.29.615-.26.4-.39 1.005-.39 1.815zm13.157-4.08v1.68h-3.42V17h-2.235V8.81h5.655zm8.801 4.08c0 .68-.095 1.285-.285 1.815-.18.53-.444.98-.794 1.35-.34.36-.756.635-1.245.825-.49.18-1.045.27-1.666.27-.57 0-1.1-.09-1.59-.27a3.522 3.522 0 01-1.245-.825c-.35-.37-.625-.82-.825-1.35-.19-.53-.285-1.135-.285-1.815 0-.91.16-1.675.48-2.295.32-.63.78-1.11 1.38-1.44.6-.33 1.31-.495 2.13-.495.77 0 1.45.165 2.04.495.59.33 1.055.81 1.395 1.44.34.62.51 1.385.51 2.295zm-5.655 0c0 .54.056.995.166 1.365.12.36.305.635.555.825.25.18.575.27.974.27.4 0 .72-.09.96-.27.25-.19.43-.465.54-.825.12-.37.18-.825.18-1.365s-.06-.99-.18-1.35c-.11-.36-.29-.63-.54-.81-.25-.18-.575-.27-.975-.27-.59 0-1.02.205-1.29.615-.26.4-.39 1.005-.39 1.815zm14.763-1.935c0 .44-.14.815-.42 1.125-.27.31-.675.51-1.215.6v.06c.57.07 1.025.265 1.365.585.35.32.525.73.525 1.23 0 .35-.07.675-.21.975-.13.3-.34.56-.63.78-.29.22-.665.39-1.125.51-.45.12-1 .18-1.65.18h-3.9V8.81h3.9c.64 0 1.21.07 1.71.21.51.13.91.35 1.2.66.3.31.45.735.45 1.275zm-2.055 3.48c0-.32-.125-.55-.375-.69-.25-.15-.625-.225-1.125-.225h-1.47v1.935h1.515c.42 0 .765-.075 1.035-.225.28-.16.42-.425.42-.795zm-.21-3.3c0-.26-.1-.45-.3-.57-.2-.12-.495-.18-.885-.18h-1.575v1.62h1.32c.47 0 .825-.065 1.065-.195.25-.14.375-.365.375-.675zM54.81 12.89c0 .68-.095 1.285-.285 1.815-.18.53-.445.98-.795 1.35-.34.36-.755.635-1.245.825-.49.18-1.045.27-1.665.27-.57 0-1.1-.09-1.59-.27a3.522 3.522 0 01-1.245-.825c-.35-.37-.625-.82-.825-1.35-.19-.53-.285-1.135-.285-1.815 0-.91.16-1.675.48-2.295.32-.63.78-1.11 1.38-1.44.6-.33 1.31-.495 2.13-.495.77 0 1.45.165 2.04.495.59.33 1.055.81 1.395 1.44.34.62.51 1.385.51 2.295zm-5.655 0c0 .54.055.995.165 1.365.12.36.305.635.555.825.25.18.575.27.975.27s.72-.09.96-.27c.25-.19.43-.465.54-.825.12-.37.18-.825.18-1.365s-.06-.99-.18-1.35c-.11-.36-.29-.63-.54-.81-.25-.18-.575-.27-.975-.27-.59 0-1.02.205-1.29.615-.26.4-.39 1.005-.39 1.815zM67.29 8.81v6.555h1.2v4.575h-2.01V17h-5.505v2.94h-2.01v-4.575h.69c.36-.55.665-1.175.915-1.875.25-.71.45-1.465.6-2.265.15-.8.26-1.605.33-2.415h5.79zm-3.915 1.68c-.08.6-.18 1.185-.3 1.755-.12.56-.27 1.1-.45 1.62-.17.52-.38 1.02-.63 1.5h3.06V10.49h-1.68zm8.67 1.56c0 .17-.01.38-.03.63-.01.25-.024.505-.044.765-.01.26-.025.49-.045.69-.02.2-.035.34-.045.42l3.78-5.745h2.685V17h-2.16v-3.27c0-.27.01-.565.03-.885.02-.33.04-.635.06-.915.03-.29.05-.51.06-.66L72.57 17h-2.685V8.81h2.16v3.24zm11.622-3.39c.59 0 1.14.08 1.65.24.52.15.935.385 1.245.705.32.32.48.73.48 1.23 0 .49-.15.88-.45 1.17-.29.29-.685.5-1.185.63v.075c.35.08.665.195.945.345.28.14.5.335.66.585.17.24.255.565.255.975 0 .45-.145.87-.435 1.26-.28.38-.72.69-1.32.93-.59.23-1.35.345-2.28.345-.44 0-.855-.02-1.245-.06a9.58 9.58 0 01-1.065-.165c-.32-.08-.6-.175-.84-.285v-1.845c.34.16.755.305 1.245.435.5.13 1.03.195 1.59.195.41 0 .775-.03 1.095-.09.33-.06.59-.16.78-.3.2-.14.3-.325.3-.555 0-.22-.085-.4-.255-.54-.17-.15-.425-.26-.765-.33s-.775-.105-1.305-.105h-.87V11.96h.825c.74 0 1.31-.06 1.71-.18.41-.12.615-.345.615-.675 0-.26-.13-.455-.39-.585-.26-.14-.685-.21-1.275-.21-.39 0-.815.045-1.275.135-.46.09-.895.22-1.305.39l-.66-1.56c.47-.18.985-.325 1.545-.435.56-.12 1.22-.18 1.98-.18zm8.695-.015c1.1 0 1.94.24 2.52.72.59.47.885 1.195.885 2.175V17h-1.56l-.435-1.11h-.06c-.23.29-.47.53-.72.72-.24.19-.52.325-.84.405-.31.09-.695.135-1.155.135-.48 0-.915-.09-1.305-.27-.38-.19-.68-.475-.9-.855-.22-.39-.33-.88-.33-1.47 0-.87.305-1.51.915-1.92.61-.42 1.525-.65 2.745-.69l1.425-.045v-.36c0-.43-.115-.745-.345-.945-.22-.2-.53-.3-.93-.3s-.79.06-1.17.18c-.38.11-.76.25-1.14.42l-.735-1.515c.44-.23.925-.41 1.455-.54.54-.13 1.1-.195 1.68-.195zm.315 4.59c-.72.02-1.22.15-1.5.39-.28.24-.42.555-.42.945 0 .34.1.585.3.735.2.14.46.21.78.21.48 0 .885-.14 1.215-.42.33-.29.495-.695.495-1.215v-.675l-.87.03zm13.223-7.95c-.05.52-.195.98-.435 1.38-.24.39-.615.695-1.125.915-.51.22-1.195.33-2.055.33-.88 0-1.57-.105-2.07-.315-.49-.22-.84-.525-1.05-.915-.21-.39-.335-.855-.375-1.395h1.995c.05.55.19.915.42 1.095.23.18.605.27 1.125.27.43 0 .78-.095 1.05-.285.28-.2.445-.56.495-1.08h2.025zm-5.685 6.765c0 .17-.01.38-.03.63-.01.25-.025.505-.045.765-.01.26-.025.49-.045.69-.02.2-.035.34-.045.42l3.78-5.745h2.685V17h-2.16v-3.27c0-.27.01-.565.03-.885.02-.33.04-.635.06-.915.03-.29.05-.51.06-.66L100.74 17h-2.685V8.81h2.16v3.24zm10.871-3.24v3.15h3.12V8.81h2.235V17h-2.235v-3.375h-3.12V17h-2.235V8.81h2.235zm11.071-.15c.76 0 1.41.145 1.95.435.55.29.975.71 1.275 1.26.3.55.45 1.225.45 2.025v1.08h-5.28c.02.63.205 1.125.555 1.485.36.36.855.54 1.485.54.53 0 1.01-.05 1.44-.15.43-.11.875-.275 1.335-.495v1.725c-.4.2-.825.345-1.275.435-.44.1-.975.15-1.605.15-.82 0-1.545-.15-2.175-.45a3.445 3.445 0 01-1.485-1.395c-.36-.62-.54-1.4-.54-2.34 0-.96.16-1.755.48-2.385.33-.64.785-1.12 1.365-1.44.58-.32 1.255-.48 2.025-.48zm.015 1.59c-.43 0-.79.14-1.08.42-.28.28-.445.715-.495 1.305h3.135c0-.33-.06-.625-.18-.885a1.34 1.34 0 00-.51-.615c-.23-.15-.52-.225-.87-.225zm10.033-1.59c.92 0 1.665.36 2.235 1.08.57.71.855 1.76.855 3.15 0 .93-.135 1.715-.405 2.355-.27.63-.64 1.105-1.11 1.425-.47.32-1.015.48-1.635.48-.39 0-.73-.05-1.02-.15-.28-.1-.52-.23-.72-.39-.2-.16-.375-.33-.525-.51h-.12a6.026 6.026 0 01.12 1.2v3.3h-2.235V8.81h1.815l.315 1.065h.105c.15-.22.33-.42.54-.6.21-.19.46-.34.75-.45.3-.11.645-.165 1.035-.165zm-.72 1.785c-.39 0-.7.08-.93.24-.23.16-.4.405-.51.735-.1.32-.155.725-.165 1.215v.24c0 .53.05.98.15 1.35.1.36.27.635.51.825.24.19.565.285.975.285.34 0 .62-.095.84-.285.22-.19.385-.47.495-.84.11-.37.165-.82.165-1.35 0-.8-.125-1.4-.375-1.8-.24-.41-.625-.615-1.155-.615zm9.012-1.8c1.1 0 1.94.24 2.52.72.59.47.885 1.195.885 2.175V17h-1.56l-.435-1.11h-.06c-.23.29-.47.53-.72.72-.24.19-.52.325-.84.405-.31.09-.695.135-1.155.135-.48 0-.915-.09-1.305-.27-.38-.19-.68-.475-.9-.855-.22-.39-.33-.88-.33-1.47 0-.87.305-1.51.915-1.92.61-.42 1.525-.65 2.745-.69l1.425-.045v-.36c0-.43-.115-.745-.345-.945-.22-.2-.53-.3-.93-.3s-.79.06-1.17.18c-.38.11-.76.25-1.14.42l-.735-1.515c.44-.23.925-.41 1.455-.54.54-.13 1.1-.195 1.68-.195zm.315 4.59c-.72.02-1.22.15-1.5.39-.28.24-.42.555-.42.945 0 .34.1.585.3.735.2.14.46.21.78.21.48 0 .885-.14 1.215-.42.33-.29.495-.695.495-1.215v-.675l-.87.03z" fill="#EFF0F7"/></svg>