<svg width="345" height="15" viewBox="0 0 345 15" fill="none" xmlns="http://www.w3.org/2000/svg"><path opacity=".35" fill-rule="evenodd" clip-rule="evenodd" d="M319.631 4.452a2.667 2.667 0 012.666-2.666h17.609a2.667 2.667 0 012.666 2.666v6.81a2.667 2.667 0 01-2.666 2.666h-17.609a2.667 2.667 0 01-2.666-2.666v-6.81z" fill="#FCFCFC"/><path opacity=".4" d="M343.615 5.714V10A2.327 2.327 0 00345 7.857c0-.936-.546-1.78-1.385-2.143" fill="#FCFCFC"/><path d="M321.716 5.262c0-.737.597-1.334 1.334-1.334h16.103c.737 0 1.334.597 1.334 1.334v5.19c0 .737-.597 1.334-1.334 1.334H323.05a1.333 1.333 0 01-1.334-1.334v-5.19z" fill="#FCFCFC"/><path fill-rule="evenodd" clip-rule="evenodd" d="M306.419 4.222c2.311 0 4.533.913 6.208 2.549a.314.314 0 00.451-.004l1.206-1.25a.347.347 0 00.097-.245.345.345 0 00-.1-.243 11.145 11.145 0 00-15.725 0 .35.35 0 00-.003.488l1.205 1.25c.125.129.326.13.452.004a8.885 8.885 0 016.209-2.549zm0 4.067c1.269 0 2.494.485 3.435 1.36a.318.318 0 00.452-.005l1.204-1.25a.351.351 0 00-.005-.492 7.32 7.32 0 00-10.17 0 .344.344 0 00-.102.245.347.347 0 00.098.247l1.203 1.25c.124.127.325.13.452.006a5.043 5.043 0 013.433-1.36zm2.412 2.736a.342.342 0 01-.098.248l-2.083 2.16a.32.32 0 01-.462 0l-2.084-2.16a.342.342 0 01-.097-.248.336.336 0 01.107-.242 3.496 3.496 0 014.609 0c.067.062.106.15.108.242zM292.17 2.143h-1.043c-.575 0-1.042.48-1.042 1.071V12.5c0 .591.467 1.071 1.042 1.071h1.043c.576 0 1.043-.48 1.043-1.071V3.214c0-.592-.467-1.071-1.043-1.071zm-5.909 2.5h1.043c.576 0 1.043.48 1.043 1.071V12.5c0 .591-.467 1.071-1.043 1.071h-1.043c-.576 0-1.043-.48-1.043-1.071V5.714c0-.592.467-1.071 1.043-1.071zm-3.824 2.5h-1.042c-.576 0-1.043.48-1.043 1.071V12.5c0 .591.467 1.071 1.043 1.071h1.042c.576 0 1.043-.48 1.043-1.071V8.214c0-.592-.467-1.071-1.043-1.071zm-4.866 2.142h-1.043c-.576 0-1.043.48-1.043 1.072V12.5c0 .591.467 1.071 1.043 1.071h1.043c.576 0 1.043-.48 1.043-1.071v-2.143c0-.592-.467-1.072-1.043-1.072z" fill="#FCFCFC"/><path d="M6.187 11V3.239H4.731l.507-.91h1.911V11h-.962zm9.02-1.144c-.598.867-1.339 1.3-2.223 1.3-.883 0-1.624-.433-2.223-1.3-.58-.84-.87-1.902-.87-3.185 0-1.283.29-2.344.87-3.185.599-.867 1.34-1.3 2.224-1.3.883 0 1.625.433 2.223 1.3.58.84.87 1.902.87 3.185 0 1.283-.29 2.344-.87 3.185zm-.728-5.824c-.398-.641-.896-.962-1.494-.962s-1.097.32-1.495.962c-.425.676-.638 1.556-.638 2.639 0 1.083.213 1.963.637 2.639.4.641.897.962 1.495.962.598 0 1.097-.32 1.495-.962.425-.676.638-1.556.638-2.639 0-1.083-.213-1.963-.638-2.639zm3.23 2.548a.624.624 0 01-.196-.455c0-.173.065-.325.195-.455a.624.624 0 01.455-.195c.174 0 .325.065.455.195s.195.282.195.455a.624.624 0 01-.195.455.624.624 0 01-.455.195.624.624 0 01-.455-.195zm0 4.381a.624.624 0 01-.196-.455c0-.173.065-.325.195-.455a.624.624 0 01.455-.195c.174 0 .325.065.455.195s.195.282.195.455a.624.624 0 01-.195.455.624.624 0 01-.455.195.624.624 0 01-.455-.195zm4.01-6.487h-.962c.026-.46.16-.884.403-1.274.433-.676 1.105-1.014 2.015-1.014.771 0 1.37.23 1.794.689.433.46.65 1.01.65 1.651 0 .91-.372 1.551-1.118 1.924.113.043.221.104.325.182.113.07.247.182.403.338.156.156.282.373.377.65.095.269.143.576.143.923 0 .789-.255 1.421-.767 1.898-.502.477-1.135.715-1.898.715a3.01 3.01 0 01-1.43-.351c-.442-.243-.771-.624-.988-1.144a2.79 2.79 0 01-.195-.91h.962c.044.355.148.646.312.871.295.433.741.65 1.34.65.476 0 .879-.169 1.208-.507.33-.347.494-.763.494-1.248 0-.71-.286-1.196-.858-1.456a2.017 2.017 0 00-.988-.182v-.858a1.84 1.84 0 00.988-.182c.486-.251.728-.68.728-1.287 0-.425-.121-.776-.364-1.053-.242-.286-.615-.429-1.118-.429-.485 0-.858.165-1.118.494-.2.26-.312.563-.338.91zm10.33-2.626v6.63h1.065v.884h-1.066V11h-.962V9.362H26.64l5.408-7.514zm-3.706 6.63h2.743V4.643l-2.743 3.835z" fill="#FCFCFC"/></svg>