<svg width="323" height="40" viewBox="0 0 323 40" fill="none" xmlns="http://www.w3.org/2000/svg"><path d="M46.699 25h-1.17v-8.255H42.63v-1.027h6.955v1.027h-2.886V25zm9.525-9.282v1.04h-4.07V25h-1.17v-9.282h5.24zm3.303 9.412c-.615 0-1.166-.126-1.651-.377-.477-.251-.854-.641-1.131-1.17-.269-.529-.403-1.205-.403-2.028 0-.858.143-1.556.429-2.093.286-.537.672-.932 1.157-1.183.494-.251 1.053-.377 1.677-.377.355 0 .698.039 1.027.117.33.07.598.156.806.26l-.351.949a6.76 6.76 0 00-.728-.221 3.227 3.227 0 00-.78-.104c-.468 0-.854.1-1.157.299-.303.2-.529.494-.676.884-.147.39-.221.875-.221 1.456 0 .555.074 1.027.221 1.417.147.39.368.685.663.884.295.2.663.299 1.105.299.381 0 .715-.039 1.001-.117.295-.078.563-.173.806-.286v1.014a3.073 3.073 0 01-.78.273c-.277.07-.615.104-1.014.104zm8.261-6.136h-2.275V25h-1.131v-6.006h-2.249v-.962h5.655v.962zm4.012-1.079c.849 0 1.477.186 1.885.559.407.373.61.966.61 1.781V25h-.831l-.221-.988h-.052a3.97 3.97 0 01-.624.637c-.208.165-.451.286-.728.364a3.59 3.59 0 01-.988.117c-.416 0-.793-.074-1.131-.221a1.74 1.74 0 01-.78-.676c-.191-.312-.286-.702-.286-1.17 0-.693.273-1.226.819-1.599.546-.381 1.386-.59 2.522-.624l1.183-.039v-.416c0-.58-.126-.984-.377-1.209-.252-.225-.607-.338-1.066-.338-.364 0-.711.056-1.04.169-.33.104-.637.225-.923.364l-.351-.858a5.006 5.006 0 011.079-.416 4.62 4.62 0 011.3-.182zm.338 3.718c-.867.035-1.47.173-1.807.416-.33.243-.494.585-.494 1.027 0 .39.117.676.35.858.243.182.551.273.924.273.589 0 1.079-.16 1.469-.481.39-.33.585-.832.585-1.508v-.624l-1.027.039zm9.12-2.639h-2.275V25h-1.131v-6.006h-2.25v-.962h5.656v.962z" fill="#FCFCFC"/><path fill-rule="evenodd" clip-rule="evenodd" d="M103.573 14.404a.5.5 0 00-.722.692l4.009 4.178H95.25a.5.5 0 100 1h12.044l-4.443 4.63a.5.5 0 00.722.692l5.038-5.25a.501.501 0 000-.692l-5.038-5.25z" fill="#6D9FFF"/><rect x=".5" y=".5" width="152" height="39" rx="19.5" stroke="#4E4B66"/><path d="M206.699 25h-1.17v-8.255h-2.899v-1.027h6.955v1.027h-2.886V25zm5.907-7.098c.598 0 1.109.13 1.534.39.433.26.762.628.988 1.105.234.468.351 1.018.351 1.651v.689h-4.771c.017.789.216 1.391.598 1.807.39.407.931.611 1.625.611.442 0 .832-.039 1.17-.117a7.083 7.083 0 001.066-.364v1.001a5.14 5.14 0 01-1.053.338 5.698 5.698 0 01-1.235.117c-.659 0-1.244-.134-1.755-.403a2.86 2.86 0 01-1.183-1.196c-.278-.537-.416-1.192-.416-1.963 0-.763.125-1.417.377-1.963.26-.546.619-.966 1.079-1.261.468-.295 1.009-.442 1.625-.442zm-.013.936c-.546 0-.98.178-1.3.533-.312.347-.499.832-.559 1.456h3.549c0-.399-.061-.745-.182-1.04a1.475 1.475 0 00-.559-.689c-.243-.173-.559-.26-.949-.26zM222.556 25h-1.157v-6.019h-2.054a33.211 33.211 0 01-.325 2.821c-.13.771-.294 1.4-.494 1.885-.199.485-.437.84-.715 1.066a1.498 1.498 0 01-.975.338c-.112 0-.225-.009-.338-.026a.718.718 0 01-.26-.065v-.858c.052.017.109.03.169.039.061.009.122.013.182.013a.72.72 0 00.52-.234c.156-.156.295-.394.416-.715.13-.32.247-.724.351-1.209.104-.494.195-1.075.273-1.742.078-.667.148-1.421.208-2.262h4.199V25zm4.903-7.098c.598 0 1.109.13 1.534.39.433.26.763.628.988 1.105.234.468.351 1.018.351 1.651v.689h-4.771c.017.789.217 1.391.598 1.807.39.407.932.611 1.625.611.442 0 .832-.039 1.17-.117a7.045 7.045 0 001.066-.364v1.001a5.102 5.102 0 01-1.053.338 5.691 5.691 0 01-1.235.117c-.659 0-1.244-.134-1.755-.403a2.86 2.86 0 01-1.183-1.196c-.277-.537-.416-1.192-.416-1.963 0-.763.126-1.417.377-1.963.26-.546.62-.966 1.079-1.261.468-.295 1.01-.442 1.625-.442zm-.013.936c-.546 0-.979.178-1.3.533-.312.347-.498.832-.559 1.456h3.549c0-.399-.061-.745-.182-1.04a1.469 1.469 0 00-.559-.689c-.243-.173-.559-.26-.949-.26zm12.135-.806V25h-1.027v-4.446c0-.182.004-.373.013-.572l.052-.585h-.039L236.305 25h-.962l-2.21-5.603h-.039c.017.19.026.386.026.585.009.2.013.403.013.611V25h-1.027v-6.968h1.521l2.197 5.603 2.236-5.603h1.521zm4.915-.13c.598 0 1.11.13 1.534.39.434.26.763.628.988 1.105.234.468.351 1.018.351 1.651v.689h-4.771c.018.789.217 1.391.598 1.807.39.407.932.611 1.625.611.442 0 .832-.039 1.17-.117a7.045 7.045 0 001.066-.364v1.001a5.102 5.102 0 01-1.053.338 5.685 5.685 0 01-1.235.117c-.658 0-1.243-.134-1.755-.403a2.867 2.867 0 01-1.183-1.196c-.277-.537-.416-1.192-.416-1.963 0-.763.126-1.417.377-1.963.26-.546.62-.966 1.079-1.261.468-.295 1.01-.442 1.625-.442zm-.013.936c-.546 0-.979.178-1.3.533-.312.347-.498.832-.559 1.456h3.549c0-.399-.06-.745-.182-1.04a1.463 1.463 0 00-.559-.689c-.242-.173-.559-.26-.949-.26zm9.47.156h-2.275V25h-1.131v-6.006h-2.249v-.962h5.655v.962zm4.688-1.092c.858 0 1.547.299 2.067.897.528.598.793 1.5.793 2.704 0 .789-.122 1.456-.364 2.002-.234.537-.568.945-1.001 1.222-.425.269-.928.403-1.508.403-.356 0-.672-.048-.949-.143a2.621 2.621 0 01-.715-.364 2.986 2.986 0 01-.494-.507h-.078c.017.147.034.334.052.559.017.225.026.42.026.585v2.86h-1.144V18.032h.936l.156.949h.052c.138-.2.303-.381.494-.546.199-.165.433-.295.702-.39a3 3 0 01.975-.143zm-.208.962c-.468 0-.845.091-1.131.273-.286.173-.494.438-.624.793-.13.355-.2.806-.208 1.352v.221c0 .572.06 1.057.182 1.456.121.399.325.702.611.91.294.208.693.312 1.196.312.424 0 .771-.117 1.04-.351.277-.234.481-.55.611-.949.138-.407.208-.871.208-1.391 0-.797-.156-1.434-.468-1.911-.304-.477-.776-.715-1.417-.715z" fill="#FCFCFC"/><path fill-rule="evenodd" clip-rule="evenodd" d="M283.573 14.404a.5.5 0 00-.722.692l4.009 4.178h-11.61a.5.5 0 000 1h12.044l-4.443 4.63a.5.5 0 00.722.692l5.038-5.25a.501.501 0 000-.692l-5.038-5.25z" fill="#6D9FFF"/><rect x="170.5" y=".5" width="152" height="39" rx="19.5" stroke="#4E4B66"/></svg>